ISO-10303-21;
HEADER;
FILE_DESCRIPTION(('STEP AP242'),
    '1');
FILE_NAME('Ронити МД - Основание',
    '',
    ('UNSPECIFIED'),
    ('UNSPECIFIED'),
    'C3D Converter',
    'C3D Toolkit',
    '');
FILE_SCHEMA(('AP242_MANAGED_MODEL_BASED_3D_ENGINEERING_MIM_LF { 1 0 10303 442 1 1 4 }'));
ENDSEC;

DATA;
#1=PRODUCT_DEFINITION('','UNSPECIFIED',#28,#31);
#2=SHAPE_DEFINITION_REPRESENTATION(#26,#3);
#3=SHAPE_REPRESENTATION('NONE',(#4),#8);
#4=AXIS2_PLACEMENT_3D('',#5,#6,#7);
#5=CARTESIAN_POINT('',(0.,0.,0.));
#6=DIRECTION('',(0.,0.,1.));
#7=DIRECTION('',(1.,0.,0.));
#8=(GEOMETRIC_REPRESENTATION_CONTEXT(3)GLOBAL_UNCERTAINTY_ASSIGNED_CONTEXT((#10))
GLOBAL_UNIT_ASSIGNED_CONTEXT((#9,#11,#12))REPRESENTATION_CONTEXT('NONE','NONE'));
#9=(LENGTH_UNIT()NAMED_UNIT(*)SI_UNIT(.MILLI.,.METRE.));
#10=UNCERTAINTY_MEASURE_WITH_UNIT(LENGTH_MEASURE(1.E-5),#9,'NONE','NONE');
#11=(NAMED_UNIT(*)PLANE_ANGLE_UNIT()SI_UNIT($,.RADIAN.));
#12=(NAMED_UNIT(*)SI_UNIT($,.STERADIAN.)SOLID_ANGLE_UNIT());
#13=MANIFOLD_SOLID_BREP('',#14);
#14=CLOSED_SHELL('',(#53,#54,#55,#56,#57,#58,#59,#60,#61,#62,#63,#64,#65,#66,#67,
#68,#69,#70,#71,#72,#73,#74,#75,#76,#77,#78,#79,#80,#81,#82,#83,#84,#85,#86,#87,
#88,#89,#90,#91,#92));
#15=COLOUR_RGB('',1.,0.898039215686275,0.8);
#16=FILL_AREA_STYLE_COLOUR('',#15);
#17=FILL_AREA_STYLE($,(#16));
#18=SURFACE_STYLE_FILL_AREA(#17);
#19=SURFACE_SIDE_STYLE('',(#18));
#20=SURFACE_STYLE_USAGE(.BOTH.,#19);
#21=PRESENTATION_STYLE_ASSIGNMENT((#20));
#22=MECHANICAL_DESIGN_GEOMETRIC_PRESENTATION_REPRESENTATION('NONE',(#23),#8);
#23=STYLED_ITEM('',(#21),#13);
#24=ADVANCED_BREP_SHAPE_REPRESENTATION('NONE',(#13),#8);
#25=SHAPE_REPRESENTATION_RELATIONSHIP('','',#3,#24);
#26=PRODUCT_DEFINITION_SHAPE('NONE','NONE',#1);
#27=MECHANICAL_CONTEXT('NONE',#32,'mechanical');
#28=PRODUCT_DEFINITION_FORMATION_WITH_SPECIFIED_SOURCE('ANY','UNSPECIFIED',#29,.NOT_KNOWN.);
#29=PRODUCT('\X2\0420043E043D043804420438\X0\ \X2\041C0414\X0\','\X2\041E0441043D043E04320430043D04380435\X0\',
'NONE',(#27));
#30=PRODUCT_RELATED_PRODUCT_CATEGORY('detail','',(#29));
#31=DESIGN_CONTEXT('detailed design',#32,'design');
#32=APPLICATION_CONTEXT('configuration controlled 3d designs of mechanical parts and assemblies');
#33=APPLICATION_PROTOCOL_DEFINITION('international standard','config_control_design',
1994,#32);
#34=CC_DESIGN_DATE_AND_TIME_ASSIGNMENT(#35,#39,(#1));
#35=DATE_AND_TIME(#36,#37);
#36=CALENDAR_DATE(0,1,1);
#37=LOCAL_TIME(0,0,0.,#38);
#38=COORDINATED_UNIVERSAL_TIME_OFFSET(0,0,.AHEAD.);
#39=DATE_TIME_ROLE('creation_date');
#40=CC_DESIGN_APPROVAL(#41,(#1));
#41=APPROVAL(#42,'UNSPECIFIED');
#42=APPROVAL_STATUS('not_yet_approved');
#43=APPROVAL_DATE_TIME(#44,#41);
#44=DATE_AND_TIME(#45,#46);
#45=CALENDAR_DATE(0,1,1);
#46=LOCAL_TIME(0,0,0.,#47);
#47=COORDINATED_UNIVERSAL_TIME_OFFSET(0,0,.AHEAD.);
#48=PERSON('UNSPECIFIED','io','UNSPECIFIED',('UNSPECIFIED'),('UNSPECIFIED'),('UNSPECIFIED'));
#49=ORGANIZATION('UNSPECIFIED','UNSPECIFIED','UNSPECIFIED');
#50=PERSON_AND_ORGANIZATION(#48,#49);
#51=PERSON_AND_ORGANIZATION_ROLE('creator');
#52=CC_DESIGN_PERSON_AND_ORGANIZATION_ASSIGNMENT(#50,#51,(#28,#1));
#53=ADVANCED_FACE('',(#93,#95,#97,#99,#101,#103,#105,#107,#109,#111,#113,#115,#117,
#119),#121,.F.);
#54=ADVANCED_FACE('',(#126,#128,#130,#132,#134,#136,#138,#140,#142,#144,#146,#148,
#150,#152),#154,.T.);
#55=ADVANCED_FACE('',(#159),#161,.F.);
#56=ADVANCED_FACE('',(#166),#168,.F.);
#57=ADVANCED_FACE('',(#173),#175,.F.);
#58=ADVANCED_FACE('',(#180),#182,.F.);
#59=ADVANCED_FACE('',(#187),#189,.T.);
#60=ADVANCED_FACE('',(#194),#196,.T.);
#61=ADVANCED_FACE('',(#201),#203,.T.);
#62=ADVANCED_FACE('',(#208),#210,.T.);
#63=ADVANCED_FACE('',(#215),#217,.F.);
#64=ADVANCED_FACE('',(#222),#224,.F.);
#65=ADVANCED_FACE('',(#229),#231,.F.);
#66=ADVANCED_FACE('',(#236),#238,.F.);
#67=ADVANCED_FACE('',(#243),#245,.F.);
#68=ADVANCED_FACE('',(#250),#252,.F.);
#69=ADVANCED_FACE('',(#257),#259,.F.);
#70=ADVANCED_FACE('',(#264),#266,.F.);
#71=ADVANCED_FACE('',(#271),#273,.F.);
#72=ADVANCED_FACE('',(#278),#280,.F.);
#73=ADVANCED_FACE('',(#285),#287,.F.);
#74=ADVANCED_FACE('',(#292),#294,.F.);
#75=ADVANCED_FACE('',(#299,#301),#303,.F.);
#76=ADVANCED_FACE('',(#308,#310),#312,.F.);
#77=ADVANCED_FACE('',(#317,#319),#321,.F.);
#78=ADVANCED_FACE('',(#326,#328),#330,.F.);
#79=ADVANCED_FACE('',(#335,#337),#339,.F.);
#80=ADVANCED_FACE('',(#344,#346),#348,.F.);
#81=ADVANCED_FACE('',(#353,#355),#357,.F.);
#82=ADVANCED_FACE('',(#362,#364),#366,.F.);
#83=ADVANCED_FACE('',(#371,#373),#375,.F.);
#84=ADVANCED_FACE('',(#380,#382),#384,.F.);
#85=ADVANCED_FACE('',(#389),#391,.F.);
#86=ADVANCED_FACE('',(#396),#398,.F.);
#87=ADVANCED_FACE('',(#403),#405,.F.);
#88=ADVANCED_FACE('',(#410),#412,.F.);
#89=ADVANCED_FACE('',(#417),#419,.F.);
#90=ADVANCED_FACE('',(#424),#426,.F.);
#91=ADVANCED_FACE('',(#431),#433,.F.);
#92=ADVANCED_FACE('',(#438),#440,.F.);
#93=FACE_BOUND('',#94,.T.);
#94=EDGE_LOOP('',(#445,#446,#447,#448));
#95=FACE_BOUND('',#96,.T.);
#96=EDGE_LOOP('',(#449,#450,#451,#452));
#97=FACE_BOUND('',#98,.T.);
#98=EDGE_LOOP('',(#453,#454,#455,#456,#457,#458,#459,#460,#461,#462,#463,#464));
#99=FACE_BOUND('',#100,.T.);
#100=EDGE_LOOP('',(#465));
#101=FACE_BOUND('',#102,.T.);
#102=EDGE_LOOP('',(#466));
#103=FACE_BOUND('',#104,.T.);
#104=EDGE_LOOP('',(#467));
#105=FACE_BOUND('',#106,.T.);
#106=EDGE_LOOP('',(#468));
#107=FACE_BOUND('',#108,.T.);
#108=EDGE_LOOP('',(#469));
#109=FACE_BOUND('',#110,.T.);
#110=EDGE_LOOP('',(#470));
#111=FACE_BOUND('',#112,.T.);
#112=EDGE_LOOP('',(#471));
#113=FACE_BOUND('',#114,.T.);
#114=EDGE_LOOP('',(#472));
#115=FACE_BOUND('',#116,.T.);
#116=EDGE_LOOP('',(#473));
#117=FACE_BOUND('',#118,.T.);
#118=EDGE_LOOP('',(#474));
#119=FACE_BOUND('',#120,.T.);
#120=EDGE_LOOP('',(#475,#476,#477,#478,#479,#480,#481,#482));
#121=PLANE('',#122);
#122=AXIS2_PLACEMENT_3D('',#123,#124,#125);
#123=CARTESIAN_POINT('',(0.,0.,0.));
#124=DIRECTION('',(0.,1.,6.12323399573677E-17));
#125=DIRECTION('',(6.12323399573677E-17,6.12323399573677E-17,-1.));
#126=FACE_BOUND('',#127,.T.);
#127=EDGE_LOOP('',(#483,#484,#485,#486));
#128=FACE_BOUND('',#129,.T.);
#129=EDGE_LOOP('',(#487,#488,#489,#490));
#130=FACE_BOUND('',#131,.T.);
#131=EDGE_LOOP('',(#491,#492,#493,#494,#495,#496,#497,#498,#499,#500,#501,#502));
#132=FACE_BOUND('',#133,.T.);
#133=EDGE_LOOP('',(#503));
#134=FACE_BOUND('',#135,.T.);
#135=EDGE_LOOP('',(#504));
#136=FACE_BOUND('',#137,.T.);
#137=EDGE_LOOP('',(#505));
#138=FACE_BOUND('',#139,.T.);
#139=EDGE_LOOP('',(#506));
#140=FACE_BOUND('',#141,.T.);
#141=EDGE_LOOP('',(#507));
#142=FACE_BOUND('',#143,.T.);
#143=EDGE_LOOP('',(#508));
#144=FACE_BOUND('',#145,.T.);
#145=EDGE_LOOP('',(#509));
#146=FACE_BOUND('',#147,.T.);
#147=EDGE_LOOP('',(#510));
#148=FACE_BOUND('',#149,.T.);
#149=EDGE_LOOP('',(#511));
#150=FACE_BOUND('',#151,.T.);
#151=EDGE_LOOP('',(#512));
#152=FACE_BOUND('',#153,.T.);
#153=EDGE_LOOP('',(#513,#514,#515,#516,#517,#518,#519,#520));
#154=PLANE('',#155);
#155=AXIS2_PLACEMENT_3D('',#156,#157,#158);
#156=CARTESIAN_POINT('',(0.,4.,2.44929359829471E-16));
#157=DIRECTION('',(0.,1.,6.12323399573677E-17));
#158=DIRECTION('',(6.12323399573677E-17,6.12323399573677E-17,-1.));
#159=FACE_BOUND('',#160,.T.);
#160=EDGE_LOOP('',(#521,#522,#523,#524));
#161=PLANE('',#162);
#162=AXIS2_PLACEMENT_3D('',#163,#164,#165);
#163=CARTESIAN_POINT('',(23.5640741380335,-6.,-38.));
#164=DIRECTION('',(7.55896527404362E-17,0.,-1.));
#165=DIRECTION('',(-1.,0.,-7.55896527404362E-17));
#166=FACE_BOUND('',#167,.T.);
#167=EDGE_LOOP('',(#525,#526,#527,#528));
#168=PLANE('',#169);
#169=AXIS2_PLACEMENT_3D('',#170,#171,#172);
#170=CARTESIAN_POINT('',(23.5640741380334,-6.,-10.));
#171=DIRECTION('',(1.,-4.50777660126292E-32,2.53765262771464E-16));
#172=DIRECTION('',(2.53765262771464E-16,6.34413156928661E-17,-1.));
#173=FACE_BOUND('',#174,.T.);
#174=EDGE_LOOP('',(#529,#530,#531,#532));
#175=PLANE('',#176);
#176=AXIS2_PLACEMENT_3D('',#177,#178,#179);
#177=CARTESIAN_POINT('',(-70.4359258619666,-6.,-10.));
#178=DIRECTION('',(-1.13384479110654E-16,0.,1.));
#179=DIRECTION('',(1.,0.,1.13384479110654E-16));
#180=FACE_BOUND('',#181,.T.);
#181=EDGE_LOOP('',(#533,#534,#535,#536));
#182=PLANE('',#183);
#183=AXIS2_PLACEMENT_3D('',#184,#185,#186);
#184=CARTESIAN_POINT('',(-70.4359258619666,-6.,-38.));
#185=DIRECTION('',(-1.,0.,0.));
#186=DIRECTION('',(0.,-6.34413156928661E-17,1.));
#187=FACE_BOUND('',#188,.T.);
#188=EDGE_LOOP('',(#537,#538,#539,#540));
#189=PLANE('',#190);
#190=AXIS2_PLACEMENT_3D('',#191,#192,#193);
#191=CARTESIAN_POINT('',(-120.,4.49927934798557E-31,-7.34788079488412E-15));
#192=DIRECTION('',(-6.12323399573677E-17,-6.12323399573676E-17,1.));
#193=DIRECTION('',(1.,-3.74939945665464E-33,6.12323399573677E-17));
#194=FACE_BOUND('',#195,.T.);
#195=EDGE_LOOP('',(#541,#542,#543,#544));
#196=PLANE('',#197);
#197=AXIS2_PLACEMENT_3D('',#198,#199,#200);
#198=CARTESIAN_POINT('',(-160.,2.93915231795365E-15,-48.));
#199=DIRECTION('',(-1.,0.,0.));
#200=DIRECTION('',(0.,-6.12323399573677E-17,1.));
#201=FACE_BOUND('',#202,.T.);
#202=EDGE_LOOP('',(#545,#546,#547,#548));
#203=PLANE('',#204);
#204=AXIS2_PLACEMENT_3D('',#205,#206,#207);
#205=CARTESIAN_POINT('',(2.93915231795365E-15,2.93915231795365E-15,-48.));
#206=DIRECTION('',(5.9211894646675E-17,0.,-1.));
#207=DIRECTION('',(-1.,3.28692043842088E-33,-5.9211894646675E-17));
#208=FACE_BOUND('',#209,.T.);
#209=EDGE_LOOP('',(#549,#550,#551,#552));
#210=PLANE('',#211);
#211=AXIS2_PLACEMENT_3D('',#212,#213,#214);
#212=CARTESIAN_POINT('',(61.,0.,0.));
#213=DIRECTION('',(1.,0.,0.));
#214=DIRECTION('',(0.,6.12323399573676E-17,-1.));
#215=FACE_BOUND('',#216,.T.);
#216=EDGE_LOOP('',(#553,#554,#555,#556));
#217=PLANE('',#218);
#218=AXIS2_PLACEMENT_3D('',#219,#220,#221);
#219=CARTESIAN_POINT('',(-77.,-6.,-31.5));
#220=DIRECTION('',(1.4210854715202E-16,0.,-1.));
#221=DIRECTION('',(-1.,0.,-1.4210854715202E-16));
#222=FACE_BOUND('',#223,.T.);
#223=EDGE_LOOP('',(#557,#558,#559,#560));
#224=PLANE('',#225);
#225=AXIS2_PLACEMENT_3D('',#226,#227,#228);
#226=CARTESIAN_POINT('',(-102.,-6.,-31.5));
#227=DIRECTION('',(1.,0.,0.));
#228=DIRECTION('',(0.,1.1842378929335E-16,-1.));
#229=FACE_BOUND('',#230,.T.);
#230=EDGE_LOOP('',(#561,#562,#563,#564));
#231=PLANE('',#232);
#232=AXIS2_PLACEMENT_3D('',#233,#234,#235);
#233=CARTESIAN_POINT('',(-102.,-6.,-39.));
#234=DIRECTION('',(0.,0.,-1.));
#235=DIRECTION('',(-1.,0.,0.));
#236=FACE_BOUND('',#237,.T.);
#237=EDGE_LOOP('',(#565,#566,#567,#568));
#238=PLANE('',#239);
#239=AXIS2_PLACEMENT_3D('',#240,#241,#242);
#240=CARTESIAN_POINT('',(-122.,-6.,-39.));
#241=DIRECTION('',(-1.,0.,0.));
#242=DIRECTION('',(0.,-1.1842378929335E-16,1.));
#243=FACE_BOUND('',#244,.T.);
#244=EDGE_LOOP('',(#569,#570,#571,#572));
#245=PLANE('',#246);
#246=AXIS2_PLACEMENT_3D('',#247,#248,#249);
#247=CARTESIAN_POINT('',(-122.,-6.,-31.5));
#248=DIRECTION('',(1.4210854715202E-16,0.,-1.));
#249=DIRECTION('',(-1.,0.,-1.4210854715202E-16));
#250=FACE_BOUND('',#251,.T.);
#251=EDGE_LOOP('',(#573,#574,#575,#576));
#252=PLANE('',#253);
#253=AXIS2_PLACEMENT_3D('',#254,#255,#256);
#254=CARTESIAN_POINT('',(-147.,-6.,-31.5));
#255=DIRECTION('',(-1.,0.,0.));
#256=DIRECTION('',(0.,-5.9211894646675E-17,1.));
#257=FACE_BOUND('',#258,.T.);
#258=EDGE_LOOP('',(#577,#578,#579,#580));
#259=PLANE('',#260);
#260=AXIS2_PLACEMENT_3D('',#261,#262,#263);
#261=CARTESIAN_POINT('',(-147.,-6.,-16.5));
#262=DIRECTION('',(-1.4210854715202E-16,0.,1.));
#263=DIRECTION('',(1.,0.,1.4210854715202E-16));
#264=FACE_BOUND('',#265,.T.);
#265=EDGE_LOOP('',(#581,#582,#583,#584));
#266=PLANE('',#267);
#267=AXIS2_PLACEMENT_3D('',#268,#269,#270);
#268=CARTESIAN_POINT('',(-122.,-6.,-16.5));
#269=DIRECTION('',(-1.,0.,0.));
#270=DIRECTION('',(0.,0.,1.));
#271=FACE_BOUND('',#272,.T.);
#272=EDGE_LOOP('',(#585,#586,#587,#588));
#273=PLANE('',#274);
#274=AXIS2_PLACEMENT_3D('',#275,#276,#277);
#275=CARTESIAN_POINT('',(-122.,-6.,-9.00000000000001));
#276=DIRECTION('',(-1.77635683940025E-16,-1.77635683940025E-16,1.));
#277=DIRECTION('',(1.,0.,1.77635683940025E-16));
#278=FACE_BOUND('',#279,.T.);
#279=EDGE_LOOP('',(#589,#590,#591,#592));
#280=PLANE('',#281);
#281=AXIS2_PLACEMENT_3D('',#282,#283,#284);
#282=CARTESIAN_POINT('',(-102.,-6.,-9.00000000000001));
#283=DIRECTION('',(1.,0.,0.));
#284=DIRECTION('',(0.,0.,-1.));
#285=FACE_BOUND('',#286,.T.);
#286=EDGE_LOOP('',(#593,#594,#595,#596));
#287=PLANE('',#288);
#288=AXIS2_PLACEMENT_3D('',#289,#290,#291);
#289=CARTESIAN_POINT('',(-102.,-6.,-16.5));
#290=DIRECTION('',(-1.4210854715202E-16,-3.5527136788005E-16,1.));
#291=DIRECTION('',(1.,0.,1.4210854715202E-16));
#292=FACE_BOUND('',#293,.T.);
#293=EDGE_LOOP('',(#597,#598,#599,#600));
#294=PLANE('',#295);
#295=AXIS2_PLACEMENT_3D('',#296,#297,#298);
#296=CARTESIAN_POINT('',(-77.,-6.,-16.5));
#297=DIRECTION('',(1.,0.,0.));
#298=DIRECTION('',(0.,5.9211894646675E-17,-1.));
#299=FACE_OUTER_BOUND('',#300,.T.);
#300=EDGE_LOOP('',(#601));
#301=FACE_OUTER_BOUND('',#302,.T.);
#302=EDGE_LOOP('',(#602));
#303=CYLINDRICAL_SURFACE('',#304,1.5);
#304=AXIS2_PLACEMENT_3D('',#305,#306,#307);
#305=CARTESIAN_POINT('',(58.15,2.14313189850787E-15,-35.));
#306=DIRECTION('',(0.,1.,6.12323399573677E-17));
#307=DIRECTION('',(1.,0.,0.));
#308=FACE_OUTER_BOUND('',#309,.T.);
#309=EDGE_LOOP('',(#603));
#310=FACE_OUTER_BOUND('',#311,.T.);
#311=EDGE_LOOP('',(#604));
#312=CYLINDRICAL_SURFACE('',#313,1.5);
#313=AXIS2_PLACEMENT_3D('',#314,#315,#316);
#314=CARTESIAN_POINT('',(58.15,7.96020419445779E-16,-13.));
#315=DIRECTION('',(0.,1.,6.12323399573677E-17));
#316=DIRECTION('',(1.,0.,0.));
#317=FACE_OUTER_BOUND('',#318,.T.);
#318=EDGE_LOOP('',(#605));
#319=FACE_OUTER_BOUND('',#320,.T.);
#320=EDGE_LOOP('',(#606));
#321=CYLINDRICAL_SURFACE('',#322,1.5);
#322=AXIS2_PLACEMENT_3D('',#323,#324,#325);
#323=CARTESIAN_POINT('',(-50.85,10.,-43.5));
#324=DIRECTION('',(0.,-1.,-6.12323399573677E-17));
#325=DIRECTION('',(-4.79818391169137E-15,6.12323399573676E-17,-1.));
#326=FACE_OUTER_BOUND('',#327,.T.);
#327=EDGE_LOOP('',(#607));
#328=FACE_OUTER_BOUND('',#329,.T.);
#329=EDGE_LOOP('',(#608));
#330=CYLINDRICAL_SURFACE('',#331,1.5);
#331=AXIS2_PLACEMENT_3D('',#332,#333,#334);
#332=CARTESIAN_POINT('',(-50.85,10.,-4.5));
#333=DIRECTION('',(0.,-1.,-6.12323399573677E-17));
#334=DIRECTION('',(-6.12323399573676E-17,6.12323399573676E-17,-1.));
#335=FACE_OUTER_BOUND('',#336,.T.);
#336=EDGE_LOOP('',(#609));
#337=FACE_OUTER_BOUND('',#338,.T.);
#338=EDGE_LOOP('',(#610));
#339=CYLINDRICAL_SURFACE('',#340,2.4);
#340=AXIS2_PLACEMENT_3D('',#341,#342,#343);
#341=CARTESIAN_POINT('',(-87.85,10.,-7.99999999999998));
#342=DIRECTION('',(0.,-1.,-6.12323399573677E-17));
#343=DIRECTION('',(6.12323399573677E-17,-6.12323399573677E-17,1.));
#344=FACE_OUTER_BOUND('',#345,.T.);
#345=EDGE_LOOP('',(#611));
#346=FACE_OUTER_BOUND('',#347,.T.);
#347=EDGE_LOOP('',(#612));
#348=CYLINDRICAL_SURFACE('',#349,2.4);
#349=AXIS2_PLACEMENT_3D('',#350,#351,#352);
#350=CARTESIAN_POINT('',(-87.85,10.,-40.0000000000001));
#351=DIRECTION('',(0.,-1.,-6.12323399573677E-17));
#352=DIRECTION('',(-6.12323399573677E-17,6.12323399573677E-17,-1.));
#353=FACE_OUTER_BOUND('',#354,.T.);
#354=EDGE_LOOP('',(#613));
#355=FACE_OUTER_BOUND('',#356,.T.);
#356=EDGE_LOOP('',(#614));
#357=CYLINDRICAL_SURFACE('',#358,2.4);
#358=AXIS2_PLACEMENT_3D('',#359,#360,#361);
#359=CARTESIAN_POINT('',(-135.85,10.,-7.99999999999999));
#360=DIRECTION('',(0.,-1.,-6.12323399573677E-17));
#361=DIRECTION('',(0.707106781186547,4.32978028117747E-17,-0.707106781186548));
#362=FACE_OUTER_BOUND('',#363,.T.);
#363=EDGE_LOOP('',(#615));
#364=FACE_OUTER_BOUND('',#365,.T.);
#365=EDGE_LOOP('',(#616));
#366=CYLINDRICAL_SURFACE('',#367,2.4);
#367=AXIS2_PLACEMENT_3D('',#368,#369,#370);
#368=CARTESIAN_POINT('',(-135.85,10.,-40.));
#369=DIRECTION('',(0.,-1.,-6.12323399573677E-17));
#370=DIRECTION('',(6.12323399573677E-17,-6.12323399573677E-17,1.));
#371=FACE_OUTER_BOUND('',#372,.T.);
#372=EDGE_LOOP('',(#617));
#373=FACE_OUTER_BOUND('',#374,.T.);
#374=EDGE_LOOP('',(#618));
#375=CYLINDRICAL_SURFACE('',#376,0.5);
#376=AXIS2_PLACEMENT_3D('',#377,#378,#379);
#377=CARTESIAN_POINT('',(30.25,-6.,-23.9999999999998));
#378=DIRECTION('',(0.,1.,6.12323399573677E-17));
#379=DIRECTION('',(-1.22464679914735E-16,-6.12323399573677E-17,1.));
#380=FACE_OUTER_BOUND('',#381,.T.);
#381=EDGE_LOOP('',(#619));
#382=FACE_OUTER_BOUND('',#383,.T.);
#383=EDGE_LOOP('',(#620));
#384=CYLINDRICAL_SURFACE('',#385,0.5);
#385=AXIS2_PLACEMENT_3D('',#386,#387,#388);
#386=CARTESIAN_POINT('',(58.,-6.,-24.));
#387=DIRECTION('',(0.,1.,6.12323399573677E-17));
#388=DIRECTION('',(-1.22464679914735E-16,-6.12323399573677E-17,1.));
#389=FACE_BOUND('',#390,.T.);
#390=EDGE_LOOP('',(#621,#622,#623,#624));
#391=CYLINDRICAL_SURFACE('',#392,5.00000082093504);
#392=AXIS2_PLACEMENT_3D('',#393,#394,#395);
#393=CARTESIAN_POINT('',(51.4999991790651,-6.,-24.0097169404834));
#394=DIRECTION('',(0.,1.,6.12323399573677E-17));
#395=DIRECTION('',(0.800000032837397,-3.67394012934729E-17,0.599999956216801));
#396=FACE_BOUND('',#397,.T.);
#397=EDGE_LOOP('',(#625,#626,#627,#628));
#398=PLANE('',#399);
#399=AXIS2_PLACEMENT_3D('',#400,#401,#402);
#400=CARTESIAN_POINT('',(55.5,-6.,-27.0097172141284));
#401=DIRECTION('',(1.,0.,2.1928417447337E-15));
#402=DIRECTION('',(2.1928417447337E-15,0.,-1.));
#403=FACE_BOUND('',#404,.T.);
#404=EDGE_LOOP('',(#629,#630,#631,#632));
#405=PLANE('',#406);
#406=AXIS2_PLACEMENT_3D('',#407,#408,#409);
#407=CARTESIAN_POINT('',(55.5000000000001,-6.,-30.2499999999998));
#408=DIRECTION('',(1.09314267040015E-15,0.,-1.));
#409=DIRECTION('',(-1.,0.,-1.09314267040015E-15));
#410=FACE_BOUND('',#411,.T.);
#411=EDGE_LOOP('',(#633,#634,#635,#636));
#412=PLANE('',#413);
#413=AXIS2_PLACEMENT_3D('',#414,#415,#416);
#414=CARTESIAN_POINT('',(32.75,-6.,-30.2499999999999));
#415=DIRECTION('',(-1.,0.,-2.19284174473372E-15));
#416=DIRECTION('',(-2.19284174473372E-15,0.,1.));
#417=FACE_BOUND('',#418,.T.);
#418=EDGE_LOOP('',(#637,#638,#639,#640));
#419=CYLINDRICAL_SURFACE('',#420,5.00000082093504);
#420=AXIS2_PLACEMENT_3D('',#421,#422,#423);
#421=CARTESIAN_POINT('',(36.7500008209351,-6.,-24.0097169404834));
#422=DIRECTION('',(0.,1.,6.12323399573677E-17));
#423=DIRECTION('',(-0.800000032837396,3.6739401293473E-17,-0.599999956216803));
#424=FACE_BOUND('',#425,.T.);
#425=EDGE_LOOP('',(#641,#642,#643,#644));
#426=PLANE('',#427);
#427=AXIS2_PLACEMENT_3D('',#428,#429,#430);
#428=CARTESIAN_POINT('',(32.75,-6.,-21.0097166668384));
#429=DIRECTION('',(-1.,0.,0.));
#430=DIRECTION('',(0.,0.,1.));
#431=FACE_BOUND('',#432,.T.);
#432=EDGE_LOOP('',(#645,#646,#647,#648));
#433=PLANE('',#434);
#434=AXIS2_PLACEMENT_3D('',#435,#436,#437);
#435=CARTESIAN_POINT('',(32.75,-6.,-17.7499999999999));
#436=DIRECTION('',(-4.68489715885777E-16,0.,1.));
#437=DIRECTION('',(1.,0.,4.68489715885777E-16));
#438=FACE_BOUND('',#439,.T.);
#439=EDGE_LOOP('',(#649,#650,#651,#652));
#440=PLANE('',#441);
#441=AXIS2_PLACEMENT_3D('',#442,#443,#444);
#442=CARTESIAN_POINT('',(55.5,-6.,-17.7499999999999));
#443=DIRECTION('',(1.,0.,0.));
#444=DIRECTION('',(0.,0.,-1.));
#445=ORIENTED_EDGE('',*,*,#653,.F.);
#446=ORIENTED_EDGE('',*,*,#654,.F.);
#447=ORIENTED_EDGE('',*,*,#655,.F.);
#448=ORIENTED_EDGE('',*,*,#656,.F.);
#449=ORIENTED_EDGE('',*,*,#657,.T.);
#450=ORIENTED_EDGE('',*,*,#658,.T.);
#451=ORIENTED_EDGE('',*,*,#659,.T.);
#452=ORIENTED_EDGE('',*,*,#660,.T.);
#453=ORIENTED_EDGE('',*,*,#661,.T.);
#454=ORIENTED_EDGE('',*,*,#662,.T.);
#455=ORIENTED_EDGE('',*,*,#663,.T.);
#456=ORIENTED_EDGE('',*,*,#664,.T.);
#457=ORIENTED_EDGE('',*,*,#665,.T.);
#458=ORIENTED_EDGE('',*,*,#666,.T.);
#459=ORIENTED_EDGE('',*,*,#667,.T.);
#460=ORIENTED_EDGE('',*,*,#668,.T.);
#461=ORIENTED_EDGE('',*,*,#669,.T.);
#462=ORIENTED_EDGE('',*,*,#670,.T.);
#463=ORIENTED_EDGE('',*,*,#671,.T.);
#464=ORIENTED_EDGE('',*,*,#672,.T.);
#465=ORIENTED_EDGE('',*,*,#673,.T.);
#466=ORIENTED_EDGE('',*,*,#674,.T.);
#467=ORIENTED_EDGE('',*,*,#675,.T.);
#468=ORIENTED_EDGE('',*,*,#676,.T.);
#469=ORIENTED_EDGE('',*,*,#677,.T.);
#470=ORIENTED_EDGE('',*,*,#678,.T.);
#471=ORIENTED_EDGE('',*,*,#679,.T.);
#472=ORIENTED_EDGE('',*,*,#680,.T.);
#473=ORIENTED_EDGE('',*,*,#681,.T.);
#474=ORIENTED_EDGE('',*,*,#682,.T.);
#475=ORIENTED_EDGE('',*,*,#683,.T.);
#476=ORIENTED_EDGE('',*,*,#684,.T.);
#477=ORIENTED_EDGE('',*,*,#685,.T.);
#478=ORIENTED_EDGE('',*,*,#686,.T.);
#479=ORIENTED_EDGE('',*,*,#687,.T.);
#480=ORIENTED_EDGE('',*,*,#688,.T.);
#481=ORIENTED_EDGE('',*,*,#689,.T.);
#482=ORIENTED_EDGE('',*,*,#690,.T.);
#483=ORIENTED_EDGE('',*,*,#691,.T.);
#484=ORIENTED_EDGE('',*,*,#692,.F.);
#485=ORIENTED_EDGE('',*,*,#693,.T.);
#486=ORIENTED_EDGE('',*,*,#694,.T.);
#487=ORIENTED_EDGE('',*,*,#695,.T.);
#488=ORIENTED_EDGE('',*,*,#696,.T.);
#489=ORIENTED_EDGE('',*,*,#697,.T.);
#490=ORIENTED_EDGE('',*,*,#698,.T.);
#491=ORIENTED_EDGE('',*,*,#699,.T.);
#492=ORIENTED_EDGE('',*,*,#700,.T.);
#493=ORIENTED_EDGE('',*,*,#701,.T.);
#494=ORIENTED_EDGE('',*,*,#702,.T.);
#495=ORIENTED_EDGE('',*,*,#703,.T.);
#496=ORIENTED_EDGE('',*,*,#704,.T.);
#497=ORIENTED_EDGE('',*,*,#705,.T.);
#498=ORIENTED_EDGE('',*,*,#706,.T.);
#499=ORIENTED_EDGE('',*,*,#707,.T.);
#500=ORIENTED_EDGE('',*,*,#708,.T.);
#501=ORIENTED_EDGE('',*,*,#709,.T.);
#502=ORIENTED_EDGE('',*,*,#710,.T.);
#503=ORIENTED_EDGE('',*,*,#711,.T.);
#504=ORIENTED_EDGE('',*,*,#712,.T.);
#505=ORIENTED_EDGE('',*,*,#713,.T.);
#506=ORIENTED_EDGE('',*,*,#714,.T.);
#507=ORIENTED_EDGE('',*,*,#715,.T.);
#508=ORIENTED_EDGE('',*,*,#716,.T.);
#509=ORIENTED_EDGE('',*,*,#717,.T.);
#510=ORIENTED_EDGE('',*,*,#718,.T.);
#511=ORIENTED_EDGE('',*,*,#719,.T.);
#512=ORIENTED_EDGE('',*,*,#720,.T.);
#513=ORIENTED_EDGE('',*,*,#721,.T.);
#514=ORIENTED_EDGE('',*,*,#722,.T.);
#515=ORIENTED_EDGE('',*,*,#723,.T.);
#516=ORIENTED_EDGE('',*,*,#724,.T.);
#517=ORIENTED_EDGE('',*,*,#725,.T.);
#518=ORIENTED_EDGE('',*,*,#726,.T.);
#519=ORIENTED_EDGE('',*,*,#727,.T.);
#520=ORIENTED_EDGE('',*,*,#728,.T.);
#521=ORIENTED_EDGE('',*,*,#696,.F.);
#522=ORIENTED_EDGE('',*,*,#729,.F.);
#523=ORIENTED_EDGE('',*,*,#660,.F.);
#524=ORIENTED_EDGE('',*,*,#730,.T.);
#525=ORIENTED_EDGE('',*,*,#697,.F.);
#526=ORIENTED_EDGE('',*,*,#730,.F.);
#527=ORIENTED_EDGE('',*,*,#659,.F.);
#528=ORIENTED_EDGE('',*,*,#731,.T.);
#529=ORIENTED_EDGE('',*,*,#698,.F.);
#530=ORIENTED_EDGE('',*,*,#731,.F.);
#531=ORIENTED_EDGE('',*,*,#658,.F.);
#532=ORIENTED_EDGE('',*,*,#732,.T.);
#533=ORIENTED_EDGE('',*,*,#695,.F.);
#534=ORIENTED_EDGE('',*,*,#732,.F.);
#535=ORIENTED_EDGE('',*,*,#657,.F.);
#536=ORIENTED_EDGE('',*,*,#729,.T.);
#537=ORIENTED_EDGE('',*,*,#653,.T.);
#538=ORIENTED_EDGE('',*,*,#733,.T.);
#539=ORIENTED_EDGE('',*,*,#693,.F.);
#540=ORIENTED_EDGE('',*,*,#734,.F.);
#541=ORIENTED_EDGE('',*,*,#654,.T.);
#542=ORIENTED_EDGE('',*,*,#734,.T.);
#543=ORIENTED_EDGE('',*,*,#692,.T.);
#544=ORIENTED_EDGE('',*,*,#735,.T.);
#545=ORIENTED_EDGE('',*,*,#655,.T.);
#546=ORIENTED_EDGE('',*,*,#735,.F.);
#547=ORIENTED_EDGE('',*,*,#691,.F.);
#548=ORIENTED_EDGE('',*,*,#736,.F.);
#549=ORIENTED_EDGE('',*,*,#656,.T.);
#550=ORIENTED_EDGE('',*,*,#736,.T.);
#551=ORIENTED_EDGE('',*,*,#694,.F.);
#552=ORIENTED_EDGE('',*,*,#733,.F.);
#553=ORIENTED_EDGE('',*,*,#699,.F.);
#554=ORIENTED_EDGE('',*,*,#737,.F.);
#555=ORIENTED_EDGE('',*,*,#661,.F.);
#556=ORIENTED_EDGE('',*,*,#738,.T.);
#557=ORIENTED_EDGE('',*,*,#710,.F.);
#558=ORIENTED_EDGE('',*,*,#739,.F.);
#559=ORIENTED_EDGE('',*,*,#662,.F.);
#560=ORIENTED_EDGE('',*,*,#737,.T.);
#561=ORIENTED_EDGE('',*,*,#709,.F.);
#562=ORIENTED_EDGE('',*,*,#740,.F.);
#563=ORIENTED_EDGE('',*,*,#663,.F.);
#564=ORIENTED_EDGE('',*,*,#739,.T.);
#565=ORIENTED_EDGE('',*,*,#708,.F.);
#566=ORIENTED_EDGE('',*,*,#741,.F.);
#567=ORIENTED_EDGE('',*,*,#664,.F.);
#568=ORIENTED_EDGE('',*,*,#740,.T.);
#569=ORIENTED_EDGE('',*,*,#707,.F.);
#570=ORIENTED_EDGE('',*,*,#742,.F.);
#571=ORIENTED_EDGE('',*,*,#665,.F.);
#572=ORIENTED_EDGE('',*,*,#741,.T.);
#573=ORIENTED_EDGE('',*,*,#706,.F.);
#574=ORIENTED_EDGE('',*,*,#743,.F.);
#575=ORIENTED_EDGE('',*,*,#666,.F.);
#576=ORIENTED_EDGE('',*,*,#742,.T.);
#577=ORIENTED_EDGE('',*,*,#705,.F.);
#578=ORIENTED_EDGE('',*,*,#744,.F.);
#579=ORIENTED_EDGE('',*,*,#667,.F.);
#580=ORIENTED_EDGE('',*,*,#743,.T.);
#581=ORIENTED_EDGE('',*,*,#704,.F.);
#582=ORIENTED_EDGE('',*,*,#745,.F.);
#583=ORIENTED_EDGE('',*,*,#668,.F.);
#584=ORIENTED_EDGE('',*,*,#744,.T.);
#585=ORIENTED_EDGE('',*,*,#703,.F.);
#586=ORIENTED_EDGE('',*,*,#746,.F.);
#587=ORIENTED_EDGE('',*,*,#669,.F.);
#588=ORIENTED_EDGE('',*,*,#745,.T.);
#589=ORIENTED_EDGE('',*,*,#702,.F.);
#590=ORIENTED_EDGE('',*,*,#747,.F.);
#591=ORIENTED_EDGE('',*,*,#670,.F.);
#592=ORIENTED_EDGE('',*,*,#746,.T.);
#593=ORIENTED_EDGE('',*,*,#701,.F.);
#594=ORIENTED_EDGE('',*,*,#748,.F.);
#595=ORIENTED_EDGE('',*,*,#671,.F.);
#596=ORIENTED_EDGE('',*,*,#747,.T.);
#597=ORIENTED_EDGE('',*,*,#700,.F.);
#598=ORIENTED_EDGE('',*,*,#738,.F.);
#599=ORIENTED_EDGE('',*,*,#672,.F.);
#600=ORIENTED_EDGE('',*,*,#748,.T.);
#601=ORIENTED_EDGE('',*,*,#711,.F.);
#602=ORIENTED_EDGE('',*,*,#673,.F.);
#603=ORIENTED_EDGE('',*,*,#712,.F.);
#604=ORIENTED_EDGE('',*,*,#674,.F.);
#605=ORIENTED_EDGE('',*,*,#713,.F.);
#606=ORIENTED_EDGE('',*,*,#675,.F.);
#607=ORIENTED_EDGE('',*,*,#714,.F.);
#608=ORIENTED_EDGE('',*,*,#676,.F.);
#609=ORIENTED_EDGE('',*,*,#715,.F.);
#610=ORIENTED_EDGE('',*,*,#677,.F.);
#611=ORIENTED_EDGE('',*,*,#716,.F.);
#612=ORIENTED_EDGE('',*,*,#678,.F.);
#613=ORIENTED_EDGE('',*,*,#717,.F.);
#614=ORIENTED_EDGE('',*,*,#679,.F.);
#615=ORIENTED_EDGE('',*,*,#718,.F.);
#616=ORIENTED_EDGE('',*,*,#680,.F.);
#617=ORIENTED_EDGE('',*,*,#719,.F.);
#618=ORIENTED_EDGE('',*,*,#681,.F.);
#619=ORIENTED_EDGE('',*,*,#720,.F.);
#620=ORIENTED_EDGE('',*,*,#682,.F.);
#621=ORIENTED_EDGE('',*,*,#683,.F.);
#622=ORIENTED_EDGE('',*,*,#749,.T.);
#623=ORIENTED_EDGE('',*,*,#721,.F.);
#624=ORIENTED_EDGE('',*,*,#750,.F.);
#625=ORIENTED_EDGE('',*,*,#684,.F.);
#626=ORIENTED_EDGE('',*,*,#750,.T.);
#627=ORIENTED_EDGE('',*,*,#728,.F.);
#628=ORIENTED_EDGE('',*,*,#751,.F.);
#629=ORIENTED_EDGE('',*,*,#685,.F.);
#630=ORIENTED_EDGE('',*,*,#751,.T.);
#631=ORIENTED_EDGE('',*,*,#727,.F.);
#632=ORIENTED_EDGE('',*,*,#752,.F.);
#633=ORIENTED_EDGE('',*,*,#686,.F.);
#634=ORIENTED_EDGE('',*,*,#752,.T.);
#635=ORIENTED_EDGE('',*,*,#726,.F.);
#636=ORIENTED_EDGE('',*,*,#753,.F.);
#637=ORIENTED_EDGE('',*,*,#687,.F.);
#638=ORIENTED_EDGE('',*,*,#753,.T.);
#639=ORIENTED_EDGE('',*,*,#725,.F.);
#640=ORIENTED_EDGE('',*,*,#754,.F.);
#641=ORIENTED_EDGE('',*,*,#688,.F.);
#642=ORIENTED_EDGE('',*,*,#754,.T.);
#643=ORIENTED_EDGE('',*,*,#724,.F.);
#644=ORIENTED_EDGE('',*,*,#755,.F.);
#645=ORIENTED_EDGE('',*,*,#689,.F.);
#646=ORIENTED_EDGE('',*,*,#755,.T.);
#647=ORIENTED_EDGE('',*,*,#723,.F.);
#648=ORIENTED_EDGE('',*,*,#756,.F.);
#649=ORIENTED_EDGE('',*,*,#690,.F.);
#650=ORIENTED_EDGE('',*,*,#756,.T.);
#651=ORIENTED_EDGE('',*,*,#722,.F.);
#652=ORIENTED_EDGE('',*,*,#749,.F.);
#653=EDGE_CURVE('',#757,#758,#759,.T.);
#654=EDGE_CURVE('',#760,#757,#761,.T.);
#655=EDGE_CURVE('',#762,#760,#763,.T.);
#656=EDGE_CURVE('',#758,#762,#764,.T.);
#657=EDGE_CURVE('',#765,#766,#767,.T.);
#658=EDGE_CURVE('',#766,#768,#769,.T.);
#659=EDGE_CURVE('',#768,#770,#771,.T.);
#660=EDGE_CURVE('',#770,#765,#772,.T.);
#661=EDGE_CURVE('',#773,#774,#775,.T.);
#662=EDGE_CURVE('',#774,#776,#777,.T.);
#663=EDGE_CURVE('',#776,#778,#779,.T.);
#664=EDGE_CURVE('',#778,#780,#781,.T.);
#665=EDGE_CURVE('',#780,#782,#783,.T.);
#666=EDGE_CURVE('',#782,#784,#785,.T.);
#667=EDGE_CURVE('',#784,#786,#787,.T.);
#668=EDGE_CURVE('',#786,#788,#789,.T.);
#669=EDGE_CURVE('',#788,#790,#791,.T.);
#670=EDGE_CURVE('',#790,#792,#793,.T.);
#671=EDGE_CURVE('',#792,#794,#795,.T.);
#672=EDGE_CURVE('',#794,#773,#796,.T.);
#673=EDGE_CURVE('',#797,#797,#798,.T.);
#674=EDGE_CURVE('',#799,#799,#800,.T.);
#675=EDGE_CURVE('',#801,#801,#802,.F.);
#676=EDGE_CURVE('',#803,#803,#804,.F.);
#677=EDGE_CURVE('',#805,#805,#806,.F.);
#678=EDGE_CURVE('',#807,#807,#808,.F.);
#679=EDGE_CURVE('',#809,#809,#810,.F.);
#680=EDGE_CURVE('',#811,#811,#812,.F.);
#681=EDGE_CURVE('',#813,#813,#814,.T.);
#682=EDGE_CURVE('',#815,#815,#816,.T.);
#683=EDGE_CURVE('',#817,#818,#819,.T.);
#684=EDGE_CURVE('',#818,#820,#821,.T.);
#685=EDGE_CURVE('',#820,#822,#823,.T.);
#686=EDGE_CURVE('',#822,#824,#825,.T.);
#687=EDGE_CURVE('',#824,#826,#827,.T.);
#688=EDGE_CURVE('',#826,#828,#829,.T.);
#689=EDGE_CURVE('',#828,#830,#831,.T.);
#690=EDGE_CURVE('',#830,#817,#832,.T.);
#691=EDGE_CURVE('',#833,#834,#835,.T.);
#692=EDGE_CURVE('',#836,#834,#837,.T.);
#693=EDGE_CURVE('',#836,#838,#839,.T.);
#694=EDGE_CURVE('',#838,#833,#840,.T.);
#695=EDGE_CURVE('',#841,#842,#843,.F.);
#696=EDGE_CURVE('',#842,#844,#845,.F.);
#697=EDGE_CURVE('',#844,#846,#847,.F.);
#698=EDGE_CURVE('',#846,#841,#848,.F.);
#699=EDGE_CURVE('',#849,#850,#851,.F.);
#700=EDGE_CURVE('',#850,#852,#853,.F.);
#701=EDGE_CURVE('',#852,#854,#855,.F.);
#702=EDGE_CURVE('',#854,#856,#857,.F.);
#703=EDGE_CURVE('',#856,#858,#859,.F.);
#704=EDGE_CURVE('',#858,#860,#861,.F.);
#705=EDGE_CURVE('',#860,#862,#863,.F.);
#706=EDGE_CURVE('',#862,#864,#865,.F.);
#707=EDGE_CURVE('',#864,#866,#867,.F.);
#708=EDGE_CURVE('',#866,#868,#869,.F.);
#709=EDGE_CURVE('',#868,#870,#871,.F.);
#710=EDGE_CURVE('',#870,#849,#872,.F.);
#711=EDGE_CURVE('',#873,#873,#874,.F.);
#712=EDGE_CURVE('',#875,#875,#876,.F.);
#713=EDGE_CURVE('',#877,#877,#878,.T.);
#714=EDGE_CURVE('',#879,#879,#880,.T.);
#715=EDGE_CURVE('',#881,#881,#882,.T.);
#716=EDGE_CURVE('',#883,#883,#884,.T.);
#717=EDGE_CURVE('',#885,#885,#886,.T.);
#718=EDGE_CURVE('',#887,#887,#888,.T.);
#719=EDGE_CURVE('',#889,#889,#890,.F.);
#720=EDGE_CURVE('',#891,#891,#892,.F.);
#721=EDGE_CURVE('',#893,#894,#895,.F.);
#722=EDGE_CURVE('',#894,#896,#897,.F.);
#723=EDGE_CURVE('',#896,#898,#899,.F.);
#724=EDGE_CURVE('',#898,#900,#901,.F.);
#725=EDGE_CURVE('',#900,#902,#903,.F.);
#726=EDGE_CURVE('',#902,#904,#905,.F.);
#727=EDGE_CURVE('',#904,#906,#907,.F.);
#728=EDGE_CURVE('',#906,#893,#908,.F.);
#729=EDGE_CURVE('',#765,#842,#909,.T.);
#730=EDGE_CURVE('',#770,#844,#910,.T.);
#731=EDGE_CURVE('',#768,#846,#911,.T.);
#732=EDGE_CURVE('',#766,#841,#912,.T.);
#733=EDGE_CURVE('',#758,#838,#913,.T.);
#734=EDGE_CURVE('',#757,#836,#914,.T.);
#735=EDGE_CURVE('',#834,#760,#915,.T.);
#736=EDGE_CURVE('',#762,#833,#916,.T.);
#737=EDGE_CURVE('',#774,#849,#917,.T.);
#738=EDGE_CURVE('',#773,#850,#918,.T.);
#739=EDGE_CURVE('',#776,#870,#919,.T.);
#740=EDGE_CURVE('',#778,#868,#920,.T.);
#741=EDGE_CURVE('',#780,#866,#921,.T.);
#742=EDGE_CURVE('',#782,#864,#922,.T.);
#743=EDGE_CURVE('',#784,#862,#923,.T.);
#744=EDGE_CURVE('',#786,#860,#924,.T.);
#745=EDGE_CURVE('',#788,#858,#925,.T.);
#746=EDGE_CURVE('',#790,#856,#926,.T.);
#747=EDGE_CURVE('',#792,#854,#927,.T.);
#748=EDGE_CURVE('',#794,#852,#928,.T.);
#749=EDGE_CURVE('',#817,#894,#929,.T.);
#750=EDGE_CURVE('',#818,#893,#930,.T.);
#751=EDGE_CURVE('',#820,#906,#931,.T.);
#752=EDGE_CURVE('',#822,#904,#932,.T.);
#753=EDGE_CURVE('',#824,#902,#933,.T.);
#754=EDGE_CURVE('',#826,#900,#934,.T.);
#755=EDGE_CURVE('',#828,#898,#935,.T.);
#756=EDGE_CURVE('',#830,#896,#936,.T.);
#757=VERTEX_POINT('',#937);
#758=VERTEX_POINT('',#938);
#759=LINE('',#939,#940);
#760=VERTEX_POINT('',#942);
#761=LINE('',#943,#944);
#762=VERTEX_POINT('',#946);
#763=LINE('',#947,#948);
#764=LINE('',#950,#951);
#765=VERTEX_POINT('',#953);
#766=VERTEX_POINT('',#954);
#767=LINE('',#955,#956);
#768=VERTEX_POINT('',#958);
#769=LINE('',#959,#960);
#770=VERTEX_POINT('',#962);
#771=LINE('',#963,#964);
#772=LINE('',#966,#967);
#773=VERTEX_POINT('',#969);
#774=VERTEX_POINT('',#970);
#775=LINE('',#971,#972);
#776=VERTEX_POINT('',#974);
#777=LINE('',#975,#976);
#778=VERTEX_POINT('',#978);
#779=LINE('',#979,#980);
#780=VERTEX_POINT('',#982);
#781=LINE('',#983,#984);
#782=VERTEX_POINT('',#986);
#783=LINE('',#987,#988);
#784=VERTEX_POINT('',#990);
#785=LINE('',#991,#992);
#786=VERTEX_POINT('',#994);
#787=LINE('',#995,#996);
#788=VERTEX_POINT('',#998);
#789=LINE('',#999,#1000);
#790=VERTEX_POINT('',#1002);
#791=LINE('',#1003,#1004);
#792=VERTEX_POINT('',#1006);
#793=LINE('',#1007,#1008);
#794=VERTEX_POINT('',#1010);
#795=LINE('',#1011,#1012);
#796=LINE('',#1014,#1015);
#797=VERTEX_POINT('',#1017);
#798=CIRCLE('',#1018,1.5);
#799=VERTEX_POINT('',#1022);
#800=CIRCLE('',#1023,1.5);
#801=VERTEX_POINT('',#1027);
#802=CIRCLE('',#1028,1.5);
#803=VERTEX_POINT('',#1032);
#804=CIRCLE('',#1033,1.5);
#805=VERTEX_POINT('',#1037);
#806=CIRCLE('',#1038,2.4);
#807=VERTEX_POINT('',#1042);
#808=CIRCLE('',#1043,2.4);
#809=VERTEX_POINT('',#1047);
#810=CIRCLE('',#1048,2.4);
#811=VERTEX_POINT('',#1052);
#812=CIRCLE('',#1053,2.4);
#813=VERTEX_POINT('',#1057);
#814=CIRCLE('',#1058,0.5);
#815=VERTEX_POINT('',#1062);
#816=CIRCLE('',#1063,0.5);
#817=VERTEX_POINT('',#1067);
#818=VERTEX_POINT('',#1068);
#819=CIRCLE('',#1069,5.00000082093504);
#820=VERTEX_POINT('',#1073);
#821=LINE('',#1074,#1075);
#822=VERTEX_POINT('',#1077);
#823=LINE('',#1078,#1079);
#824=VERTEX_POINT('',#1081);
#825=LINE('',#1082,#1083);
#826=VERTEX_POINT('',#1085);
#827=CIRCLE('',#1086,5.00000082093504);
#828=VERTEX_POINT('',#1090);
#829=LINE('',#1091,#1092);
#830=VERTEX_POINT('',#1094);
#831=LINE('',#1095,#1096);
#832=LINE('',#1098,#1099);
#833=VERTEX_POINT('',#1101);
#834=VERTEX_POINT('',#1102);
#835=LINE('',#1103,#1104);
#836=VERTEX_POINT('',#1106);
#837=LINE('',#1107,#1108);
#838=VERTEX_POINT('',#1110);
#839=LINE('',#1111,#1112);
#840=LINE('',#1114,#1115);
#841=VERTEX_POINT('',#1117);
#842=VERTEX_POINT('',#1118);
#843=LINE('',#1119,#1120);
#844=VERTEX_POINT('',#1122);
#845=LINE('',#1123,#1124);
#846=VERTEX_POINT('',#1126);
#847=LINE('',#1127,#1128);
#848=LINE('',#1130,#1131);
#849=VERTEX_POINT('',#1133);
#850=VERTEX_POINT('',#1134);
#851=LINE('',#1135,#1136);
#852=VERTEX_POINT('',#1138);
#853=LINE('',#1139,#1140);
#854=VERTEX_POINT('',#1142);
#855=LINE('',#1143,#1144);
#856=VERTEX_POINT('',#1146);
#857=LINE('',#1147,#1148);
#858=VERTEX_POINT('',#1150);
#859=LINE('',#1151,#1152);
#860=VERTEX_POINT('',#1154);
#861=LINE('',#1155,#1156);
#862=VERTEX_POINT('',#1158);
#863=LINE('',#1159,#1160);
#864=VERTEX_POINT('',#1162);
#865=LINE('',#1163,#1164);
#866=VERTEX_POINT('',#1166);
#867=LINE('',#1167,#1168);
#868=VERTEX_POINT('',#1170);
#869=LINE('',#1171,#1172);
#870=VERTEX_POINT('',#1174);
#871=LINE('',#1175,#1176);
#872=LINE('',#1178,#1179);
#873=VERTEX_POINT('',#1181);
#874=CIRCLE('',#1182,1.5);
#875=VERTEX_POINT('',#1186);
#876=CIRCLE('',#1187,1.5);
#877=VERTEX_POINT('',#1191);
#878=CIRCLE('',#1192,1.5);
#879=VERTEX_POINT('',#1196);
#880=CIRCLE('',#1197,1.5);
#881=VERTEX_POINT('',#1201);
#882=CIRCLE('',#1202,2.4);
#883=VERTEX_POINT('',#1206);
#884=CIRCLE('',#1207,2.4);
#885=VERTEX_POINT('',#1211);
#886=CIRCLE('',#1212,2.4);
#887=VERTEX_POINT('',#1216);
#888=CIRCLE('',#1217,2.4);
#889=VERTEX_POINT('',#1221);
#890=CIRCLE('',#1222,0.5);
#891=VERTEX_POINT('',#1226);
#892=CIRCLE('',#1227,0.5);
#893=VERTEX_POINT('',#1231);
#894=VERTEX_POINT('',#1232);
#895=CIRCLE('',#1233,5.00000082093504);
#896=VERTEX_POINT('',#1237);
#897=LINE('',#1238,#1239);
#898=VERTEX_POINT('',#1241);
#899=LINE('',#1242,#1243);
#900=VERTEX_POINT('',#1245);
#901=LINE('',#1246,#1247);
#902=VERTEX_POINT('',#1249);
#903=CIRCLE('',#1250,5.00000082093504);
#904=VERTEX_POINT('',#1254);
#905=LINE('',#1255,#1256);
#906=VERTEX_POINT('',#1258);
#907=LINE('',#1259,#1260);
#908=LINE('',#1262,#1263);
#909=LINE('',#1265,#1266);
#910=LINE('',#1268,#1269);
#911=LINE('',#1271,#1272);
#912=LINE('',#1274,#1275);
#913=LINE('',#1277,#1278);
#914=LINE('',#1280,#1281);
#915=LINE('',#1283,#1284);
#916=LINE('',#1286,#1287);
#917=LINE('',#1289,#1290);
#918=LINE('',#1292,#1293);
#919=LINE('',#1295,#1296);
#920=LINE('',#1298,#1299);
#921=LINE('',#1301,#1302);
#922=LINE('',#1304,#1305);
#923=LINE('',#1307,#1308);
#924=LINE('',#1310,#1311);
#925=LINE('',#1313,#1314);
#926=LINE('',#1316,#1317);
#927=LINE('',#1319,#1320);
#928=LINE('',#1322,#1323);
#929=LINE('',#1325,#1326);
#930=LINE('',#1328,#1329);
#931=LINE('',#1331,#1332);
#932=LINE('',#1334,#1335);
#933=LINE('',#1337,#1338);
#934=LINE('',#1340,#1341);
#935=LINE('',#1343,#1344);
#936=LINE('',#1346,#1347);
#937=CARTESIAN_POINT('',(-160.,5.91645678915759E-31,-7.105427357601E-15));
#938=CARTESIAN_POINT('',(61.,0.,0.));
#939=CARTESIAN_POINT('',(-160.,6.7818578077112E-31,-9.79717439317882E-15));
#940=VECTOR('',#941,1.);
#941=DIRECTION('',(1.,-3.58616499637596E-33,5.27817229044278E-17));
#942=CARTESIAN_POINT('',(-160.,2.93915231795365E-15,-48.));
#943=CARTESIAN_POINT('',(-160.,2.93915231795365E-15,-48.));
#944=VECTOR('',#945,1.);
#945=DIRECTION('',(0.,-6.12323399573676E-17,1.));
#946=CARTESIAN_POINT('',(61.,2.93915231795365E-15,-48.));
#947=CARTESIAN_POINT('',(61.,2.93915231795365E-15,-48.));
#948=VECTOR('',#949,1.);
#949=DIRECTION('',(-1.,3.56950635846612E-33,-3.21512550117692E-17));
#950=CARTESIAN_POINT('',(61.,0.,0.));
#951=VECTOR('',#952,1.);
#952=DIRECTION('',(0.,6.12323399573676E-17,-1.));
#953=CARTESIAN_POINT('',(-70.4359258619666,2.66453525910038E-15,-38.));
#954=CARTESIAN_POINT('',(-70.4359258619666,8.88178419700125E-16,-10.));
#955=CARTESIAN_POINT('',(-70.4359258619666,2.49568208874017E-15,-38.));
#956=VECTOR('',#957,1.);
#957=DIRECTION('',(0.,-6.23368278251168E-17,1.));
#958=CARTESIAN_POINT('',(23.5640741380334,8.88178419700125E-16,-10.));
#959=CARTESIAN_POINT('',(-70.4359258619666,7.50250909636901E-16,-10.));
#960=VECTOR('',#961,1.);
#961=DIRECTION('',(1.,-4.19606864479262E-33,1.13384479110654E-16));
#962=CARTESIAN_POINT('',(23.5640741380335,2.66453525910038E-15,-38.));
#963=CARTESIAN_POINT('',(23.5640741380334,7.50250909636901E-16,-10.));
#964=VECTOR('',#965,1.);
#965=DIRECTION('',(2.53765262771464E-16,6.23368278251169E-17,-1.));
#966=CARTESIAN_POINT('',(23.5640741380335,2.49568208874017E-15,-38.));
#967=VECTOR('',#968,1.);
#968=DIRECTION('',(-1.,0.,-7.55896527404362E-17));
#969=CARTESIAN_POINT('',(-77.,1.77635683940025E-15,-31.5));
#970=CARTESIAN_POINT('',(-102.,1.77635683940025E-15,-31.5));
#971=CARTESIAN_POINT('',(-77.,1.85258777402867E-15,-31.5));
#972=VECTOR('',#973,1.);
#973=DIRECTION('',(-1.,0.,-1.4210854715202E-16));
#974=CARTESIAN_POINT('',(-102.,2.66453525910038E-15,-39.));
#975=CARTESIAN_POINT('',(-102.,1.85258777402867E-15,-31.5));
#976=VECTOR('',#977,1.);
#977=DIRECTION('',(0.,8.98280646253589E-17,-1.));
#978=CARTESIAN_POINT('',(-122.,2.66453525910038E-15,-39.));
#979=CARTESIAN_POINT('',(-102.,2.52629825871886E-15,-39.));
#980=VECTOR('',#981,1.);
#981=DIRECTION('',(-1.,-1.97215226305253E-32,3.5527136788005E-16));
#982=CARTESIAN_POINT('',(-122.,1.77635683940025E-15,-31.5));
#983=CARTESIAN_POINT('',(-122.,2.52629825871886E-15,-39.));
#984=VECTOR('',#985,1.);
#985=DIRECTION('',(0.,-8.98280646253589E-17,1.));
#986=CARTESIAN_POINT('',(-147.,1.77635683940025E-15,-31.5));
#987=CARTESIAN_POINT('',(-122.,1.85258777402867E-15,-31.5));
#988=VECTOR('',#989,1.);
#989=DIRECTION('',(-1.,0.,-2.8421709430404E-16));
#990=CARTESIAN_POINT('',(-147.,8.88178419700125E-16,-16.5));
#991=CARTESIAN_POINT('',(-147.,1.85258777402867E-15,-31.5));
#992=VECTOR('',#993,1.);
#993=DIRECTION('',(0.,-6.02221173020213E-17,1.));
#994=CARTESIAN_POINT('',(-122.,8.88178419700125E-16,-16.5));
#995=CARTESIAN_POINT('',(-147.,9.49256014498346E-16,-16.5));
#996=VECTOR('',#997,1.);
#997=DIRECTION('',(1.,-1.57772181044202E-32,2.8421709430404E-16));
#998=CARTESIAN_POINT('',(-122.,8.88178419700125E-16,-9.00000000000001));
#999=CARTESIAN_POINT('',(-122.,9.49256014498346E-16,-16.5));
#1000=VECTOR('',#1001,1.);
#1001=DIRECTION('',(0.,-3.06161699786838E-17,1.));
#1002=CARTESIAN_POINT('',(-102.,8.88178419700125E-16,-9.));
#1003=CARTESIAN_POINT('',(-122.,7.19634739658217E-16,-9.00000000000001));
#1004=VECTOR('',#1005,1.);
#1005=DIRECTION('',(1.,0.,1.77635683940025E-16));
#1006=CARTESIAN_POINT('',(-102.,8.88178419700125E-16,-16.5));
#1007=CARTESIAN_POINT('',(-102.,7.19634739658217E-16,-9.00000000000001));
#1008=VECTOR('',#1009,1.);
#1009=DIRECTION('',(0.,3.06161699786838E-17,-1.));
#1010=CARTESIAN_POINT('',(-77.,8.88178419700125E-16,-16.5));
#1011=CARTESIAN_POINT('',(-102.,9.49256014498346E-16,-16.5));
#1012=VECTOR('',#1013,1.);
#1013=DIRECTION('',(1.,0.,2.8421709430404E-16));
#1014=CARTESIAN_POINT('',(-77.,9.49256014498346E-16,-16.5));
#1015=VECTOR('',#1016,1.);
#1016=DIRECTION('',(0.,6.02221173020214E-17,-1.));
#1017=CARTESIAN_POINT('',(59.65,2.14313189850787E-15,-35.));
#1018=AXIS2_PLACEMENT_3D('',#1019,#1020,#1021);
#1019=CARTESIAN_POINT('',(58.15,2.14313189850787E-15,-35.));
#1020=DIRECTION('',(0.,1.,6.12323399573677E-17));
#1021=DIRECTION('',(1.,0.,0.));
#1022=CARTESIAN_POINT('',(59.65,7.96020419445779E-16,-13.));
#1023=AXIS2_PLACEMENT_3D('',#1024,#1025,#1026);
#1024=CARTESIAN_POINT('',(58.15,7.96020419445779E-16,-13.));
#1025=DIRECTION('',(0.,1.,6.12323399573677E-17));
#1026=DIRECTION('',(1.,0.,0.));
#1027=CARTESIAN_POINT('',(-50.85,2.75545529808154E-15,-45.));
#1028=AXIS2_PLACEMENT_3D('',#1029,#1030,#1031);
#1029=CARTESIAN_POINT('',(-50.85,2.66360678814549E-15,-43.5));
#1030=DIRECTION('',(0.,-1.,-6.12323399573677E-17));
#1031=DIRECTION('',(-4.79818391169137E-15,6.12323399573677E-17,-1.));
#1032=CARTESIAN_POINT('',(-50.85,3.67394039744206E-16,-6.));
#1033=AXIS2_PLACEMENT_3D('',#1034,#1035,#1036);
#1034=CARTESIAN_POINT('',(-50.85,2.75545529808154E-16,-4.5));
#1035=DIRECTION('',(0.,-1.,-6.12323399573677E-17));
#1036=DIRECTION('',(-6.12323399573676E-17,6.12323399573677E-17,-1.));
#1037=CARTESIAN_POINT('',(-87.85,3.42901103761258E-16,-5.59999999999999));
#1038=AXIS2_PLACEMENT_3D('',#1039,#1040,#1041);
#1039=CARTESIAN_POINT('',(-87.85,4.8985871965894E-16,-7.99999999999999));
#1040=DIRECTION('',(0.,-1.,-6.12323399573677E-17));
#1041=DIRECTION('',(6.12323399573677E-17,-6.12323399573677E-17,1.));
#1042=CARTESIAN_POINT('',(-87.85,2.59625121419239E-15,-42.4000000000001));
#1043=AXIS2_PLACEMENT_3D('',#1044,#1045,#1046);
#1044=CARTESIAN_POINT('',(-87.85,2.44929359829471E-15,-40.0000000000001));
#1045=DIRECTION('',(0.,-1.,-6.12323399573677E-17));
#1046=DIRECTION('',(-6.12323399573677E-17,6.12323399573677E-17,-1.));
#1047=CARTESIAN_POINT('',(-134.152943725152,5.937734464072E-16,-9.6970562748477));
#1048=AXIS2_PLACEMENT_3D('',#1049,#1050,#1051);
#1049=CARTESIAN_POINT('',(-135.85,4.89858719658941E-16,-7.99999999999999));
#1050=DIRECTION('',(0.,-1.,-6.12323399573677E-17));
#1051=DIRECTION('',(0.707106781186547,4.32978028117747E-17,-0.707106781186548));
#1052=CARTESIAN_POINT('',(-135.85,2.30233598239702E-15,-37.6));
#1053=AXIS2_PLACEMENT_3D('',#1054,#1055,#1056);
#1054=CARTESIAN_POINT('',(-135.85,2.44929359829471E-15,-40.));
#1055=DIRECTION('',(0.,-1.,-6.12323399573677E-17));
#1056=DIRECTION('',(6.12323399573677E-17,-6.12323399573677E-17,1.));
#1057=CARTESIAN_POINT('',(30.25,2.66453525910038E-15,-23.4999999999998));
#1058=AXIS2_PLACEMENT_3D('',#1059,#1060,#1061);
#1059=CARTESIAN_POINT('',(30.25,1.46957615897681E-15,-23.9999999999998));
#1060=DIRECTION('',(0.,1.,6.12323399573677E-17));
#1061=DIRECTION('',(-1.22464679914735E-16,-6.12323399573677E-17,1.));
#1062=CARTESIAN_POINT('',(58.,2.66453525910038E-15,-23.5));
#1063=AXIS2_PLACEMENT_3D('',#1064,#1065,#1066);
#1064=CARTESIAN_POINT('',(58.,1.46957615897682E-15,-24.));
#1065=DIRECTION('',(0.,1.,6.12323399573677E-17));
#1066=DIRECTION('',(-1.22464679914735E-16,-6.12323399573677E-17,1.));
#1067=CARTESIAN_POINT('',(55.5000000000001,2.22044604925031E-15,-21.0097166668384));
#1068=CARTESIAN_POINT('',(55.5000000000001,2.66453525910038E-15,-27.0097172141284));
#1069=AXIS2_PLACEMENT_3D('',#1070,#1071,#1072);
#1070=CARTESIAN_POINT('',(51.4999991790651,1.47017114997985E-15,-24.0097169404834));
#1071=DIRECTION('',(0.,1.,6.12323399573677E-17));
#1072=DIRECTION('',(0.800000032837397,-3.67394012934729E-17,0.599999956216801));
#1073=CARTESIAN_POINT('',(55.5000000000001,1.77635683940025E-15,-30.2499999999999));
#1074=CARTESIAN_POINT('',(55.5,1.71511251300406E-15,-27.0097172141284));
#1075=VECTOR('',#1076,1.);
#1076=DIRECTION('',(2.1928417447337E-15,3.06161699786838E-17,-1.));
#1077=CARTESIAN_POINT('',(32.7500000000001,1.77635683940025E-15,-30.2499999999999));
#1078=CARTESIAN_POINT('',(55.5000000000001,1.81431756155531E-15,-30.2499999999998));
#1079=VECTOR('',#1080,1.);
#1080=DIRECTION('',(-1.,3.46752046250993E-32,-9.36979431771557E-16));
#1081=CARTESIAN_POINT('',(32.75,1.77635683940025E-15,-27.0097172141285));
#1082=CARTESIAN_POINT('',(32.75,1.81431756155531E-15,-30.2499999999999));
#1083=VECTOR('',#1084,1.);
#1084=DIRECTION('',(-2.19284174473372E-15,-3.06161699786839E-17,1.));
#1085=CARTESIAN_POINT('',(32.75,2.22044604925031E-15,-21.0097166668384));
#1086=AXIS2_PLACEMENT_3D('',#1087,#1088,#1089);
#1087=CARTESIAN_POINT('',(36.7500008209351,1.47017114997985E-15,-24.0097169404834));
#1088=DIRECTION('',(-6.16297582203915E-33,1.,6.12323399573677E-17));
#1089=DIRECTION('',(-0.800000032837396,3.6739401293473E-17,-0.599999956216803));
#1090=CARTESIAN_POINT('',(32.75,8.88178419700125E-16,-17.7499999999999));
#1091=CARTESIAN_POINT('',(32.75,1.08732626652597E-15,-21.0097166668384));
#1092=VECTOR('',#1093,1.);
#1093=DIRECTION('',(0.,-3.06161699786838E-17,1.));
#1094=CARTESIAN_POINT('',(55.5000000000001,8.88178419700125E-16,-17.7499999999999));
#1095=CARTESIAN_POINT('',(32.75,9.87526226971699E-16,-17.7499999999999));
#1096=VECTOR('',#1097,1.);
#1097=DIRECTION('',(1.,-8.6688011562748E-33,3.12326477257185E-16));
#1098=CARTESIAN_POINT('',(55.5,9.87526226971698E-16,-17.7499999999999));
#1099=VECTOR('',#1100,1.);
#1100=DIRECTION('',(0.,3.06161699786839E-17,-1.));
#1101=CARTESIAN_POINT('',(61.,4.,-48.));
#1102=CARTESIAN_POINT('',(-160.,4.,-48.));
#1103=CARTESIAN_POINT('',(61.,4.,-48.));
#1104=VECTOR('',#1105,1.);
#1105=DIRECTION('',(-1.,0.,-3.21512550117692E-17));
#1106=CARTESIAN_POINT('',(-160.,4.,-6.86049799777153E-15));
#1107=CARTESIAN_POINT('',(-160.,4.,-6.86049799777153E-15));
#1108=VECTOR('',#1109,1.);
#1109=DIRECTION('',(0.,5.55111512312578E-17,-1.));
#1110=CARTESIAN_POINT('',(61.,4.,2.44929359829471E-16));
#1111=CARTESIAN_POINT('',(-160.,4.,-8.20637151556044E-15));
#1112=VECTOR('',#1113,1.);
#1113=DIRECTION('',(1.,0.,4.66917974845684E-17));
#1114=CARTESIAN_POINT('',(61.,4.,2.44929359829471E-16));
#1115=VECTOR('',#1116,1.);
#1116=DIRECTION('',(0.,5.55111512312578E-17,-1.));
#1117=CARTESIAN_POINT('',(-70.4359258619666,4.,-10.));
#1118=CARTESIAN_POINT('',(-70.4359258619666,4.,-38.));
#1119=CARTESIAN_POINT('',(-70.4359258619666,4.,-38.));
#1120=VECTOR('',#1121,1.);
#1121=DIRECTION('',(0.,-6.34413156928661E-17,1.));
#1122=CARTESIAN_POINT('',(23.5640741380335,4.,-38.));
#1123=CARTESIAN_POINT('',(23.5640741380335,4.,-38.));
#1124=VECTOR('',#1125,1.);
#1125=DIRECTION('',(-1.,0.,-7.55896527404362E-17));
#1126=CARTESIAN_POINT('',(23.5640741380334,4.,-10.));
#1127=CARTESIAN_POINT('',(23.5640741380334,4.,-10.));
#1128=VECTOR('',#1129,1.);
#1129=DIRECTION('',(2.53765262771464E-16,6.34413156928661E-17,-1.));
#1130=CARTESIAN_POINT('',(-70.4359258619666,4.,-10.));
#1131=VECTOR('',#1132,1.);
#1132=DIRECTION('',(1.,0.,1.13384479110654E-16));
#1133=CARTESIAN_POINT('',(-102.,4.,-31.5));
#1134=CARTESIAN_POINT('',(-77.,4.,-31.5));
#1135=CARTESIAN_POINT('',(-77.,4.,-31.5));
#1136=VECTOR('',#1137,1.);
#1137=DIRECTION('',(-1.,0.,-1.4210854715202E-16));
#1138=CARTESIAN_POINT('',(-77.,4.,-16.5));
#1139=CARTESIAN_POINT('',(-77.,4.,-16.5));
#1140=VECTOR('',#1141,1.);
#1141=DIRECTION('',(0.,5.9211894646675E-17,-1.));
#1142=CARTESIAN_POINT('',(-102.,4.,-16.5));
#1143=CARTESIAN_POINT('',(-102.,4.,-16.5));
#1144=VECTOR('',#1145,1.);
#1145=DIRECTION('',(1.,0.,1.4210854715202E-16));
#1146=CARTESIAN_POINT('',(-102.,4.,-9.00000000000001));
#1147=CARTESIAN_POINT('',(-102.,4.,-9.00000000000001));
#1148=VECTOR('',#1149,1.);
#1149=DIRECTION('',(0.,0.,-1.));
#1150=CARTESIAN_POINT('',(-122.,4.,-9.00000000000001));
#1151=CARTESIAN_POINT('',(-122.,4.,-9.00000000000001));
#1152=VECTOR('',#1153,1.);
#1153=DIRECTION('',(1.,0.,1.77635683940025E-16));
#1154=CARTESIAN_POINT('',(-122.,4.,-16.5));
#1155=CARTESIAN_POINT('',(-122.,4.,-16.5));
#1156=VECTOR('',#1157,1.);
#1157=DIRECTION('',(0.,0.,1.));
#1158=CARTESIAN_POINT('',(-147.,4.,-16.5));
#1159=CARTESIAN_POINT('',(-147.,4.,-16.5));
#1160=VECTOR('',#1161,1.);
#1161=DIRECTION('',(1.,0.,2.8421709430404E-16));
#1162=CARTESIAN_POINT('',(-147.,4.,-31.5));
#1163=CARTESIAN_POINT('',(-147.,4.,-31.5));
#1164=VECTOR('',#1165,1.);
#1165=DIRECTION('',(0.,-5.9211894646675E-17,1.));
#1166=CARTESIAN_POINT('',(-122.,4.,-31.5));
#1167=CARTESIAN_POINT('',(-122.,4.,-31.5));
#1168=VECTOR('',#1169,1.);
#1169=DIRECTION('',(-1.,0.,-2.8421709430404E-16));
#1170=CARTESIAN_POINT('',(-122.,4.,-39.));
#1171=CARTESIAN_POINT('',(-122.,4.,-39.));
#1172=VECTOR('',#1173,1.);
#1173=DIRECTION('',(0.,-1.1842378929335E-16,1.));
#1174=CARTESIAN_POINT('',(-102.,4.,-39.));
#1175=CARTESIAN_POINT('',(-102.,4.,-39.));
#1176=VECTOR('',#1177,1.);
#1177=DIRECTION('',(-1.,0.,3.5527136788005E-16));
#1178=CARTESIAN_POINT('',(-102.,4.,-31.5));
#1179=VECTOR('',#1180,1.);
#1180=DIRECTION('',(0.,1.1842378929335E-16,-1.));
#1181=CARTESIAN_POINT('',(59.65,4.,-35.));
#1182=AXIS2_PLACEMENT_3D('',#1183,#1184,#1185);
#1183=CARTESIAN_POINT('',(58.15,4.,-35.));
#1184=DIRECTION('',(0.,1.,6.12323399573677E-17));
#1185=DIRECTION('',(1.,0.,0.));
#1186=CARTESIAN_POINT('',(59.65,4.,-13.));
#1187=AXIS2_PLACEMENT_3D('',#1188,#1189,#1190);
#1188=CARTESIAN_POINT('',(58.15,4.,-13.));
#1189=DIRECTION('',(0.,1.,6.12323399573677E-17));
#1190=DIRECTION('',(1.,0.,0.));
#1191=CARTESIAN_POINT('',(-50.85,4.,-45.));
#1192=AXIS2_PLACEMENT_3D('',#1193,#1194,#1195);
#1193=CARTESIAN_POINT('',(-50.85,4.,-43.5));
#1194=DIRECTION('',(0.,-1.,-6.12323399573677E-17));
#1195=DIRECTION('',(-4.79818391169137E-15,6.12323399573677E-17,-1.));
#1196=CARTESIAN_POINT('',(-50.85,4.,-6.));
#1197=AXIS2_PLACEMENT_3D('',#1198,#1199,#1200);
#1198=CARTESIAN_POINT('',(-50.85,4.,-4.5));
#1199=DIRECTION('',(0.,-1.,-6.12323399573677E-17));
#1200=DIRECTION('',(-6.12323399573676E-17,6.12323399573677E-17,-1.));
#1201=CARTESIAN_POINT('',(-87.85,4.,-5.59999999999999));
#1202=AXIS2_PLACEMENT_3D('',#1203,#1204,#1205);
#1203=CARTESIAN_POINT('',(-87.85,4.,-7.99999999999999));
#1204=DIRECTION('',(0.,-1.,-6.12323399573677E-17));
#1205=DIRECTION('',(6.12323399573677E-17,-6.12323399573677E-17,1.));
#1206=CARTESIAN_POINT('',(-87.85,4.,-42.4000000000001));
#1207=AXIS2_PLACEMENT_3D('',#1208,#1209,#1210);
#1208=CARTESIAN_POINT('',(-87.85,4.,-40.0000000000001));
#1209=DIRECTION('',(0.,-1.,-6.12323399573677E-17));
#1210=DIRECTION('',(-6.12323399573677E-17,6.12323399573677E-17,-1.));
#1211=CARTESIAN_POINT('',(-134.152943725152,4.,-9.6970562748477));
#1212=AXIS2_PLACEMENT_3D('',#1213,#1214,#1215);
#1213=CARTESIAN_POINT('',(-135.85,4.,-7.99999999999999));
#1214=DIRECTION('',(0.,-1.,-6.12323399573677E-17));
#1215=DIRECTION('',(0.707106781186547,4.32978028117747E-17,-0.707106781186548));
#1216=CARTESIAN_POINT('',(-135.85,4.,-37.6));
#1217=AXIS2_PLACEMENT_3D('',#1218,#1219,#1220);
#1218=CARTESIAN_POINT('',(-135.85,4.,-40.));
#1219=DIRECTION('',(0.,-1.,-6.12323399573677E-17));
#1220=DIRECTION('',(6.12323399573677E-17,-6.12323399573677E-17,1.));
#1221=CARTESIAN_POINT('',(30.25,4.,-23.4999999999998));
#1222=AXIS2_PLACEMENT_3D('',#1223,#1224,#1225);
#1223=CARTESIAN_POINT('',(30.25,4.,-23.9999999999998));
#1224=DIRECTION('',(0.,1.,6.12323399573677E-17));
#1225=DIRECTION('',(-1.22464679914735E-16,-6.12323399573677E-17,1.));
#1226=CARTESIAN_POINT('',(58.,4.,-23.5));
#1227=AXIS2_PLACEMENT_3D('',#1228,#1229,#1230);
#1228=CARTESIAN_POINT('',(58.,4.,-24.));
#1229=DIRECTION('',(0.,1.,6.12323399573677E-17));
#1230=DIRECTION('',(-1.22464679914735E-16,-6.12323399573677E-17,1.));
#1231=CARTESIAN_POINT('',(55.5000000000001,4.,-27.0097172141284));
#1232=CARTESIAN_POINT('',(55.5000000000001,4.,-21.0097166668384));
#1233=AXIS2_PLACEMENT_3D('',#1234,#1235,#1236);
#1234=CARTESIAN_POINT('',(51.4999991790651,4.,-24.0097169404834));
#1235=DIRECTION('',(0.,1.,6.12323399573677E-17));
#1236=DIRECTION('',(0.800000032837397,-3.67394012934729E-17,0.599999956216801));
#1237=CARTESIAN_POINT('',(55.5000000000001,4.,-17.7499999999999));
#1238=CARTESIAN_POINT('',(55.5,4.,-17.7499999999999));
#1239=VECTOR('',#1240,1.);
#1240=DIRECTION('',(0.,0.,-1.));
#1241=CARTESIAN_POINT('',(32.75,4.,-17.7499999999999));
#1242=CARTESIAN_POINT('',(32.75,4.,-17.7499999999999));
#1243=VECTOR('',#1244,1.);
#1244=DIRECTION('',(1.,0.,3.12326477257185E-16));
#1245=CARTESIAN_POINT('',(32.75,4.,-21.0097166668384));
#1246=CARTESIAN_POINT('',(32.75,4.,-21.0097166668384));
#1247=VECTOR('',#1248,1.);
#1248=DIRECTION('',(0.,0.,1.));
#1249=CARTESIAN_POINT('',(32.75,4.,-27.0097172141285));
#1250=AXIS2_PLACEMENT_3D('',#1251,#1252,#1253);
#1251=CARTESIAN_POINT('',(36.7500008209351,4.,-24.0097169404834));
#1252=DIRECTION('',(-6.16297582203915E-33,1.,6.12323399573677E-17));
#1253=DIRECTION('',(-0.800000032837396,3.6739401293473E-17,-0.599999956216803));
#1254=CARTESIAN_POINT('',(32.7500000000001,4.,-30.2499999999999));
#1255=CARTESIAN_POINT('',(32.75,4.,-30.2499999999999));
#1256=VECTOR('',#1257,1.);
#1257=DIRECTION('',(-2.19284174473372E-15,0.,1.));
#1258=CARTESIAN_POINT('',(55.5000000000001,4.,-30.2499999999999));
#1259=CARTESIAN_POINT('',(55.5000000000001,4.,-30.2499999999998));
#1260=VECTOR('',#1261,1.);
#1261=DIRECTION('',(-1.,0.,-9.36979431771557E-16));
#1262=CARTESIAN_POINT('',(55.5,4.,-27.0097172141284));
#1263=VECTOR('',#1264,1.);
#1264=DIRECTION('',(2.1928417447337E-15,0.,-1.));
#1265=CARTESIAN_POINT('',(-70.4359258619666,2.66453525910038E-15,-38.));
#1266=VECTOR('',#1267,1.);
#1267=DIRECTION('',(0.,1.,0.));
#1268=CARTESIAN_POINT('',(23.5640741380335,2.66453525910038E-15,-38.));
#1269=VECTOR('',#1270,1.);
#1270=DIRECTION('',(0.,1.,0.));
#1271=CARTESIAN_POINT('',(23.5640741380334,8.88178419700125E-16,-10.));
#1272=VECTOR('',#1273,1.);
#1273=DIRECTION('',(0.,1.,4.44089209850063E-16));
#1274=CARTESIAN_POINT('',(-70.4359258619666,8.88178419700125E-16,-10.));
#1275=VECTOR('',#1276,1.);
#1276=DIRECTION('',(0.,1.,0.));
#1277=CARTESIAN_POINT('',(61.,-1.14356683427966E-31,1.86758636869971E-15));
#1278=VECTOR('',#1279,1.);
#1279=DIRECTION('',(0.,1.,6.12323399573676E-17));
#1280=CARTESIAN_POINT('',(-160.,6.74056663696628E-31,-8.45130087538991E-15));
#1281=VECTOR('',#1282,1.);
#1282=DIRECTION('',(0.,1.,6.12323399573676E-17));
#1283=CARTESIAN_POINT('',(-160.,4.,-48.));
#1284=VECTOR('',#1285,1.);
#1285=DIRECTION('',(0.,-1.,0.));
#1286=CARTESIAN_POINT('',(61.,2.93915231795365E-15,-48.));
#1287=VECTOR('',#1288,1.);
#1288=DIRECTION('',(0.,1.,0.));
#1289=CARTESIAN_POINT('',(-102.,1.77635683940025E-15,-31.5));
#1290=VECTOR('',#1291,1.);
#1291=DIRECTION('',(0.,1.,0.));
#1292=CARTESIAN_POINT('',(-77.,1.77635683940025E-15,-31.5));
#1293=VECTOR('',#1294,1.);
#1294=DIRECTION('',(0.,1.,0.));
#1295=CARTESIAN_POINT('',(-102.,2.66453525910038E-15,-39.));
#1296=VECTOR('',#1297,1.);
#1297=DIRECTION('',(0.,1.,0.));
#1298=CARTESIAN_POINT('',(-122.,2.66453525910038E-15,-39.));
#1299=VECTOR('',#1300,1.);
#1300=DIRECTION('',(0.,1.,0.));
#1301=CARTESIAN_POINT('',(-122.,1.77635683940025E-15,-31.5));
#1302=VECTOR('',#1303,1.);
#1303=DIRECTION('',(0.,1.,0.));
#1304=CARTESIAN_POINT('',(-147.,1.77635683940025E-15,-31.5));
#1305=VECTOR('',#1306,1.);
#1306=DIRECTION('',(0.,1.,0.));
#1307=CARTESIAN_POINT('',(-147.,8.88178419700125E-16,-16.5));
#1308=VECTOR('',#1309,1.);
#1309=DIRECTION('',(0.,1.,0.));
#1310=CARTESIAN_POINT('',(-122.,8.88178419700125E-16,-16.5));
#1311=VECTOR('',#1312,1.);
#1312=DIRECTION('',(0.,1.,0.));
#1313=CARTESIAN_POINT('',(-122.,8.88178419700125E-16,-9.00000000000001));
#1314=VECTOR('',#1315,1.);
#1315=DIRECTION('',(0.,1.,0.));
#1316=CARTESIAN_POINT('',(-102.,8.88178419700125E-16,-9.));
#1317=VECTOR('',#1318,1.);
#1318=DIRECTION('',(0.,1.,0.));
#1319=CARTESIAN_POINT('',(-102.,8.88178419700125E-16,-16.5));
#1320=VECTOR('',#1321,1.);
#1321=DIRECTION('',(0.,1.,8.88178419700125E-16));
#1322=CARTESIAN_POINT('',(-77.,8.88178419700125E-16,-16.5));
#1323=VECTOR('',#1324,1.);
#1324=DIRECTION('',(0.,1.,0.));
#1325=CARTESIAN_POINT('',(55.5000000000001,2.22044604925031E-15,-21.0097166668384));
#1326=VECTOR('',#1327,1.);
#1327=DIRECTION('',(0.,1.,0.));
#1328=CARTESIAN_POINT('',(55.5000000000001,2.66453525910038E-15,-27.0097172141284));
#1329=VECTOR('',#1330,1.);
#1330=DIRECTION('',(0.,1.,0.));
#1331=CARTESIAN_POINT('',(55.5000000000001,1.77635683940025E-15,-30.2499999999999));
#1332=VECTOR('',#1333,1.);
#1333=DIRECTION('',(0.,1.,0.));
#1334=CARTESIAN_POINT('',(32.7500000000001,1.77635683940025E-15,-30.2499999999999));
#1335=VECTOR('',#1336,1.);
#1336=DIRECTION('',(0.,1.,0.));
#1337=CARTESIAN_POINT('',(32.75,1.77635683940025E-15,-27.0097172141285));
#1338=VECTOR('',#1339,1.);
#1339=DIRECTION('',(0.,1.,0.));
#1340=CARTESIAN_POINT('',(32.75,2.22044604925031E-15,-21.0097166668384));
#1341=VECTOR('',#1342,1.);
#1342=DIRECTION('',(0.,1.,0.));
#1343=CARTESIAN_POINT('',(32.75,8.88178419700125E-16,-17.7499999999999));
#1344=VECTOR('',#1345,1.);
#1345=DIRECTION('',(0.,1.,0.));
#1346=CARTESIAN_POINT('',(55.5000000000001,8.88178419700125E-16,-17.7499999999999));
#1347=VECTOR('',#1348,1.);
#1348=DIRECTION('',(0.,1.,0.));
ENDSEC;
END-ISO-10303-21;
