ISO-10303-21;
HEADER;
FILE_DESCRIPTION(('STEP AP242'),
    '1');
FILE_NAME('ÃÛÙÚ‡',
    '',
    ('UNSPECIFIED'),
    ('UNSPECIFIED'),
    'C3D Converter',
    'C3D Toolkit',
    '');
FILE_SCHEMA(('AP242_MANAGED_MODEL_BASED_3D_ENGINEERING_MIM_LF { 1 0 10303 442 1 1 4 }'));
ENDSEC;

DATA;
#1=PRODUCT_DEFINITION('','UNSPECIFIED',#28,#31);
#2=SHAPE_DEFINITION_REPRESENTATION(#26,#3);
#3=SHAPE_REPRESENTATION('NONE',(#4),#8);
#4=AXIS2_PLACEMENT_3D('',#5,#6,#7);
#5=CARTESIAN_POINT('',(0.,0.,0.));
#6=DIRECTION('',(0.,0.,1.));
#7=DIRECTION('',(1.,0.,0.));
#8=(GEOMETRIC_REPRESENTATION_CONTEXT(3)GLOBAL_UNCERTAINTY_ASSIGNED_CONTEXT((#10))
GLOBAL_UNIT_ASSIGNED_CONTEXT((#9,#11,#12))REPRESENTATION_CONTEXT('NONE','NONE'));
#9=(LENGTH_UNIT()NAMED_UNIT(*)SI_UNIT(.MILLI.,.METRE.));
#10=UNCERTAINTY_MEASURE_WITH_UNIT(LENGTH_MEASURE(1.E-5),#9,'NONE','NONE');
#11=(NAMED_UNIT(*)PLANE_ANGLE_UNIT()SI_UNIT($,.RADIAN.));
#12=(NAMED_UNIT(*)SI_UNIT($,.STERADIAN.)SOLID_ANGLE_UNIT());
#13=MANIFOLD_SOLID_BREP('',#14);
#14=CLOSED_SHELL('',(#53,#54,#55,#56,#57,#58,#59,#60,#61,#62,#63,#64,#65,#66,#67,
#68,#69,#70,#71,#72,#73,#74,#75,#76,#77,#78,#79,#80,#81,#82,#83,#84,#85,#86,#87,
#88,#89));
#15=COLOUR_RGB('',1.,0.501960784313725,0.);
#16=FILL_AREA_STYLE_COLOUR('',#15);
#17=FILL_AREA_STYLE($,(#16));
#18=SURFACE_STYLE_FILL_AREA(#17);
#19=SURFACE_SIDE_STYLE('',(#18));
#20=SURFACE_STYLE_USAGE(.BOTH.,#19);
#21=PRESENTATION_STYLE_ASSIGNMENT((#20));
#22=MECHANICAL_DESIGN_GEOMETRIC_PRESENTATION_REPRESENTATION('NONE',(#23),#8);
#23=STYLED_ITEM('',(#21),#13);
#24=ADVANCED_BREP_SHAPE_REPRESENTATION('NONE',(#13),#8);
#25=SHAPE_REPRESENTATION_RELATIONSHIP('','',#3,#24);
#26=PRODUCT_DEFINITION_SHAPE('NONE','NONE',#1);
#27=MECHANICAL_CONTEXT('NONE',#32,'mechanical');
#28=PRODUCT_DEFINITION_FORMATION_WITH_SPECIFIED_SOURCE('ANY','UNSPECIFIED',#29,.NOT_KNOWN.);
#29=PRODUCT('\X2\0420043E043D043804420438\X0\ \X2\041C0414\X0\','\X2\041C0443044404420430\X0\',
'NONE',(#27));
#30=PRODUCT_RELATED_PRODUCT_CATEGORY('detail','',(#29));
#31=DESIGN_CONTEXT('detailed design',#32,'design');
#32=APPLICATION_CONTEXT('configuration controlled 3d designs of mechanical parts and assemblies');
#33=APPLICATION_PROTOCOL_DEFINITION('international standard','config_control_design',
1994,#32);
#34=CC_DESIGN_DATE_AND_TIME_ASSIGNMENT(#35,#39,(#1));
#35=DATE_AND_TIME(#36,#37);
#36=CALENDAR_DATE(0,1,1);
#37=LOCAL_TIME(0,0,0.,#38);
#38=COORDINATED_UNIVERSAL_TIME_OFFSET(0,0,.AHEAD.);
#39=DATE_TIME_ROLE('creation_date');
#40=CC_DESIGN_APPROVAL(#41,(#1));
#41=APPROVAL(#42,'UNSPECIFIED');
#42=APPROVAL_STATUS('not_yet_approved');
#43=APPROVAL_DATE_TIME(#44,#41);
#44=DATE_AND_TIME(#45,#46);
#45=CALENDAR_DATE(0,1,1);
#46=LOCAL_TIME(0,0,0.,#47);
#47=COORDINATED_UNIVERSAL_TIME_OFFSET(0,0,.AHEAD.);
#48=PERSON('UNSPECIFIED','io','UNSPECIFIED',('UNSPECIFIED'),('UNSPECIFIED'),('UNSPECIFIED'));
#49=ORGANIZATION('UNSPECIFIED','UNSPECIFIED','UNSPECIFIED');
#50=PERSON_AND_ORGANIZATION(#48,#49);
#51=PERSON_AND_ORGANIZATION_ROLE('creator');
#52=CC_DESIGN_PERSON_AND_ORGANIZATION_ASSIGNMENT(#50,#51,(#28,#1));
#53=ADVANCED_FACE('',(#90,#92),#94,.T.);
#54=ADVANCED_FACE('',(#99,#101),#103,.F.);
#55=ADVANCED_FACE('',(#108,#110),#112,.T.);
#56=ADVANCED_FACE('',(#117),#119,.T.);
#57=ADVANCED_FACE('',(#124),#126,.T.);
#58=ADVANCED_FACE('',(#131),#133,.T.);
#59=ADVANCED_FACE('',(#138),#140,.F.);
#60=ADVANCED_FACE('',(#145),#147,.T.);
#61=ADVANCED_FACE('',(#152),#154,.T.);
#62=ADVANCED_FACE('',(#159),#161,.T.);
#63=ADVANCED_FACE('',(#166),#168,.T.);
#64=ADVANCED_FACE('',(#173),#175,.T.);
#65=ADVANCED_FACE('',(#180),#182,.F.);
#66=ADVANCED_FACE('',(#187),#189,.T.);
#67=ADVANCED_FACE('',(#194),#196,.T.);
#68=ADVANCED_FACE('',(#201),#203,.T.);
#69=ADVANCED_FACE('',(#208),#210,.T.);
#70=ADVANCED_FACE('',(#215),#217,.T.);
#71=ADVANCED_FACE('',(#222),#224,.F.);
#72=ADVANCED_FACE('',(#229),#231,.T.);
#73=ADVANCED_FACE('',(#236),#238,.T.);
#74=ADVANCED_FACE('',(#243),#245,.T.);
#75=ADVANCED_FACE('',(#250),#252,.T.);
#76=ADVANCED_FACE('',(#257),#259,.T.);
#77=ADVANCED_FACE('',(#264),#266,.F.);
#78=ADVANCED_FACE('',(#271),#273,.T.);
#79=ADVANCED_FACE('',(#278),#280,.T.);
#80=ADVANCED_FACE('',(#285),#287,.F.);
#81=ADVANCED_FACE('',(#292),#294,.T.);
#82=ADVANCED_FACE('',(#299),#301,.F.);
#83=ADVANCED_FACE('',(#306),#308,.T.);
#84=ADVANCED_FACE('',(#313),#315,.F.);
#85=ADVANCED_FACE('',(#320),#322,.T.);
#86=ADVANCED_FACE('',(#327),#329,.F.);
#87=ADVANCED_FACE('',(#334),#336,.T.);
#88=ADVANCED_FACE('',(#341),#343,.F.);
#89=ADVANCED_FACE('',(#348),#350,.T.);
#90=FACE_BOUND('',#91,.T.);
#91=EDGE_LOOP('',(#355));
#92=FACE_BOUND('',#93,.T.);
#93=EDGE_LOOP('',(#356,#357,#358,#359,#360,#361,#362,#363,#364,#365,#366,#367,#368,
#369,#370,#371,#372,#373,#374,#375,#376,#377,#378,#379));
#94=PLANE('',#95);
#95=AXIS2_PLACEMENT_3D('',#96,#97,#98);
#96=CARTESIAN_POINT('',(0.,20.,1.22464679914735E-15));
#97=DIRECTION('',(0.,1.,6.12323399573677E-17));
#98=DIRECTION('',(6.12323399573677E-17,6.12323399573677E-17,-1.));
#99=FACE_BOUND('',#100,.T.);
#100=EDGE_LOOP('',(#380));
#101=FACE_BOUND('',#102,.T.);
#102=EDGE_LOOP('',(#381,#382));
#103=PLANE('',#104);
#104=AXIS2_PLACEMENT_3D('',#105,#106,#107);
#105=CARTESIAN_POINT('',(0.,0.,0.));
#106=DIRECTION('',(0.,1.,6.12323399573677E-17));
#107=DIRECTION('',(6.12323399573677E-17,6.12323399573677E-17,-1.));
#108=FACE_OUTER_BOUND('',#109,.T.);
#109=EDGE_LOOP('',(#383));
#110=FACE_OUTER_BOUND('',#111,.T.);
#111=EDGE_LOOP('',(#384));
#112=CYLINDRICAL_SURFACE('',#113,5.75);
#113=AXIS2_PLACEMENT_3D('',#114,#115,#116);
#114=CARTESIAN_POINT('',(0.,0.,0.));
#115=DIRECTION('',(0.,1.,6.12323399573677E-17));
#116=DIRECTION('',(1.,0.,0.));
#117=FACE_BOUND('',#118,.T.);
#118=EDGE_LOOP('',(#385,#386,#387,#388));
#119=CYLINDRICAL_SURFACE('',#120,0.35);
#120=AXIS2_PLACEMENT_3D('',#121,#122,#123);
#121=CARTESIAN_POINT('',(1.4,10.,-1.4));
#122=DIRECTION('',(0.,1.,6.12323399573677E-17));
#123=DIRECTION('',(-1.,3.74939945665464E-33,-6.12323399573677E-17));
#124=FACE_BOUND('',#125,.T.);
#125=EDGE_LOOP('',(#389,#390,#391,#392,#393));
#126=PLANE('',#127);
#127=AXIS2_PLACEMENT_3D('',#128,#129,#130);
#128=CARTESIAN_POINT('',(1.4,10.,-1.05));
#129=DIRECTION('',(-2.76372264657637E-16,-6.66133814775094E-17,1.));
#130=DIRECTION('',(1.,0.,2.76372264657637E-16));
#131=FACE_BOUND('',#132,.T.);
#132=EDGE_LOOP('',(#394,#395,#396,#397));
#133=PLANE('',#134);
#134=AXIS2_PLACEMENT_3D('',#135,#136,#137);
#135=CARTESIAN_POINT('',(2.20342578948758,10.,-1.05));
#136=DIRECTION('',(-0.571040240720156,-5.46843949499455E-17,0.820922069065186));
#137=DIRECTION('',(0.820922069065186,0.,0.571040240720156));
#138=FACE_BOUND('',#139,.T.);
#139=EDGE_LOOP('',(#398,#399,#400,#401));
#140=CYLINDRICAL_SURFACE('',#141,2.55);
#141=AXIS2_PLACEMENT_3D('',#142,#143,#144);
#142=CARTESIAN_POINT('',(0.,10.,6.12323399573677E-16));
#143=DIRECTION('',(0.,-1.,-6.12323399573677E-17));
#144=DIRECTION('',(0.930891380437563,2.23679347415907E-17,-0.365296096101572));
#145=FACE_BOUND('',#146,.T.);
#146=EDGE_LOOP('',(#402,#403,#404,#405));
#147=PLANE('',#148);
#148=AXIS2_PLACEMENT_3D('',#149,#150,#151);
#149=CARTESIAN_POINT('',(2.37377302011578,10.,0.93150504505901));
#150=DIRECTION('',(-0.571040240720152,4.55703291249548E-17,-0.820922069065189));
#151=DIRECTION('',(-0.820922069065189,0.,0.571040240720152));
#152=FACE_BOUND('',#153,.T.);
#153=EDGE_LOOP('',(#406,#407,#408,#409,#410));
#154=PLANE('',#155);
#155=AXIS2_PLACEMENT_3D('',#156,#157,#158);
#156=CARTESIAN_POINT('',(2.20342578948757,10.,1.05));
#157=DIRECTION('',(2.76372264657637E-16,6.66133814775094E-17,-1.));
#158=DIRECTION('',(-1.,0.,-2.76372264657637E-16));
#159=FACE_BOUND('',#160,.T.);
#160=EDGE_LOOP('',(#411,#412,#413,#414));
#161=CYLINDRICAL_SURFACE('',#162,0.35);
#162=AXIS2_PLACEMENT_3D('',#163,#164,#165);
#163=CARTESIAN_POINT('',(1.4,10.,1.4));
#164=DIRECTION('',(0.,1.,6.12323399573677E-17));
#165=DIRECTION('',(6.12323399573677E-17,6.12323399573677E-17,-1.));
#166=FACE_BOUND('',#167,.T.);
#167=EDGE_LOOP('',(#415,#416,#417,#418,#419));
#168=PLANE('',#169);
#169=AXIS2_PLACEMENT_3D('',#170,#171,#172);
#170=CARTESIAN_POINT('',(1.05,10.,1.4));
#171=DIRECTION('',(-1.,0.,0.));
#172=DIRECTION('',(0.,0.,1.));
#173=FACE_BOUND('',#174,.T.);
#174=EDGE_LOOP('',(#420,#421,#422,#423));
#175=PLANE('',#176);
#176=AXIS2_PLACEMENT_3D('',#177,#178,#179);
#177=CARTESIAN_POINT('',(1.05,10.,2.20342578948758));
#178=DIRECTION('',(-0.820922069065187,5.07185618588007E-17,-0.571040240720155));
#179=DIRECTION('',(-0.571040240720155,0.,0.820922069065187));
#180=FACE_BOUND('',#181,.T.);
#181=EDGE_LOOP('',(#424,#425,#426,#427));
#182=CYLINDRICAL_SURFACE('',#183,2.55);
#183=AXIS2_PLACEMENT_3D('',#184,#185,#186);
#184=CARTESIAN_POINT('',(0.,10.,6.12323399573677E-16));
#185=DIRECTION('',(0.,-1.,-6.12323399573677E-17));
#186=DIRECTION('',(0.365296096101572,-5.70006574703361E-17,0.930891380437563));
#187=FACE_BOUND('',#188,.T.);
#188=EDGE_LOOP('',(#428,#429,#430,#431));
#189=PLANE('',#190);
#190=AXIS2_PLACEMENT_3D('',#191,#192,#193);
#191=CARTESIAN_POINT('',(-0.931505045059009,10.,2.37377302011578));
#192=DIRECTION('',(0.820922069065188,5.07185618588005E-17,-0.571040240720154));
#193=DIRECTION('',(-0.571040240720154,0.,-0.820922069065188));
#194=FACE_BOUND('',#195,.T.);
#195=EDGE_LOOP('',(#432,#433,#434,#435,#436));
#196=PLANE('',#197);
#197=AXIS2_PLACEMENT_3D('',#198,#199,#200);
#198=CARTESIAN_POINT('',(-1.05,10.,2.20342578948758));
#199=DIRECTION('',(1.,-2.45467881272565E-32,2.76372264657637E-16));
#200=DIRECTION('',(2.76372264657637E-16,0.,-1.));
#201=FACE_BOUND('',#202,.T.);
#202=EDGE_LOOP('',(#437,#438,#439,#440));
#203=CYLINDRICAL_SURFACE('',#204,0.35);
#204=AXIS2_PLACEMENT_3D('',#205,#206,#207);
#205=CARTESIAN_POINT('',(-1.4,10.,1.4));
#206=DIRECTION('',(0.,1.,6.12323399573677E-17));
#207=DIRECTION('',(1.,-3.74939945665464E-33,6.12323399573677E-17));
#208=FACE_BOUND('',#209,.T.);
#209=EDGE_LOOP('',(#441,#442,#443,#444,#445));
#210=PLANE('',#211);
#211=AXIS2_PLACEMENT_3D('',#212,#213,#214);
#212=CARTESIAN_POINT('',(-1.4,10.,1.05));
#213=DIRECTION('',(2.76372264657637E-16,6.66133814775094E-17,-1.));
#214=DIRECTION('',(-1.,0.,-2.76372264657637E-16));
#215=FACE_BOUND('',#216,.T.);
#216=EDGE_LOOP('',(#446,#447,#448,#449));
#217=PLANE('',#218);
#218=AXIS2_PLACEMENT_3D('',#219,#220,#221);
#219=CARTESIAN_POINT('',(-2.20342578948758,10.,1.05));
#220=DIRECTION('',(0.57104024072016,5.46843949499454E-17,-0.820922069065183));
#221=DIRECTION('',(-0.820922069065183,0.,-0.57104024072016));
#222=FACE_BOUND('',#223,.T.);
#223=EDGE_LOOP('',(#450,#451,#452,#453));
#224=CYLINDRICAL_SURFACE('',#225,2.55);
#225=AXIS2_PLACEMENT_3D('',#226,#227,#228);
#226=CARTESIAN_POINT('',(0.,10.,6.12323399573677E-16));
#227=DIRECTION('',(0.,-1.,-6.12323399573677E-17));
#228=DIRECTION('',(-0.930891380437563,-2.23679347415907E-17,0.365296096101572));
#229=FACE_BOUND('',#230,.T.);
#230=EDGE_LOOP('',(#454,#455,#456,#457));
#231=PLANE('',#232);
#232=AXIS2_PLACEMENT_3D('',#233,#234,#235);
#233=CARTESIAN_POINT('',(-2.37377302011578,10.,-0.931505045059008));
#234=DIRECTION('',(0.571040240720159,-4.55703291249545E-17,0.820922069065184));
#235=DIRECTION('',(0.820922069065184,0.,-0.571040240720159));
#236=FACE_BOUND('',#237,.T.);
#237=EDGE_LOOP('',(#458,#459,#460,#461,#462));
#238=PLANE('',#239);
#239=AXIS2_PLACEMENT_3D('',#240,#241,#242);
#240=CARTESIAN_POINT('',(-2.20342578948758,10.,-1.05));
#241=DIRECTION('',(-2.76372264657637E-16,-6.66133814775094E-17,1.));
#242=DIRECTION('',(1.,0.,2.76372264657637E-16));
#243=FACE_BOUND('',#244,.T.);
#244=EDGE_LOOP('',(#463,#464,#465,#466));
#245=CYLINDRICAL_SURFACE('',#246,0.35);
#246=AXIS2_PLACEMENT_3D('',#247,#248,#249);
#247=CARTESIAN_POINT('',(-1.4,10.,-1.4));
#248=DIRECTION('',(0.,1.,6.12323399573677E-17));
#249=DIRECTION('',(-6.12323399573677E-17,-6.12323399573677E-17,1.));
#250=FACE_BOUND('',#251,.T.);
#251=EDGE_LOOP('',(#467,#468,#469,#470,#471));
#252=PLANE('',#253);
#253=AXIS2_PLACEMENT_3D('',#254,#255,#256);
#254=CARTESIAN_POINT('',(-1.05,10.,-1.4));
#255=DIRECTION('',(1.,-3.68201821908847E-32,5.52744529315274E-16));
#256=DIRECTION('',(5.52744529315274E-16,0.,-1.));
#257=FACE_BOUND('',#258,.T.);
#258=EDGE_LOOP('',(#472,#473,#474,#475));
#259=PLANE('',#260);
#260=AXIS2_PLACEMENT_3D('',#261,#262,#263);
#261=CARTESIAN_POINT('',(-1.05,10.,-2.20342578948758));
#262=DIRECTION('',(0.820922069065187,-5.07185618588006E-17,0.571040240720155));
#263=DIRECTION('',(0.571040240720155,0.,-0.820922069065187));
#264=FACE_BOUND('',#265,.T.);
#265=EDGE_LOOP('',(#476,#477,#478,#479));
#266=CYLINDRICAL_SURFACE('',#267,2.55);
#267=AXIS2_PLACEMENT_3D('',#268,#269,#270);
#268=CARTESIAN_POINT('',(0.,10.,6.12323399573677E-16));
#269=DIRECTION('',(0.,-1.,-6.12323399573677E-17));
#270=DIRECTION('',(-0.365296096101572,5.70006574703361E-17,-0.930891380437563));
#271=FACE_BOUND('',#272,.T.);
#272=EDGE_LOOP('',(#480,#481,#482,#483));
#273=PLANE('',#274);
#274=AXIS2_PLACEMENT_3D('',#275,#276,#277);
#275=CARTESIAN_POINT('',(0.93150504505901,10.,-2.37377302011578));
#276=DIRECTION('',(-0.820922069065187,-5.07185618588006E-17,0.571040240720155));
#277=DIRECTION('',(0.571040240720155,0.,0.820922069065187));
#278=FACE_BOUND('',#279,.T.);
#279=EDGE_LOOP('',(#484,#485,#486,#487,#488));
#280=PLANE('',#281);
#281=AXIS2_PLACEMENT_3D('',#282,#283,#284);
#282=CARTESIAN_POINT('',(1.05,10.,-2.20342578948757));
#283=DIRECTION('',(-1.,4.9093576254513E-32,-5.52744529315274E-16));
#284=DIRECTION('',(-5.52744529315274E-16,0.,1.));
#285=FACE_BOUND('',#286,.T.);
#286=EDGE_LOOP('',(#489,#490,#491,#492,#493,#494,#495,#496,#497,#498));
#287=CYLINDRICAL_SURFACE('',#288,2.14);
#288=AXIS2_PLACEMENT_3D('',#289,#290,#291);
#289=CARTESIAN_POINT('',(0.,0.,0.));
#290=DIRECTION('',(0.,-1.,-6.12323399573677E-17));
#291=DIRECTION('',(-0.742990654205603,4.09829148155599E-17,-0.669301791244525));
#292=FACE_BOUND('',#293,.T.);
#293=EDGE_LOOP('',(#499,#500,#501,#502,#503,#504));
#294=PLANE('',#295);
#295=AXIS2_PLACEMENT_3D('',#296,#297,#298);
#296=CARTESIAN_POINT('',(-1.59,-8.77034377052986E-17,1.43230583326329));
#297=DIRECTION('',(1.,3.09804127639303E-32,-4.65077917931402E-16));
#298=DIRECTION('',(-4.65077917931402E-16,6.12323399573677E-17,-1.));
#299=FACE_BOUND('',#300,.T.);
#300=EDGE_LOOP('',(#505,#506,#507,#508));
#301=PLANE('',#302);
#302=AXIS2_PLACEMENT_3D('',#303,#304,#305);
#303=CARTESIAN_POINT('',(0.,10.,6.12323399573677E-16));
#304=DIRECTION('',(0.,1.,6.12323399573677E-17));
#305=DIRECTION('',(6.12323399573677E-17,6.12323399573677E-17,-1.));
#306=FACE_BOUND('',#307,.T.);
#307=EDGE_LOOP('',(#509,#510,#511,#512,#513,#514));
#308=PLANE('',#309);
#309=AXIS2_PLACEMENT_3D('',#310,#311,#312);
#310=CARTESIAN_POINT('',(0.,10.,6.12323399573677E-16));
#311=DIRECTION('',(0.,1.,6.12323399573677E-17));
#312=DIRECTION('',(6.12323399573677E-17,6.12323399573677E-17,-1.));
#313=FACE_BOUND('',#314,.T.);
#314=EDGE_LOOP('',(#515,#516,#517,#518));
#315=PLANE('',#316);
#316=AXIS2_PLACEMENT_3D('',#317,#318,#319);
#317=CARTESIAN_POINT('',(0.,10.,6.12323399573677E-16));
#318=DIRECTION('',(0.,1.,6.12323399573677E-17));
#319=DIRECTION('',(6.12323399573677E-17,6.12323399573677E-17,-1.));
#320=FACE_BOUND('',#321,.T.);
#321=EDGE_LOOP('',(#519,#520,#521,#522,#523,#524));
#322=PLANE('',#323);
#323=AXIS2_PLACEMENT_3D('',#324,#325,#326);
#324=CARTESIAN_POINT('',(0.,10.,6.12323399573677E-16));
#325=DIRECTION('',(0.,1.,6.12323399573677E-17));
#326=DIRECTION('',(6.12323399573677E-17,6.12323399573677E-17,-1.));
#327=FACE_BOUND('',#328,.T.);
#328=EDGE_LOOP('',(#525,#526,#527,#528,#529));
#329=PLANE('',#330);
#330=AXIS2_PLACEMENT_3D('',#331,#332,#333);
#331=CARTESIAN_POINT('',(0.,10.,6.12323399573677E-16));
#332=DIRECTION('',(0.,1.,6.12323399573677E-17));
#333=DIRECTION('',(6.12323399573677E-17,6.12323399573677E-17,-1.));
#334=FACE_BOUND('',#335,.T.);
#335=EDGE_LOOP('',(#530,#531,#532,#533,#534,#535));
#336=PLANE('',#337);
#337=AXIS2_PLACEMENT_3D('',#338,#339,#340);
#338=CARTESIAN_POINT('',(0.,10.,6.12323399573677E-16));
#339=DIRECTION('',(0.,1.,6.12323399573677E-17));
#340=DIRECTION('',(6.12323399573677E-17,6.12323399573677E-17,-1.));
#341=FACE_BOUND('',#342,.T.);
#342=EDGE_LOOP('',(#536,#537,#538,#539,#540));
#343=PLANE('',#344);
#344=AXIS2_PLACEMENT_3D('',#345,#346,#347);
#345=CARTESIAN_POINT('',(0.,10.,6.12323399573677E-16));
#346=DIRECTION('',(0.,1.,6.12323399573677E-17));
#347=DIRECTION('',(6.12323399573677E-17,6.12323399573677E-17,-1.));
#348=FACE_BOUND('',#349,.T.);
#349=EDGE_LOOP('',(#541,#542,#543,#544,#545,#546));
#350=PLANE('',#351);
#351=AXIS2_PLACEMENT_3D('',#352,#353,#354);
#352=CARTESIAN_POINT('',(0.,10.,6.12323399573677E-16));
#353=DIRECTION('',(0.,1.,6.12323399573677E-17));
#354=DIRECTION('',(6.12323399573677E-17,6.12323399573677E-17,-1.));
#355=ORIENTED_EDGE('',*,*,#547,.T.);
#356=ORIENTED_EDGE('',*,*,#548,.T.);
#357=ORIENTED_EDGE('',*,*,#549,.T.);
#358=ORIENTED_EDGE('',*,*,#550,.T.);
#359=ORIENTED_EDGE('',*,*,#551,.T.);
#360=ORIENTED_EDGE('',*,*,#552,.T.);
#361=ORIENTED_EDGE('',*,*,#553,.T.);
#362=ORIENTED_EDGE('',*,*,#554,.T.);
#363=ORIENTED_EDGE('',*,*,#555,.T.);
#364=ORIENTED_EDGE('',*,*,#556,.T.);
#365=ORIENTED_EDGE('',*,*,#557,.T.);
#366=ORIENTED_EDGE('',*,*,#558,.T.);
#367=ORIENTED_EDGE('',*,*,#559,.T.);
#368=ORIENTED_EDGE('',*,*,#560,.T.);
#369=ORIENTED_EDGE('',*,*,#561,.T.);
#370=ORIENTED_EDGE('',*,*,#562,.T.);
#371=ORIENTED_EDGE('',*,*,#563,.T.);
#372=ORIENTED_EDGE('',*,*,#564,.T.);
#373=ORIENTED_EDGE('',*,*,#565,.T.);
#374=ORIENTED_EDGE('',*,*,#566,.T.);
#375=ORIENTED_EDGE('',*,*,#567,.T.);
#376=ORIENTED_EDGE('',*,*,#568,.T.);
#377=ORIENTED_EDGE('',*,*,#569,.T.);
#378=ORIENTED_EDGE('',*,*,#570,.T.);
#379=ORIENTED_EDGE('',*,*,#571,.T.);
#380=ORIENTED_EDGE('',*,*,#572,.F.);
#381=ORIENTED_EDGE('',*,*,#573,.F.);
#382=ORIENTED_EDGE('',*,*,#574,.F.);
#383=ORIENTED_EDGE('',*,*,#547,.F.);
#384=ORIENTED_EDGE('',*,*,#572,.T.);
#385=ORIENTED_EDGE('',*,*,#575,.T.);
#386=ORIENTED_EDGE('',*,*,#576,.T.);
#387=ORIENTED_EDGE('',*,*,#548,.F.);
#388=ORIENTED_EDGE('',*,*,#577,.F.);
#389=ORIENTED_EDGE('',*,*,#578,.T.);
#390=ORIENTED_EDGE('',*,*,#579,.T.);
#391=ORIENTED_EDGE('',*,*,#549,.F.);
#392=ORIENTED_EDGE('',*,*,#576,.F.);
#393=ORIENTED_EDGE('',*,*,#580,.T.);
#394=ORIENTED_EDGE('',*,*,#581,.T.);
#395=ORIENTED_EDGE('',*,*,#582,.T.);
#396=ORIENTED_EDGE('',*,*,#550,.F.);
#397=ORIENTED_EDGE('',*,*,#579,.F.);
#398=ORIENTED_EDGE('',*,*,#583,.T.);
#399=ORIENTED_EDGE('',*,*,#584,.T.);
#400=ORIENTED_EDGE('',*,*,#551,.F.);
#401=ORIENTED_EDGE('',*,*,#582,.F.);
#402=ORIENTED_EDGE('',*,*,#585,.T.);
#403=ORIENTED_EDGE('',*,*,#586,.T.);
#404=ORIENTED_EDGE('',*,*,#552,.F.);
#405=ORIENTED_EDGE('',*,*,#584,.F.);
#406=ORIENTED_EDGE('',*,*,#587,.T.);
#407=ORIENTED_EDGE('',*,*,#588,.T.);
#408=ORIENTED_EDGE('',*,*,#589,.T.);
#409=ORIENTED_EDGE('',*,*,#553,.F.);
#410=ORIENTED_EDGE('',*,*,#586,.F.);
#411=ORIENTED_EDGE('',*,*,#590,.T.);
#412=ORIENTED_EDGE('',*,*,#591,.T.);
#413=ORIENTED_EDGE('',*,*,#554,.F.);
#414=ORIENTED_EDGE('',*,*,#589,.F.);
#415=ORIENTED_EDGE('',*,*,#592,.T.);
#416=ORIENTED_EDGE('',*,*,#593,.T.);
#417=ORIENTED_EDGE('',*,*,#555,.F.);
#418=ORIENTED_EDGE('',*,*,#591,.F.);
#419=ORIENTED_EDGE('',*,*,#594,.T.);
#420=ORIENTED_EDGE('',*,*,#595,.T.);
#421=ORIENTED_EDGE('',*,*,#596,.T.);
#422=ORIENTED_EDGE('',*,*,#556,.F.);
#423=ORIENTED_EDGE('',*,*,#593,.F.);
#424=ORIENTED_EDGE('',*,*,#597,.T.);
#425=ORIENTED_EDGE('',*,*,#598,.T.);
#426=ORIENTED_EDGE('',*,*,#557,.F.);
#427=ORIENTED_EDGE('',*,*,#596,.F.);
#428=ORIENTED_EDGE('',*,*,#599,.T.);
#429=ORIENTED_EDGE('',*,*,#600,.T.);
#430=ORIENTED_EDGE('',*,*,#558,.F.);
#431=ORIENTED_EDGE('',*,*,#598,.F.);
#432=ORIENTED_EDGE('',*,*,#601,.T.);
#433=ORIENTED_EDGE('',*,*,#602,.T.);
#434=ORIENTED_EDGE('',*,*,#603,.T.);
#435=ORIENTED_EDGE('',*,*,#559,.F.);
#436=ORIENTED_EDGE('',*,*,#600,.F.);
#437=ORIENTED_EDGE('',*,*,#604,.T.);
#438=ORIENTED_EDGE('',*,*,#605,.T.);
#439=ORIENTED_EDGE('',*,*,#560,.F.);
#440=ORIENTED_EDGE('',*,*,#603,.F.);
#441=ORIENTED_EDGE('',*,*,#606,.T.);
#442=ORIENTED_EDGE('',*,*,#607,.T.);
#443=ORIENTED_EDGE('',*,*,#561,.F.);
#444=ORIENTED_EDGE('',*,*,#605,.F.);
#445=ORIENTED_EDGE('',*,*,#608,.T.);
#446=ORIENTED_EDGE('',*,*,#609,.T.);
#447=ORIENTED_EDGE('',*,*,#610,.T.);
#448=ORIENTED_EDGE('',*,*,#562,.F.);
#449=ORIENTED_EDGE('',*,*,#607,.F.);
#450=ORIENTED_EDGE('',*,*,#611,.T.);
#451=ORIENTED_EDGE('',*,*,#612,.T.);
#452=ORIENTED_EDGE('',*,*,#563,.F.);
#453=ORIENTED_EDGE('',*,*,#610,.F.);
#454=ORIENTED_EDGE('',*,*,#613,.T.);
#455=ORIENTED_EDGE('',*,*,#614,.T.);
#456=ORIENTED_EDGE('',*,*,#564,.F.);
#457=ORIENTED_EDGE('',*,*,#612,.F.);
#458=ORIENTED_EDGE('',*,*,#615,.T.);
#459=ORIENTED_EDGE('',*,*,#616,.T.);
#460=ORIENTED_EDGE('',*,*,#617,.T.);
#461=ORIENTED_EDGE('',*,*,#565,.F.);
#462=ORIENTED_EDGE('',*,*,#614,.F.);
#463=ORIENTED_EDGE('',*,*,#618,.T.);
#464=ORIENTED_EDGE('',*,*,#619,.T.);
#465=ORIENTED_EDGE('',*,*,#566,.F.);
#466=ORIENTED_EDGE('',*,*,#617,.F.);
#467=ORIENTED_EDGE('',*,*,#620,.T.);
#468=ORIENTED_EDGE('',*,*,#621,.T.);
#469=ORIENTED_EDGE('',*,*,#567,.F.);
#470=ORIENTED_EDGE('',*,*,#619,.F.);
#471=ORIENTED_EDGE('',*,*,#622,.T.);
#472=ORIENTED_EDGE('',*,*,#623,.T.);
#473=ORIENTED_EDGE('',*,*,#624,.T.);
#474=ORIENTED_EDGE('',*,*,#568,.F.);
#475=ORIENTED_EDGE('',*,*,#621,.F.);
#476=ORIENTED_EDGE('',*,*,#625,.T.);
#477=ORIENTED_EDGE('',*,*,#626,.T.);
#478=ORIENTED_EDGE('',*,*,#569,.F.);
#479=ORIENTED_EDGE('',*,*,#624,.F.);
#480=ORIENTED_EDGE('',*,*,#627,.T.);
#481=ORIENTED_EDGE('',*,*,#628,.T.);
#482=ORIENTED_EDGE('',*,*,#570,.F.);
#483=ORIENTED_EDGE('',*,*,#626,.F.);
#484=ORIENTED_EDGE('',*,*,#629,.T.);
#485=ORIENTED_EDGE('',*,*,#630,.T.);
#486=ORIENTED_EDGE('',*,*,#577,.T.);
#487=ORIENTED_EDGE('',*,*,#571,.F.);
#488=ORIENTED_EDGE('',*,*,#628,.F.);
#489=ORIENTED_EDGE('',*,*,#631,.F.);
#490=ORIENTED_EDGE('',*,*,#632,.F.);
#491=ORIENTED_EDGE('',*,*,#573,.T.);
#492=ORIENTED_EDGE('',*,*,#633,.T.);
#493=ORIENTED_EDGE('',*,*,#634,.F.);
#494=ORIENTED_EDGE('',*,*,#635,.F.);
#495=ORIENTED_EDGE('',*,*,#636,.F.);
#496=ORIENTED_EDGE('',*,*,#637,.F.);
#497=ORIENTED_EDGE('',*,*,#638,.F.);
#498=ORIENTED_EDGE('',*,*,#639,.F.);
#499=ORIENTED_EDGE('',*,*,#640,.F.);
#500=ORIENTED_EDGE('',*,*,#641,.F.);
#501=ORIENTED_EDGE('',*,*,#642,.F.);
#502=ORIENTED_EDGE('',*,*,#633,.F.);
#503=ORIENTED_EDGE('',*,*,#574,.T.);
#504=ORIENTED_EDGE('',*,*,#632,.T.);
#505=ORIENTED_EDGE('',*,*,#638,.T.);
#506=ORIENTED_EDGE('',*,*,#580,.F.);
#507=ORIENTED_EDGE('',*,*,#575,.F.);
#508=ORIENTED_EDGE('',*,*,#630,.F.);
#509=ORIENTED_EDGE('',*,*,#578,.F.);
#510=ORIENTED_EDGE('',*,*,#637,.T.);
#511=ORIENTED_EDGE('',*,*,#587,.F.);
#512=ORIENTED_EDGE('',*,*,#585,.F.);
#513=ORIENTED_EDGE('',*,*,#583,.F.);
#514=ORIENTED_EDGE('',*,*,#581,.F.);
#515=ORIENTED_EDGE('',*,*,#636,.T.);
#516=ORIENTED_EDGE('',*,*,#594,.F.);
#517=ORIENTED_EDGE('',*,*,#590,.F.);
#518=ORIENTED_EDGE('',*,*,#588,.F.);
#519=ORIENTED_EDGE('',*,*,#592,.F.);
#520=ORIENTED_EDGE('',*,*,#635,.T.);
#521=ORIENTED_EDGE('',*,*,#601,.F.);
#522=ORIENTED_EDGE('',*,*,#599,.F.);
#523=ORIENTED_EDGE('',*,*,#597,.F.);
#524=ORIENTED_EDGE('',*,*,#595,.F.);
#525=ORIENTED_EDGE('',*,*,#642,.T.);
#526=ORIENTED_EDGE('',*,*,#608,.F.);
#527=ORIENTED_EDGE('',*,*,#604,.F.);
#528=ORIENTED_EDGE('',*,*,#602,.F.);
#529=ORIENTED_EDGE('',*,*,#634,.T.);
#530=ORIENTED_EDGE('',*,*,#606,.F.);
#531=ORIENTED_EDGE('',*,*,#641,.T.);
#532=ORIENTED_EDGE('',*,*,#615,.F.);
#533=ORIENTED_EDGE('',*,*,#613,.F.);
#534=ORIENTED_EDGE('',*,*,#611,.F.);
#535=ORIENTED_EDGE('',*,*,#609,.F.);
#536=ORIENTED_EDGE('',*,*,#640,.T.);
#537=ORIENTED_EDGE('',*,*,#631,.T.);
#538=ORIENTED_EDGE('',*,*,#622,.F.);
#539=ORIENTED_EDGE('',*,*,#618,.F.);
#540=ORIENTED_EDGE('',*,*,#616,.F.);
#541=ORIENTED_EDGE('',*,*,#620,.F.);
#542=ORIENTED_EDGE('',*,*,#639,.T.);
#543=ORIENTED_EDGE('',*,*,#629,.F.);
#544=ORIENTED_EDGE('',*,*,#627,.F.);
#545=ORIENTED_EDGE('',*,*,#625,.F.);
#546=ORIENTED_EDGE('',*,*,#623,.F.);
#547=EDGE_CURVE('',#643,#643,#644,.T.);
#548=EDGE_CURVE('',#645,#646,#647,.T.);
#549=EDGE_CURVE('',#646,#648,#649,.T.);
#550=EDGE_CURVE('',#648,#650,#651,.T.);
#551=EDGE_CURVE('',#650,#652,#653,.T.);
#552=EDGE_CURVE('',#652,#654,#655,.T.);
#553=EDGE_CURVE('',#654,#656,#657,.T.);
#554=EDGE_CURVE('',#656,#658,#659,.T.);
#555=EDGE_CURVE('',#658,#660,#661,.T.);
#556=EDGE_CURVE('',#660,#662,#663,.T.);
#557=EDGE_CURVE('',#662,#664,#665,.T.);
#558=EDGE_CURVE('',#664,#666,#667,.T.);
#559=EDGE_CURVE('',#666,#668,#669,.T.);
#560=EDGE_CURVE('',#668,#670,#671,.T.);
#561=EDGE_CURVE('',#670,#672,#673,.T.);
#562=EDGE_CURVE('',#672,#674,#675,.T.);
#563=EDGE_CURVE('',#674,#676,#677,.T.);
#564=EDGE_CURVE('',#676,#678,#679,.T.);
#565=EDGE_CURVE('',#678,#680,#681,.T.);
#566=EDGE_CURVE('',#680,#682,#683,.T.);
#567=EDGE_CURVE('',#682,#684,#685,.T.);
#568=EDGE_CURVE('',#684,#686,#687,.T.);
#569=EDGE_CURVE('',#686,#688,#689,.T.);
#570=EDGE_CURVE('',#688,#690,#691,.T.);
#571=EDGE_CURVE('',#690,#645,#692,.T.);
#572=EDGE_CURVE('',#693,#693,#694,.T.);
#573=EDGE_CURVE('',#695,#696,#697,.T.);
#574=EDGE_CURVE('',#696,#695,#698,.T.);
#575=EDGE_CURVE('',#699,#700,#701,.T.);
#576=EDGE_CURVE('',#700,#646,#702,.T.);
#577=EDGE_CURVE('',#699,#645,#703,.T.);
#578=EDGE_CURVE('',#704,#705,#706,.T.);
#579=EDGE_CURVE('',#705,#648,#707,.T.);
#580=EDGE_CURVE('',#700,#704,#708,.T.);
#581=EDGE_CURVE('',#705,#709,#710,.T.);
#582=EDGE_CURVE('',#709,#650,#711,.T.);
#583=EDGE_CURVE('',#709,#712,#713,.T.);
#584=EDGE_CURVE('',#712,#652,#714,.T.);
#585=EDGE_CURVE('',#712,#715,#716,.T.);
#586=EDGE_CURVE('',#715,#654,#717,.T.);
#587=EDGE_CURVE('',#715,#718,#719,.T.);
#588=EDGE_CURVE('',#718,#720,#721,.T.);
#589=EDGE_CURVE('',#720,#656,#722,.T.);
#590=EDGE_CURVE('',#720,#723,#724,.T.);
#591=EDGE_CURVE('',#723,#658,#725,.T.);
#592=EDGE_CURVE('',#726,#727,#728,.T.);
#593=EDGE_CURVE('',#727,#660,#729,.T.);
#594=EDGE_CURVE('',#723,#726,#730,.T.);
#595=EDGE_CURVE('',#727,#731,#732,.T.);
#596=EDGE_CURVE('',#731,#662,#733,.T.);
#597=EDGE_CURVE('',#731,#734,#735,.T.);
#598=EDGE_CURVE('',#734,#664,#736,.T.);
#599=EDGE_CURVE('',#734,#737,#738,.T.);
#600=EDGE_CURVE('',#737,#666,#739,.T.);
#601=EDGE_CURVE('',#737,#740,#741,.T.);
#602=EDGE_CURVE('',#740,#742,#743,.T.);
#603=EDGE_CURVE('',#742,#668,#744,.T.);
#604=EDGE_CURVE('',#742,#745,#746,.T.);
#605=EDGE_CURVE('',#745,#670,#747,.T.);
#606=EDGE_CURVE('',#748,#749,#750,.T.);
#607=EDGE_CURVE('',#749,#672,#751,.T.);
#608=EDGE_CURVE('',#745,#748,#752,.T.);
#609=EDGE_CURVE('',#749,#753,#754,.T.);
#610=EDGE_CURVE('',#753,#674,#755,.T.);
#611=EDGE_CURVE('',#753,#756,#757,.T.);
#612=EDGE_CURVE('',#756,#676,#758,.T.);
#613=EDGE_CURVE('',#756,#759,#760,.T.);
#614=EDGE_CURVE('',#759,#678,#761,.T.);
#615=EDGE_CURVE('',#759,#762,#763,.T.);
#616=EDGE_CURVE('',#762,#764,#765,.T.);
#617=EDGE_CURVE('',#764,#680,#766,.T.);
#618=EDGE_CURVE('',#764,#767,#768,.T.);
#619=EDGE_CURVE('',#767,#682,#769,.T.);
#620=EDGE_CURVE('',#770,#771,#772,.T.);
#621=EDGE_CURVE('',#771,#684,#773,.T.);
#622=EDGE_CURVE('',#767,#770,#774,.T.);
#623=EDGE_CURVE('',#771,#775,#776,.T.);
#624=EDGE_CURVE('',#775,#686,#777,.T.);
#625=EDGE_CURVE('',#775,#778,#779,.T.);
#626=EDGE_CURVE('',#778,#688,#780,.T.);
#627=EDGE_CURVE('',#778,#781,#782,.T.);
#628=EDGE_CURVE('',#781,#690,#783,.T.);
#629=EDGE_CURVE('',#781,#784,#785,.T.);
#630=EDGE_CURVE('',#784,#699,#786,.T.);
#631=EDGE_CURVE('',#787,#770,#788,.T.);
#632=EDGE_CURVE('',#695,#787,#789,.T.);
#633=EDGE_CURVE('',#696,#790,#791,.T.);
#634=EDGE_CURVE('',#740,#790,#792,.T.);
#635=EDGE_CURVE('',#726,#740,#793,.T.);
#636=EDGE_CURVE('',#718,#726,#794,.T.);
#637=EDGE_CURVE('',#704,#718,#795,.T.);
#638=EDGE_CURVE('',#784,#704,#796,.T.);
#639=EDGE_CURVE('',#770,#784,#797,.T.);
#640=EDGE_CURVE('',#762,#787,#798,.F.);
#641=EDGE_CURVE('',#748,#762,#799,.T.);
#642=EDGE_CURVE('',#790,#748,#800,.F.);
#643=VERTEX_POINT('',#801);
#644=CIRCLE('',#802,5.75);
#645=VERTEX_POINT('',#806);
#646=VERTEX_POINT('',#807);
#647=CIRCLE('',#808,0.35);
#648=VERTEX_POINT('',#812);
#649=LINE('',#813,#814);
#650=VERTEX_POINT('',#816);
#651=LINE('',#817,#818);
#652=VERTEX_POINT('',#820);
#653=CIRCLE('',#821,2.55);
#654=VERTEX_POINT('',#825);
#655=LINE('',#826,#827);
#656=VERTEX_POINT('',#829);
#657=LINE('',#830,#831);
#658=VERTEX_POINT('',#833);
#659=CIRCLE('',#834,0.35);
#660=VERTEX_POINT('',#838);
#661=LINE('',#839,#840);
#662=VERTEX_POINT('',#842);
#663=LINE('',#843,#844);
#664=VERTEX_POINT('',#846);
#665=CIRCLE('',#847,2.55);
#666=VERTEX_POINT('',#851);
#667=LINE('',#852,#853);
#668=VERTEX_POINT('',#855);
#669=LINE('',#856,#857);
#670=VERTEX_POINT('',#859);
#671=CIRCLE('',#860,0.35);
#672=VERTEX_POINT('',#864);
#673=LINE('',#865,#866);
#674=VERTEX_POINT('',#868);
#675=LINE('',#869,#870);
#676=VERTEX_POINT('',#872);
#677=CIRCLE('',#873,2.55);
#678=VERTEX_POINT('',#877);
#679=LINE('',#878,#879);
#680=VERTEX_POINT('',#881);
#681=LINE('',#882,#883);
#682=VERTEX_POINT('',#885);
#683=CIRCLE('',#886,0.35);
#684=VERTEX_POINT('',#890);
#685=LINE('',#891,#892);
#686=VERTEX_POINT('',#894);
#687=LINE('',#895,#896);
#688=VERTEX_POINT('',#898);
#689=CIRCLE('',#899,2.55);
#690=VERTEX_POINT('',#903);
#691=LINE('',#904,#905);
#692=LINE('',#907,#908);
#693=VERTEX_POINT('',#910);
#694=CIRCLE('',#911,5.75);
#695=VERTEX_POINT('',#915);
#696=VERTEX_POINT('',#916);
#697=CIRCLE('',#917,2.14);
#698=LINE('',#921,#922);
#699=VERTEX_POINT('',#924);
#700=VERTEX_POINT('',#925);
#701=CIRCLE('',#926,0.35);
#702=LINE('',#930,#931);
#703=LINE('',#933,#934);
#704=VERTEX_POINT('',#936);
#705=VERTEX_POINT('',#937);
#706=LINE('',#938,#939);
#707=LINE('',#941,#942);
#708=LINE('',#944,#945);
#709=VERTEX_POINT('',#947);
#710=LINE('',#948,#949);
#711=LINE('',#951,#952);
#712=VERTEX_POINT('',#954);
#713=CIRCLE('',#955,2.55);
#714=LINE('',#959,#960);
#715=VERTEX_POINT('',#962);
#716=LINE('',#963,#964);
#717=LINE('',#966,#967);
#718=VERTEX_POINT('',#969);
#719=LINE('',#970,#971);
#720=VERTEX_POINT('',#973);
#721=LINE('',#974,#975);
#722=LINE('',#977,#978);
#723=VERTEX_POINT('',#980);
#724=CIRCLE('',#981,0.35);
#725=LINE('',#985,#986);
#726=VERTEX_POINT('',#988);
#727=VERTEX_POINT('',#989);
#728=LINE('',#990,#991);
#729=LINE('',#993,#994);
#730=LINE('',#996,#997);
#731=VERTEX_POINT('',#999);
#732=LINE('',#1000,#1001);
#733=LINE('',#1003,#1004);
#734=VERTEX_POINT('',#1006);
#735=CIRCLE('',#1007,2.55);
#736=LINE('',#1011,#1012);
#737=VERTEX_POINT('',#1014);
#738=LINE('',#1015,#1016);
#739=LINE('',#1018,#1019);
#740=VERTEX_POINT('',#1021);
#741=LINE('',#1022,#1023);
#742=VERTEX_POINT('',#1025);
#743=LINE('',#1026,#1027);
#744=LINE('',#1029,#1030);
#745=VERTEX_POINT('',#1032);
#746=CIRCLE('',#1033,0.35);
#747=LINE('',#1037,#1038);
#748=VERTEX_POINT('',#1040);
#749=VERTEX_POINT('',#1041);
#750=LINE('',#1042,#1043);
#751=LINE('',#1045,#1046);
#752=LINE('',#1048,#1049);
#753=VERTEX_POINT('',#1051);
#754=LINE('',#1052,#1053);
#755=LINE('',#1055,#1056);
#756=VERTEX_POINT('',#1058);
#757=CIRCLE('',#1059,2.55);
#758=LINE('',#1063,#1064);
#759=VERTEX_POINT('',#1066);
#760=LINE('',#1067,#1068);
#761=LINE('',#1070,#1071);
#762=VERTEX_POINT('',#1073);
#763=LINE('',#1074,#1075);
#764=VERTEX_POINT('',#1077);
#765=LINE('',#1078,#1079);
#766=LINE('',#1081,#1082);
#767=VERTEX_POINT('',#1084);
#768=CIRCLE('',#1085,0.35);
#769=LINE('',#1089,#1090);
#770=VERTEX_POINT('',#1092);
#771=VERTEX_POINT('',#1093);
#772=LINE('',#1094,#1095);
#773=LINE('',#1097,#1098);
#774=LINE('',#1100,#1101);
#775=VERTEX_POINT('',#1103);
#776=LINE('',#1104,#1105);
#777=LINE('',#1107,#1108);
#778=VERTEX_POINT('',#1110);
#779=CIRCLE('',#1111,2.55);
#780=LINE('',#1115,#1116);
#781=VERTEX_POINT('',#1118);
#782=LINE('',#1119,#1120);
#783=LINE('',#1122,#1123);
#784=VERTEX_POINT('',#1125);
#785=LINE('',#1126,#1127);
#786=LINE('',#1129,#1130);
#787=VERTEX_POINT('',#1132);
#788=CIRCLE('',#1133,2.14);
#789=LINE('',#1137,#1138);
#790=VERTEX_POINT('',#1140);
#791=LINE('',#1141,#1142);
#792=CIRCLE('',#1144,2.14);
#793=CIRCLE('',#1148,2.14);
#794=CIRCLE('',#1152,2.14);
#795=CIRCLE('',#1156,2.14);
#796=CIRCLE('',#1160,2.14);
#797=CIRCLE('',#1164,2.14);
#798=LINE('',#1168,#1169);
#799=LINE('',#1171,#1172);
#800=LINE('',#1174,#1175);
#801=CARTESIAN_POINT('',(5.75,20.,1.92881870865708E-15));
#802=AXIS2_PLACEMENT_3D('',#803,#804,#805);
#803=CARTESIAN_POINT('',(0.,20.,1.22464679914735E-15));
#804=DIRECTION('',(0.,1.,6.12323399573677E-17));
#805=DIRECTION('',(1.,0.,0.));
#806=CARTESIAN_POINT('',(1.05,20.,-1.4));
#807=CARTESIAN_POINT('',(1.4,20.,-1.05));
#808=AXIS2_PLACEMENT_3D('',#809,#810,#811);
#809=CARTESIAN_POINT('',(1.4,20.,-1.4));
#810=DIRECTION('',(0.,1.,6.12323399573677E-17));
#811=DIRECTION('',(-1.,0.,0.));
#812=CARTESIAN_POINT('',(2.20342578948758,20.,-1.05));
#813=CARTESIAN_POINT('',(1.4,20.,-1.05));
#814=VECTOR('',#815,1.);
#815=DIRECTION('',(1.,0.,2.76372264657637E-16));
#816=CARTESIAN_POINT('',(2.37377302011579,20.,-0.931505045059007));
#817=CARTESIAN_POINT('',(2.20342578948758,20.,-1.05));
#818=VECTOR('',#819,1.);
#819=DIRECTION('',(0.820922069065186,0.,0.571040240720156));
#820=CARTESIAN_POINT('',(2.37377302011578,20.,0.931505045059011));
#821=AXIS2_PLACEMENT_3D('',#822,#823,#824);
#822=CARTESIAN_POINT('',(0.,20.,1.22464679914735E-15));
#823=DIRECTION('',(0.,-1.,-6.12323399573677E-17));
#824=DIRECTION('',(0.930891380437563,2.23679347415907E-17,-0.365296096101572));
#825=CARTESIAN_POINT('',(2.20342578948757,20.,1.05));
#826=CARTESIAN_POINT('',(2.37377302011578,20.,0.931505045059011));
#827=VECTOR('',#828,1.);
#828=DIRECTION('',(-0.820922069065189,0.,0.571040240720152));
#829=CARTESIAN_POINT('',(1.4,20.,1.05));
#830=CARTESIAN_POINT('',(2.20342578948757,20.,1.05));
#831=VECTOR('',#832,1.);
#832=DIRECTION('',(-1.,0.,-2.76372264657637E-16));
#833=CARTESIAN_POINT('',(1.05,20.,1.4));
#834=AXIS2_PLACEMENT_3D('',#835,#836,#837);
#835=CARTESIAN_POINT('',(1.4,20.,1.4));
#836=DIRECTION('',(0.,1.,6.12323399573677E-17));
#837=DIRECTION('',(0.,6.12323399573677E-17,-1.));
#838=CARTESIAN_POINT('',(1.05,20.,2.20342578948758));
#839=CARTESIAN_POINT('',(1.05,20.,1.4));
#840=VECTOR('',#841,1.);
#841=DIRECTION('',(0.,0.,1.));
#842=CARTESIAN_POINT('',(0.931505045059008,20.,2.37377302011579));
#843=CARTESIAN_POINT('',(1.05,20.,2.20342578948758));
#844=VECTOR('',#845,1.);
#845=DIRECTION('',(-0.571040240720155,0.,0.820922069065187));
#846=CARTESIAN_POINT('',(-0.931505045059009,20.,2.37377302011579));
#847=AXIS2_PLACEMENT_3D('',#848,#849,#850);
#848=CARTESIAN_POINT('',(0.,20.,1.22464679914735E-15));
#849=DIRECTION('',(2.73691106313441E-48,-1.,-6.12323399573677E-17));
#850=DIRECTION('',(0.365296096101572,-5.70006574703361E-17,0.930891380437563));
#851=CARTESIAN_POINT('',(-1.05,20.,2.20342578948758));
#852=CARTESIAN_POINT('',(-0.931505045059009,20.,2.37377302011579));
#853=VECTOR('',#854,1.);
#854=DIRECTION('',(-0.571040240720154,0.,-0.820922069065188));
#855=CARTESIAN_POINT('',(-1.05,20.,1.4));
#856=CARTESIAN_POINT('',(-1.05,20.,2.20342578948758));
#857=VECTOR('',#858,1.);
#858=DIRECTION('',(2.76372264657637E-16,0.,-1.));
#859=CARTESIAN_POINT('',(-1.4,20.,1.05));
#860=AXIS2_PLACEMENT_3D('',#861,#862,#863);
#861=CARTESIAN_POINT('',(-1.4,20.,1.4));
#862=DIRECTION('',(0.,1.,6.12323399573677E-17));
#863=DIRECTION('',(1.,0.,0.));
#864=CARTESIAN_POINT('',(-2.20342578948758,20.,1.05));
#865=CARTESIAN_POINT('',(-1.4,20.,1.05));
#866=VECTOR('',#867,1.);
#867=DIRECTION('',(-1.,0.,-2.76372264657637E-16));
#868=CARTESIAN_POINT('',(-2.37377302011578,20.,0.931505045059009));
#869=CARTESIAN_POINT('',(-2.20342578948758,20.,1.05));
#870=VECTOR('',#871,1.);
#871=DIRECTION('',(-0.820922069065183,0.,-0.571040240720161));
#872=CARTESIAN_POINT('',(-2.37377302011578,20.,-0.931505045059007));
#873=AXIS2_PLACEMENT_3D('',#874,#875,#876);
#874=CARTESIAN_POINT('',(0.,20.,1.22464679914735E-15));
#875=DIRECTION('',(0.,-1.,-6.12323399573677E-17));
#876=DIRECTION('',(-0.930891380437563,-2.23679347415907E-17,0.365296096101572));
#877=CARTESIAN_POINT('',(-2.20342578948758,20.,-1.05));
#878=CARTESIAN_POINT('',(-2.37377302011578,20.,-0.931505045059007));
#879=VECTOR('',#880,1.);
#880=DIRECTION('',(0.820922069065184,0.,-0.571040240720159));
#881=CARTESIAN_POINT('',(-1.4,20.,-1.05));
#882=CARTESIAN_POINT('',(-2.20342578948758,20.,-1.05));
#883=VECTOR('',#884,1.);
#884=DIRECTION('',(1.,0.,2.76372264657637E-16));
#885=CARTESIAN_POINT('',(-1.05,20.,-1.4));
#886=AXIS2_PLACEMENT_3D('',#887,#888,#889);
#887=CARTESIAN_POINT('',(-1.4,20.,-1.4));
#888=DIRECTION('',(0.,1.,6.12323399573677E-17));
#889=DIRECTION('',(0.,-6.12323399573677E-17,1.));
#890=CARTESIAN_POINT('',(-1.05,20.,-2.20342578948757));
#891=CARTESIAN_POINT('',(-1.05,20.,-1.4));
#892=VECTOR('',#893,1.);
#893=DIRECTION('',(5.52744529315274E-16,0.,-1.));
#894=CARTESIAN_POINT('',(-0.931505045059008,20.,-2.37377302011578));
#895=CARTESIAN_POINT('',(-1.05,20.,-2.20342578948757));
#896=VECTOR('',#897,1.);
#897=DIRECTION('',(0.571040240720155,0.,-0.820922069065187));
#898=CARTESIAN_POINT('',(0.93150504505901,20.,-2.37377302011578));
#899=AXIS2_PLACEMENT_3D('',#900,#901,#902);
#900=CARTESIAN_POINT('',(0.,20.,1.22464679914735E-15));
#901=DIRECTION('',(0.,-1.,-6.12323399573677E-17));
#902=DIRECTION('',(-0.365296096101572,5.70006574703361E-17,-0.930891380437563));
#903=CARTESIAN_POINT('',(1.05,20.,-2.20342578948757));
#904=CARTESIAN_POINT('',(0.93150504505901,20.,-2.37377302011578));
#905=VECTOR('',#906,1.);
#906=DIRECTION('',(0.571040240720155,0.,0.820922069065187));
#907=CARTESIAN_POINT('',(1.05,20.,-2.20342578948757));
#908=VECTOR('',#909,1.);
#909=DIRECTION('',(-5.52744529315275E-16,0.,1.));
#910=CARTESIAN_POINT('',(5.75,-4.31180937515284E-32,7.04171909509728E-16));
#911=AXIS2_PLACEMENT_3D('',#912,#913,#914);
#912=CARTESIAN_POINT('',(0.,0.,0.));
#913=DIRECTION('',(0.,1.,6.12323399573677E-17));
#914=DIRECTION('',(1.,0.,0.));
#915=CARTESIAN_POINT('',(-1.58999999999999,8.77034377052983E-17,-1.43230583326329));
#916=CARTESIAN_POINT('',(-1.58999999999999,-8.77034377052984E-17,1.43230583326329));
#917=AXIS2_PLACEMENT_3D('',#918,#919,#920);
#918=CARTESIAN_POINT('',(0.,0.,0.));
#919=DIRECTION('',(0.,-1.,-6.12323399573677E-17));
#920=DIRECTION('',(-0.742990654205603,4.09829148155599E-17,-0.669301791244525));
#921=CARTESIAN_POINT('',(-1.59,-8.77034377052986E-17,1.43230583326329));
#922=VECTOR('',#923,1.);
#923=DIRECTION('',(-4.65077917931402E-16,6.12323399573677E-17,-1.));
#924=CARTESIAN_POINT('',(1.05,10.,-1.4));
#925=CARTESIAN_POINT('',(1.4,10.,-1.05));
#926=AXIS2_PLACEMENT_3D('',#927,#928,#929);
#927=CARTESIAN_POINT('',(1.4,10.,-1.4));
#928=DIRECTION('',(0.,1.,6.12323399573677E-17));
#929=DIRECTION('',(-1.,0.,0.));
#930=CARTESIAN_POINT('',(1.4,10.,-1.05));
#931=VECTOR('',#932,1.);
#932=DIRECTION('',(0.,1.,4.44089209850063E-17));
#933=CARTESIAN_POINT('',(1.05,10.,-1.4));
#934=VECTOR('',#935,1.);
#935=DIRECTION('',(0.,1.,8.88178419700125E-17));
#936=CARTESIAN_POINT('',(1.86469836702883,10.,-1.05));
#937=CARTESIAN_POINT('',(2.20342578948758,10.,-1.05));
#938=CARTESIAN_POINT('',(1.86469836702883,10.,-1.05));
#939=VECTOR('',#940,1.);
#940=DIRECTION('',(1.,0.,0.));
#941=CARTESIAN_POINT('',(2.20342578948758,10.,-1.05));
#942=VECTOR('',#943,1.);
#943=DIRECTION('',(0.,1.,6.66133814775094E-17));
#944=CARTESIAN_POINT('',(1.4,10.,-1.05));
#945=VECTOR('',#946,1.);
#946=DIRECTION('',(1.,0.,4.7782523176212E-16));
#947=CARTESIAN_POINT('',(2.37377302011579,10.,-0.931505045059007));
#948=CARTESIAN_POINT('',(2.20342578948758,10.,-1.05));
#949=VECTOR('',#950,1.);
#950=DIRECTION('',(0.820922069065186,0.,0.571040240720156));
#951=CARTESIAN_POINT('',(2.37377302011579,10.,-0.931505045059007));
#952=VECTOR('',#953,1.);
#953=DIRECTION('',(-4.44089209850063E-17,1.,6.66133814775094E-17));
#954=CARTESIAN_POINT('',(2.37377302011578,10.,0.93150504505901));
#955=AXIS2_PLACEMENT_3D('',#956,#957,#958);
#956=CARTESIAN_POINT('',(0.,10.,6.12323399573677E-16));
#957=DIRECTION('',(3.08148791101958E-33,-1.,-6.12323399573676E-17));
#958=DIRECTION('',(0.930891380437563,2.23679347415907E-17,-0.365296096101572));
#959=CARTESIAN_POINT('',(2.37377302011578,10.,0.93150504505901));
#960=VECTOR('',#961,1.);
#961=DIRECTION('',(0.,1.,5.55111512312578E-17));
#962=CARTESIAN_POINT('',(2.20342578948757,10.,1.05));
#963=CARTESIAN_POINT('',(2.37377302011578,10.,0.93150504505901));
#964=VECTOR('',#965,1.);
#965=DIRECTION('',(-0.820922069065189,0.,0.571040240720152));
#966=CARTESIAN_POINT('',(2.20342578948757,10.,1.05));
#967=VECTOR('',#968,1.);
#968=DIRECTION('',(0.,1.,6.66133814775094E-17));
#969=CARTESIAN_POINT('',(1.86469836702883,10.,1.05));
#970=CARTESIAN_POINT('',(2.20342578948757,10.,1.05));
#971=VECTOR('',#972,1.);
#972=DIRECTION('',(-1.,0.,0.));
#973=CARTESIAN_POINT('',(1.4,10.,1.05));
#974=CARTESIAN_POINT('',(1.86469836702883,10.,1.05));
#975=VECTOR('',#976,1.);
#976=DIRECTION('',(-1.,0.,-4.7782523176212E-16));
#977=CARTESIAN_POINT('',(1.4,10.,1.05));
#978=VECTOR('',#979,1.);
#979=DIRECTION('',(0.,1.,8.88178419700125E-17));
#980=CARTESIAN_POINT('',(1.05,10.,1.4));
#981=AXIS2_PLACEMENT_3D('',#982,#983,#984);
#982=CARTESIAN_POINT('',(1.4,10.,1.4));
#983=DIRECTION('',(0.,1.,6.12323399573677E-17));
#984=DIRECTION('',(0.,6.12323399573677E-17,-1.));
#985=CARTESIAN_POINT('',(1.05,10.,1.4));
#986=VECTOR('',#987,1.);
#987=DIRECTION('',(0.,1.,8.88178419700125E-17));
#988=CARTESIAN_POINT('',(1.05,10.,1.86469836702883));
#989=CARTESIAN_POINT('',(1.05,10.,2.20342578948758));
#990=CARTESIAN_POINT('',(1.05,10.,1.86469836702883));
#991=VECTOR('',#992,1.);
#992=DIRECTION('',(0.,0.,1.));
#993=CARTESIAN_POINT('',(1.05,10.,2.20342578948758));
#994=VECTOR('',#995,1.);
#995=DIRECTION('',(0.,1.,8.88178419700125E-17));
#996=CARTESIAN_POINT('',(1.05,10.,1.4));
#997=VECTOR('',#998,1.);
#998=DIRECTION('',(-4.7782523176212E-16,0.,1.));
#999=CARTESIAN_POINT('',(0.931505045059008,10.,2.37377302011579));
#1000=CARTESIAN_POINT('',(1.05,10.,2.20342578948758));
#1001=VECTOR('',#1002,1.);
#1002=DIRECTION('',(-0.571040240720156,0.,0.820922069065186));
#1003=CARTESIAN_POINT('',(0.931505045059008,10.,2.37377302011579));
#1004=VECTOR('',#1005,1.);
#1005=DIRECTION('',(0.,1.,4.44089209850063E-17));
#1006=CARTESIAN_POINT('',(-0.931505045059009,10.,2.37377302011579));
#1007=AXIS2_PLACEMENT_3D('',#1008,#1009,#1010);
#1008=CARTESIAN_POINT('',(0.,10.,6.12323399573677E-16));
#1009=DIRECTION('',(0.,-1.,-6.12323399573676E-17));
#1010=DIRECTION('',(0.365296096101572,-5.70006574703361E-17,0.930891380437563));
#1011=CARTESIAN_POINT('',(-0.931505045059009,10.,2.37377302011578));
#1012=VECTOR('',#1013,1.);
#1013=DIRECTION('',(0.,1.,4.44089209850063E-17));
#1014=CARTESIAN_POINT('',(-1.05,10.,2.20342578948758));
#1015=CARTESIAN_POINT('',(-0.931505045059009,10.,2.37377302011579));
#1016=VECTOR('',#1017,1.);
#1017=DIRECTION('',(-0.571040240720154,0.,-0.820922069065187));
#1018=CARTESIAN_POINT('',(-1.05,10.,2.20342578948758));
#1019=VECTOR('',#1020,1.);
#1020=DIRECTION('',(0.,1.,8.88178419700125E-17));
#1021=CARTESIAN_POINT('',(-1.05,10.,1.86469836702883));
#1022=CARTESIAN_POINT('',(-1.05,10.,2.20342578948758));
#1023=VECTOR('',#1024,1.);
#1024=DIRECTION('',(6.55525919080487E-16,0.,-1.));
#1025=CARTESIAN_POINT('',(-1.05,10.,1.4));
#1026=CARTESIAN_POINT('',(-1.05,10.,1.86469836702883));
#1027=VECTOR('',#1028,1.);
#1028=DIRECTION('',(4.77825231762121E-16,0.,-1.));
#1029=CARTESIAN_POINT('',(-1.05,10.,1.4));
#1030=VECTOR('',#1031,1.);
#1031=DIRECTION('',(0.,1.,6.66133814775094E-17));
#1032=CARTESIAN_POINT('',(-1.4,10.,1.05));
#1033=AXIS2_PLACEMENT_3D('',#1034,#1035,#1036);
#1034=CARTESIAN_POINT('',(-1.4,10.,1.4));
#1035=DIRECTION('',(0.,1.,6.12323399573677E-17));
#1036=DIRECTION('',(1.,0.,0.));
#1037=CARTESIAN_POINT('',(-1.4,10.,1.05));
#1038=VECTOR('',#1039,1.);
#1039=DIRECTION('',(0.,1.,8.88178419700125E-17));
#1040=CARTESIAN_POINT('',(-1.59,10.,1.05));
#1041=CARTESIAN_POINT('',(-2.20342578948758,10.,1.05));
#1042=CARTESIAN_POINT('',(-1.59,10.,1.05));
#1043=VECTOR('',#1044,1.);
#1044=DIRECTION('',(-1.,0.,-3.61974681746777E-16));
#1045=CARTESIAN_POINT('',(-2.20342578948758,10.,1.05));
#1046=VECTOR('',#1047,1.);
#1047=DIRECTION('',(0.,1.,6.66133814775094E-17));
#1048=CARTESIAN_POINT('',(-1.4,10.,1.05));
#1049=VECTOR('',#1050,1.);
#1050=DIRECTION('',(-1.,0.,0.));
#1051=CARTESIAN_POINT('',(-2.37377302011578,10.,0.931505045059009));
#1052=CARTESIAN_POINT('',(-2.20342578948758,10.,1.05));
#1053=VECTOR('',#1054,1.);
#1054=DIRECTION('',(-0.820922069065183,0.,-0.57104024072016));
#1055=CARTESIAN_POINT('',(-2.37377302011578,10.,0.931505045059009));
#1056=VECTOR('',#1057,1.);
#1057=DIRECTION('',(0.,1.,5.55111512312578E-17));
#1058=CARTESIAN_POINT('',(-2.37377302011578,10.,-0.931505045059008));
#1059=AXIS2_PLACEMENT_3D('',#1060,#1061,#1062);
#1060=CARTESIAN_POINT('',(0.,10.,6.12323399573677E-16));
#1061=DIRECTION('',(3.08148791101958E-33,-1.,-6.12323399573677E-17));
#1062=DIRECTION('',(-0.930891380437563,-2.23679347415907E-17,0.365296096101572));
#1063=CARTESIAN_POINT('',(-2.37377302011578,10.,-0.931505045059008));
#1064=VECTOR('',#1065,1.);
#1065=DIRECTION('',(0.,1.,6.66133814775094E-17));
#1066=CARTESIAN_POINT('',(-2.20342578948758,10.,-1.05));
#1067=CARTESIAN_POINT('',(-2.37377302011578,10.,-0.931505045059007));
#1068=VECTOR('',#1069,1.);
#1069=DIRECTION('',(0.820922069065184,0.,-0.571040240720159));
#1070=CARTESIAN_POINT('',(-2.20342578948758,10.,-1.05));
#1071=VECTOR('',#1072,1.);
#1072=DIRECTION('',(0.,1.,6.66133814775094E-17));
#1073=CARTESIAN_POINT('',(-1.59,10.,-1.05));
#1074=CARTESIAN_POINT('',(-2.20342578948758,10.,-1.05));
#1075=VECTOR('',#1076,1.);
#1076=DIRECTION('',(1.,0.,7.23949363493555E-16));
#1077=CARTESIAN_POINT('',(-1.4,10.,-1.05));
#1078=CARTESIAN_POINT('',(-1.59,10.,-1.05));
#1079=VECTOR('',#1080,1.);
#1080=DIRECTION('',(1.,0.,0.));
#1081=CARTESIAN_POINT('',(-1.4,10.,-1.05));
#1082=VECTOR('',#1083,1.);
#1083=DIRECTION('',(0.,1.,4.44089209850063E-17));
#1084=CARTESIAN_POINT('',(-1.05,10.,-1.4));
#1085=AXIS2_PLACEMENT_3D('',#1086,#1087,#1088);
#1086=CARTESIAN_POINT('',(-1.4,10.,-1.4));
#1087=DIRECTION('',(0.,1.,6.12323399573677E-17));
#1088=DIRECTION('',(0.,-6.12323399573677E-17,1.));
#1089=CARTESIAN_POINT('',(-1.05,10.,-1.4));
#1090=VECTOR('',#1091,1.);
#1091=DIRECTION('',(0.,1.,4.44089209850063E-17));
#1092=CARTESIAN_POINT('',(-1.05,10.,-1.86469836702883));
#1093=CARTESIAN_POINT('',(-1.05,10.,-2.20342578948758));
#1094=CARTESIAN_POINT('',(-1.05,10.,-1.86469836702883));
#1095=VECTOR('',#1096,1.);
#1096=DIRECTION('',(0.,0.,-1.));
#1097=CARTESIAN_POINT('',(-1.05,10.,-2.20342578948758));
#1098=VECTOR('',#1099,1.);
#1099=DIRECTION('',(0.,1.,8.88178419700125E-17));
#1100=CARTESIAN_POINT('',(-1.05,10.,-1.4));
#1101=VECTOR('',#1102,1.);
#1102=DIRECTION('',(9.5565046352424E-16,0.,-1.));
#1103=CARTESIAN_POINT('',(-0.931505045059008,10.,-2.37377302011579));
#1104=CARTESIAN_POINT('',(-1.05,10.,-2.20342578948758));
#1105=VECTOR('',#1106,1.);
#1106=DIRECTION('',(0.571040240720155,0.,-0.820922069065187));
#1107=CARTESIAN_POINT('',(-0.931505045059008,10.,-2.37377302011579));
#1108=VECTOR('',#1109,1.);
#1109=DIRECTION('',(1.11022302462516E-17,1.,8.88178419700125E-17));
#1110=CARTESIAN_POINT('',(0.93150504505901,10.,-2.37377302011578));
#1111=AXIS2_PLACEMENT_3D('',#1112,#1113,#1114);
#1112=CARTESIAN_POINT('',(0.,10.,6.12323399573677E-16));
#1113=DIRECTION('',(0.,-1.,-6.12323399573677E-17));
#1114=DIRECTION('',(-0.365296096101572,5.70006574703361E-17,-0.930891380437563));
#1115=CARTESIAN_POINT('',(0.931505045059009,10.,-2.37377302011578));
#1116=VECTOR('',#1117,1.);
#1117=DIRECTION('',(0.,1.,8.88178419700125E-17));
#1118=CARTESIAN_POINT('',(1.05,10.,-2.20342578948758));
#1119=CARTESIAN_POINT('',(0.93150504505901,10.,-2.37377302011578));
#1120=VECTOR('',#1121,1.);
#1121=DIRECTION('',(0.571040240720155,0.,0.820922069065187));
#1122=CARTESIAN_POINT('',(1.05,10.,-2.20342578948758));
#1123=VECTOR('',#1124,1.);
#1124=DIRECTION('',(0.,1.,8.88178419700125E-17));
#1125=CARTESIAN_POINT('',(1.05,10.,-1.86469836702883));
#1126=CARTESIAN_POINT('',(1.05,10.,-2.20342578948757));
#1127=VECTOR('',#1128,1.);
#1128=DIRECTION('',(0.,0.,1.));
#1129=CARTESIAN_POINT('',(1.05,10.,-1.86469836702883));
#1130=VECTOR('',#1131,1.);
#1131=DIRECTION('',(-4.7782523176212E-16,0.,1.));
#1132=CARTESIAN_POINT('',(-1.58999999999999,10.,-1.43230583326329));
#1133=AXIS2_PLACEMENT_3D('',#1134,#1135,#1136);
#1134=CARTESIAN_POINT('',(0.,10.,6.12323399573677E-16));
#1135=DIRECTION('',(0.,-1.,-6.12323399573677E-17));
#1136=DIRECTION('',(-0.742990654205603,4.09829148155599E-17,-0.669301791244525));
#1137=CARTESIAN_POINT('',(-1.58999999999999,8.77034377052983E-17,-1.43230583326329));
#1138=VECTOR('',#1139,1.);
#1139=DIRECTION('',(0.,1.,6.66133814775094E-17));
#1140=CARTESIAN_POINT('',(-1.58999999999999,10.,1.43230583326329));
#1141=CARTESIAN_POINT('',(-1.58999999999999,-8.77034377052984E-17,1.43230583326329));
#1142=VECTOR('',#1143,1.);
#1143=DIRECTION('',(0.,1.,4.44089209850063E-17));
#1144=AXIS2_PLACEMENT_3D('',#1145,#1146,#1147);
#1145=CARTESIAN_POINT('',(0.,10.,6.12323399573677E-16));
#1146=DIRECTION('',(0.,-1.,-6.12323399573677E-17));
#1147=DIRECTION('',(-0.490654205607477,-5.33550674429242E-17,0.871354377116278));
#1148=AXIS2_PLACEMENT_3D('',#1149,#1150,#1151);
#1149=CARTESIAN_POINT('',(0.,10.,6.12323399573677E-16));
#1150=DIRECTION('',(0.,-1.,-6.12323399573677E-17));
#1151=DIRECTION('',(0.490654205607477,-5.33550674429242E-17,0.871354377116277));
#1152=AXIS2_PLACEMENT_3D('',#1153,#1154,#1155);
#1153=CARTESIAN_POINT('',(0.,10.,6.12323399573677E-16));
#1154=DIRECTION('',(0.,-1.,-6.12323399573677E-17));
#1155=DIRECTION('',(0.871354377116278,-3.00439051192692E-17,0.490654205607477));
#1156=AXIS2_PLACEMENT_3D('',#1157,#1158,#1159);
#1157=CARTESIAN_POINT('',(0.,10.,6.12323399573677E-16));
#1158=DIRECTION('',(0.,-1.,-6.12323399573677E-17));
#1159=DIRECTION('',(0.871354377116277,3.00439051192692E-17,-0.490654205607478));
#1160=AXIS2_PLACEMENT_3D('',#1161,#1162,#1163);
#1161=CARTESIAN_POINT('',(0.,10.,6.12323399573677E-16));
#1162=DIRECTION('',(0.,-1.,-6.12323399573677E-17));
#1163=DIRECTION('',(0.490654205607477,5.33550674429242E-17,-0.871354377116278));
#1164=AXIS2_PLACEMENT_3D('',#1165,#1166,#1167);
#1165=CARTESIAN_POINT('',(0.,10.,6.12323399573677E-16));
#1166=DIRECTION('',(0.,-1.,-6.12323399573677E-17));
#1167=DIRECTION('',(-0.490654205607477,5.33550674429243E-17,-0.871354377116278));
#1168=CARTESIAN_POINT('',(-1.59,10.,-1.43230583326329));
#1169=VECTOR('',#1170,1.);
#1170=DIRECTION('',(5.80803601738692E-16,0.,1.));
#1171=CARTESIAN_POINT('',(-1.59,10.,1.05));
#1172=VECTOR('',#1173,1.);
#1173=DIRECTION('',(-4.22942104619108E-16,0.,-1.));
#1174=CARTESIAN_POINT('',(-1.59,10.,1.05));
#1175=VECTOR('',#1176,1.);
#1176=DIRECTION('',(1.16160720347738E-15,0.,1.));
ENDSEC;
END-ISO-10303-21;
