ISO-10303-21;
HEADER;
FILE_DESCRIPTION(('STEP AP242'),
    '1');
FILE_NAME('Ронити МД - Кулачок',
    '',
    ('UNSPECIFIED'),
    ('UNSPECIFIED'),
    'C3D Converter',
    'C3D Toolkit',
    '');
FILE_SCHEMA(('AP242_MANAGED_MODEL_BASED_3D_ENGINEERING_MIM_LF { 1 0 10303 442 1 1 4 }'));
ENDSEC;

DATA;
#1=PRODUCT_DEFINITION('','UNSPECIFIED',#28,#31);
#2=SHAPE_DEFINITION_REPRESENTATION(#26,#3);
#3=SHAPE_REPRESENTATION('NONE',(#4),#8);
#4=AXIS2_PLACEMENT_3D('',#5,#6,#7);
#5=CARTESIAN_POINT('',(0.,0.,0.));
#6=DIRECTION('',(0.,0.,1.));
#7=DIRECTION('',(1.,0.,0.));
#8=(GEOMETRIC_REPRESENTATION_CONTEXT(3)GLOBAL_UNCERTAINTY_ASSIGNED_CONTEXT((#10))
GLOBAL_UNIT_ASSIGNED_CONTEXT((#9,#11,#12))REPRESENTATION_CONTEXT('NONE','NONE'));
#9=(LENGTH_UNIT()NAMED_UNIT(*)SI_UNIT(.MILLI.,.METRE.));
#10=UNCERTAINTY_MEASURE_WITH_UNIT(LENGTH_MEASURE(1.E-5),#9,'NONE','NONE');
#11=(NAMED_UNIT(*)PLANE_ANGLE_UNIT()SI_UNIT($,.RADIAN.));
#12=(NAMED_UNIT(*)SI_UNIT($,.STERADIAN.)SOLID_ANGLE_UNIT());
#13=MANIFOLD_SOLID_BREP('',#14);
#14=CLOSED_SHELL('',(#53,#54,#55,#56,#57,#58,#59,#60,#61,#62,#63,#64,#65,#66,#67,
#68,#69,#70,#71,#72,#73,#74,#75,#76,#77,#78));
#15=COLOUR_RGB('',1.,0.6,0.6);
#16=FILL_AREA_STYLE_COLOUR('',#15);
#17=FILL_AREA_STYLE($,(#16));
#18=SURFACE_STYLE_FILL_AREA(#17);
#19=SURFACE_SIDE_STYLE('',(#18));
#20=SURFACE_STYLE_USAGE(.BOTH.,#19);
#21=PRESENTATION_STYLE_ASSIGNMENT((#20));
#22=MECHANICAL_DESIGN_GEOMETRIC_PRESENTATION_REPRESENTATION('NONE',(#23),#8);
#23=STYLED_ITEM('',(#21),#13);
#24=ADVANCED_BREP_SHAPE_REPRESENTATION('NONE',(#13),#8);
#25=SHAPE_REPRESENTATION_RELATIONSHIP('','',#3,#24);
#26=PRODUCT_DEFINITION_SHAPE('NONE','NONE',#1);
#27=MECHANICAL_CONTEXT('NONE',#32,'mechanical');
#28=PRODUCT_DEFINITION_FORMATION_WITH_SPECIFIED_SOURCE('ANY','UNSPECIFIED',#29,.NOT_KNOWN.);
#29=PRODUCT('\X2\0420043E043D043804420438\X0\ \X2\041C0414\X0\','\X2\041A0443043B04300447043E043A\X0\',
'NONE',(#27));
#30=PRODUCT_RELATED_PRODUCT_CATEGORY('detail','',(#29));
#31=DESIGN_CONTEXT('detailed design',#32,'design');
#32=APPLICATION_CONTEXT('configuration controlled 3d designs of mechanical parts and assemblies');
#33=APPLICATION_PROTOCOL_DEFINITION('international standard','config_control_design',
1994,#32);
#34=CC_DESIGN_DATE_AND_TIME_ASSIGNMENT(#35,#39,(#1));
#35=DATE_AND_TIME(#36,#37);
#36=CALENDAR_DATE(0,1,1);
#37=LOCAL_TIME(0,0,0.,#38);
#38=COORDINATED_UNIVERSAL_TIME_OFFSET(0,0,.AHEAD.);
#39=DATE_TIME_ROLE('creation_date');
#40=CC_DESIGN_APPROVAL(#41,(#1));
#41=APPROVAL(#42,'UNSPECIFIED');
#42=APPROVAL_STATUS('not_yet_approved');
#43=APPROVAL_DATE_TIME(#44,#41);
#44=DATE_AND_TIME(#45,#46);
#45=CALENDAR_DATE(0,1,1);
#46=LOCAL_TIME(0,0,0.,#47);
#47=COORDINATED_UNIVERSAL_TIME_OFFSET(0,0,.AHEAD.);
#48=PERSON('UNSPECIFIED','io','UNSPECIFIED',('UNSPECIFIED'),('UNSPECIFIED'),('UNSPECIFIED'));
#49=ORGANIZATION('UNSPECIFIED','UNSPECIFIED','UNSPECIFIED');
#50=PERSON_AND_ORGANIZATION(#48,#49);
#51=PERSON_AND_ORGANIZATION_ROLE('creator');
#52=CC_DESIGN_PERSON_AND_ORGANIZATION_ASSIGNMENT(#50,#51,(#28,#1));
#53=ADVANCED_FACE('',(#79,#81),#83,.T.);
#54=ADVANCED_FACE('',(#88,#90,#92),#94,.F.);
#55=ADVANCED_FACE('',(#99,#101),#103,.F.);
#56=ADVANCED_FACE('',(#108,#110),#112,.T.);
#57=ADVANCED_FACE('',(#117),#119,.F.);
#58=ADVANCED_FACE('',(#124),#126,.T.);
#59=ADVANCED_FACE('',(#131),#133,.T.);
#60=ADVANCED_FACE('',(#138),#140,.T.);
#61=ADVANCED_FACE('',(#145,#147),#149,.T.);
#62=ADVANCED_FACE('',(#154),#156,.T.);
#63=ADVANCED_FACE('',(#161),#163,.T.);
#64=ADVANCED_FACE('',(#168),#170,.T.);
#65=ADVANCED_FACE('',(#175),#177,.T.);
#66=ADVANCED_FACE('',(#182),#184,.T.);
#67=ADVANCED_FACE('',(#189,#191),#193,.F.);
#68=ADVANCED_FACE('',(#198),#200,.T.);
#69=ADVANCED_FACE('',(#205),#207,.F.);
#70=ADVANCED_FACE('',(#212),#214,.F.);
#71=ADVANCED_FACE('',(#219,#221),#223,.T.);
#72=ADVANCED_FACE('',(#228),#230,.F.);
#73=ADVANCED_FACE('',(#235),#237,.F.);
#74=ADVANCED_FACE('',(#250),#252,.F.);
#75=ADVANCED_FACE('',(#257),#259,.F.);
#76=ADVANCED_FACE('',(#264),#266,.T.);
#77=ADVANCED_FACE('',(#271),#273,.F.);
#78=ADVANCED_FACE('',(#278),#280,.T.);
#79=FACE_BOUND('',#80,.T.);
#80=EDGE_LOOP('',(#285));
#81=FACE_BOUND('',#82,.T.);
#82=EDGE_LOOP('',(#286));
#83=PLANE('',#84);
#84=AXIS2_PLACEMENT_3D('',#85,#86,#87);
#85=CARTESIAN_POINT('',(0.,12.,7.34788079488412E-16));
#86=DIRECTION('',(0.,1.,6.12323399573677E-17));
#87=DIRECTION('',(-1.,7.49879891330929E-33,-1.22464679914735E-16));
#88=FACE_BOUND('',#89,.T.);
#89=EDGE_LOOP('',(#287,#288,#289,#290,#291,#292,#293,#294,#295,#296,#297,#298));
#90=FACE_BOUND('',#91,.T.);
#91=EDGE_LOOP('',(#299));
#92=FACE_BOUND('',#93,.T.);
#93=EDGE_LOOP('',(#300));
#94=PLANE('',#95);
#95=AXIS2_PLACEMENT_3D('',#96,#97,#98);
#96=CARTESIAN_POINT('',(0.,0.,0.));
#97=DIRECTION('',(0.,1.,6.12323399573677E-17));
#98=DIRECTION('',(6.12323399573677E-17,6.12323399573677E-17,-1.));
#99=FACE_OUTER_BOUND('',#100,.T.);
#100=EDGE_LOOP('',(#301));
#101=FACE_OUTER_BOUND('',#102,.T.);
#102=EDGE_LOOP('',(#302));
#103=CYLINDRICAL_SURFACE('',#104,1.6);
#104=AXIS2_PLACEMENT_3D('',#105,#106,#107);
#105=CARTESIAN_POINT('',(0.,0.,0.));
#106=DIRECTION('',(0.,1.,6.12323399573676E-17));
#107=DIRECTION('',(1.,0.,0.));
#108=FACE_BOUND('',#109,.T.);
#109=EDGE_LOOP('',(#303,#304,#305,#306,#307,#308,#309,#310,#311,#312,#313,#314,#315,
#316));
#110=FACE_OUTER_BOUND('',#111,.T.);
#111=EDGE_LOOP('',(#317));
#112=CYLINDRICAL_SURFACE('',#113,3.5);
#113=AXIS2_PLACEMENT_3D('',#114,#115,#116);
#114=CARTESIAN_POINT('',(0.,0.,0.));
#115=DIRECTION('',(0.,1.,6.12323399573677E-17));
#116=DIRECTION('',(0.999478128694177,1.97797543799923E-18,-0.0323027903127068));
#117=FACE_BOUND('',#118,.T.);
#118=EDGE_LOOP('',(#318,#319,#320,#321,#322));
#119=PLANE('',#120);
#120=AXIS2_PLACEMENT_3D('',#121,#122,#123);
#121=CARTESIAN_POINT('',(3.16112223770586,-8.,1.50243342580682));
#122=DIRECTION('',(-1.,2.19086681795552E-32,-4.93339349248143E-16));
#123=DIRECTION('',(-4.93339349248143E-16,0.,1.));
#124=FACE_BOUND('',#125,.T.);
#125=EDGE_LOOP('',(#323,#324,#325,#326));
#126=CYLINDRICAL_SURFACE('',#127,1.);
#127=AXIS2_PLACEMENT_3D('',#128,#129,#130);
#128=CARTESIAN_POINT('',(2.49817345042962,5.99999999999999,2.34357919203194));
#129=DIRECTION('',(0.,1.,0.));
#130=DIRECTION('',(0.0645718648268096,0.,0.997913059476019));
#131=FACE_BOUND('',#132,.T.);
#132=EDGE_LOOP('',(#327,#328,#329,#330));
#133=PLANE('',#134);
#134=AXIS2_PLACEMENT_3D('',#135,#136,#137);
#135=CARTESIAN_POINT('',(-9.77399847310616,-2.53487482579305E-16,4.13976475104157));
#136=DIRECTION('',(0.0645718648268108,-4.81482486096809E-35,0.997913059476019));
#137=DIRECTION('',(0.997913059476019,3.95388637875647E-18,-0.0645718648268108));
#138=FACE_BOUND('',#139,.T.);
#139=EDGE_LOOP('',(#331,#332,#333,#334));
#140=CYLINDRICAL_SURFACE('',#141,1.);
#141=AXIS2_PLACEMENT_3D('',#142,#143,#144);
#142=CARTESIAN_POINT('',(1.42425181216904,1.,-4.62209424123947));
#143=DIRECTION('',(4.20497328321742E-17,5.25621660402178E-17,-1.));
#144=DIRECTION('',(0.864820506260431,-0.502081160721504,9.97499790052781E-18));
#145=FACE_BOUND('',#146,.T.);
#146=EDGE_LOOP('',(#335,#336,#337,#338,#339,#340));
#147=FACE_BOUND('',#148,.T.);
#148=EDGE_LOOP('',(#341,#342));
#149=PLANE('',#150);
#150=AXIS2_PLACEMENT_3D('',#151,#152,#153);
#151=CARTESIAN_POINT('',(-3.49817345042959,-7.65404249467096E-16,12.5));
#152=DIRECTION('',(0.,0.,1.));
#153=DIRECTION('',(1.,0.,0.));
#154=FACE_BOUND('',#155,.T.);
#155=EDGE_LOOP('',(#343,#344,#345,#346));
#156=CYLINDRICAL_SURFACE('',#157,1.);
#157=AXIS2_PLACEMENT_3D('',#158,#159,#160);
#158=CARTESIAN_POINT('',(-1.42425181216904,0.999999999999999,16.5));
#159=DIRECTION('',(2.63347084375502E-17,-5.9253093984488E-17,1.));
#160=DIRECTION('',(-0.864820506260432,-0.502081160721502,-6.97506632088893E-18));
#161=FACE_BOUND('',#162,.T.);
#162=EDGE_LOOP('',(#347,#348,#349,#350,#351));
#163=PLANE('',#164);
#164=AXIS2_PLACEMENT_3D('',#165,#166,#167);
#165=CARTESIAN_POINT('',(-9.77399847310616,-2.53487482579305E-16,4.13976475104157));
#166=DIRECTION('',(0.0645718648268108,-4.81482486096809E-35,0.997913059476019));
#167=DIRECTION('',(0.997913059476019,3.95388637875647E-18,-0.0645718648268108));
#168=FACE_BOUND('',#169,.T.);
#169=EDGE_LOOP('',(#352,#353,#354,#355));
#170=CYLINDRICAL_SURFACE('',#171,3.5);
#171=AXIS2_PLACEMENT_3D('',#172,#173,#174);
#172=CARTESIAN_POINT('',(-10.,-3.96215516092411E-17,0.6470690428755));
#173=DIRECTION('',(0.,1.,6.12323399573677E-17));
#174=DIRECTION('',(-0.064571864826811,6.11045517057324E-17,-0.997913059476019));
#175=FACE_BOUND('',#176,.T.);
#176=EDGE_LOOP('',(#356,#357,#358,#359));
#177=PLANE('',#178);
#178=AXIS2_PLACEMENT_3D('',#179,#180,#181);
#179=CARTESIAN_POINT('',(-0.226001526893839,2.13865930970064E-16,-3.49269570816607));
#180=DIRECTION('',(-0.0645718648268109,0.,-0.997913059476019));
#181=DIRECTION('',(-0.997913059476019,-3.95388637875648E-18,0.0645718648268109));
#182=FACE_BOUND('',#183,.T.);
#183=EDGE_LOOP('',(#360,#361,#362,#363));
#184=PLANE('',#185);
#185=AXIS2_PLACEMENT_3D('',#186,#187,#188);
#186=CARTESIAN_POINT('',(3.49817345042962,-7.65404249467096E-16,12.5));
#187=DIRECTION('',(1.,0.,7.04173639205015E-17));
#188=DIRECTION('',(7.04173639205015E-17,6.12323399573677E-17,-1.));
#189=FACE_OUTER_BOUND('',#190,.T.);
#190=EDGE_LOOP('',(#364));
#191=FACE_OUTER_BOUND('',#192,.T.);
#192=EDGE_LOOP('',(#365));
#193=CYLINDRICAL_SURFACE('',#194,1.5);
#194=AXIS2_PLACEMENT_3D('',#195,#196,#197);
#195=CARTESIAN_POINT('',(-10.,-3.96215516092411E-17,0.6470690428755));
#196=DIRECTION('',(0.,1.,6.12323399573677E-17));
#197=DIRECTION('',(6.12323399573676E-17,6.12323399573676E-17,-1.));
#198=FACE_BOUND('',#199,.T.);
#199=EDGE_LOOP('',(#366,#367,#368,#369,#370,#371,#372,#373,#374,#375));
#200=CYLINDRICAL_SURFACE('',#201,3.4981734504296);
#201=AXIS2_PLACEMENT_3D('',#202,#203,#204);
#202=CARTESIAN_POINT('',(1.37667655053519E-14,3.4981734504296,2.5));
#203=DIRECTION('',(0.,0.,1.));
#204=DIRECTION('',(1.,0.,0.));
#205=FACE_BOUND('',#206,.T.);
#206=EDGE_LOOP('',(#376,#377));
#207=PLANE('',#208);
#208=AXIS2_PLACEMENT_3D('',#209,#210,#211);
#209=CARTESIAN_POINT('',(3.16112223770586,2.,0.5));
#210=DIRECTION('',(0.,0.,1.));
#211=DIRECTION('',(0.428273060687032,0.903649370878861,0.));
#212=FACE_BOUND('',#213,.T.);
#213=EDGE_LOOP('',(#378,#379));
#214=PLANE('',#215);
#215=AXIS2_PLACEMENT_3D('',#216,#217,#218);
#216=CARTESIAN_POINT('',(0.,2.,1.22464679914735E-16));
#217=DIRECTION('',(0.,1.,6.12323399573677E-17));
#218=DIRECTION('',(-1.,7.49879891330929E-33,-1.22464679914735E-16));
#219=FACE_BOUND('',#220,.T.);
#220=EDGE_LOOP('',(#380,#381,#382,#383,#384,#385));
#221=FACE_BOUND('',#222,.T.);
#222=EDGE_LOOP('',(#386));
#223=PLANE('',#224);
#224=AXIS2_PLACEMENT_3D('',#225,#226,#227);
#225=CARTESIAN_POINT('',(0.,2.,1.22464679914735E-16));
#226=DIRECTION('',(0.,1.,6.12323399573677E-17));
#227=DIRECTION('',(6.12323399573677E-17,6.12323399573677E-17,-1.));
#228=FACE_BOUND('',#229,.T.);
#229=EDGE_LOOP('',(#387,#388));
#230=PLANE('',#231);
#231=AXIS2_PLACEMENT_3D('',#232,#233,#234);
#232=CARTESIAN_POINT('',(-3.16112223770583,2.,0.5));
#233=DIRECTION('',(0.,0.,1.));
#234=DIRECTION('',(1.,0.,0.));
#235=FACE_BOUND('',#236,.T.);
#236=EDGE_LOOP('',(#389,#390,#391));
#237=(BOUNDED_SURFACE()B_SPLINE_SURFACE(3,2,(
(#238,#239,#240),
(#241,#242,#243),
(#244,#245,#246),
(#247,#248,#249)),
.UNSPECIFIED.,.F.,.F.,.F.)B_SPLINE_SURFACE_WITH_KNOTS((4,4),
(3,3),
(-7.84190843335549E-6,1.00000848024464),
(0.,1.),
.UNSPECIFIED.)GEOMETRIC_REPRESENTATION_ITEM()RATIONAL_B_SPLINE_SURFACE((
(1.,0.911853464020742,1.),
(1.,0.857088467655688,1.),
(1.,0.797818102758208,1.),
(1.,0.729577545722222,1.)))REPRESENTATION_ITEM('')SURFACE());
#238=CARTESIAN_POINT('',(3.49817345042962,2.36023840823375,2.64647503423887));
#239=CARTESIAN_POINT('',(3.49817345042962,2.143617600693,3.04113297470043));
#240=CARTESIAN_POINT('',(3.16112693012287,2.00000808255475,3.30277282962737));
#241=CARTESIAN_POINT('',(3.49817345042962,1.89129682091746,2.40453734828614));
#242=CARTESIAN_POINT('',(3.49817345042962,1.69821509428371,2.99986638546934));
#243=CARTESIAN_POINT('',(2.96166470037316,1.65644007003643,3.31567941303676));
#244=CARTESIAN_POINT('',(3.49817345042962,1.4293981841419,2.35008014750818));
#245=CARTESIAN_POINT('',(3.49817345042962,1.29116011811843,3.11322292935099));
#246=CARTESIAN_POINT('',(2.76220247062345,1.31287205751811,3.32858599644616));
#247=CARTESIAN_POINT('',(3.49817345042962,0.969301086676341,2.34357919204927));
#248=CARTESIAN_POINT('',(3.49817345042962,0.969303865575209,3.28096836928439));
#249=CARTESIAN_POINT('',(2.56274024087374,0.96930404499979,3.34149257985556));
#250=FACE_BOUND('',#251,.T.);
#251=EDGE_LOOP('',(#392,#393,#394,#395,#396));
#252=PLANE('',#253);
#253=AXIS2_PLACEMENT_3D('',#254,#255,#256);
#254=CARTESIAN_POINT('',(3.16112223770584,2.,2.14472544709127));
#255=DIRECTION('',(-0.864820506260431,0.502081160721504,0.));
#256=DIRECTION('',(-0.502081160721504,-0.864820506260431,0.));
#257=FACE_BOUND('',#258,.T.);
#258=EDGE_LOOP('',(#397,#398,#399,#400));
#259=PLANE('',#260);
#260=AXIS2_PLACEMENT_3D('',#261,#262,#263);
#261=CARTESIAN_POINT('',(-2.,0.,2.14472544709127));
#262=DIRECTION('',(0.864820506260432,0.502081160721502,0.));
#263=DIRECTION('',(-0.502081160721502,0.864820506260432,0.));
#264=FACE_BOUND('',#265,.T.);
#265=EDGE_LOOP('',(#401,#402,#403,#404));
#266=PLANE('',#267);
#267=AXIS2_PLACEMENT_3D('',#268,#269,#270);
#268=CARTESIAN_POINT('',(0.,2.,1.22464679914735E-16));
#269=DIRECTION('',(0.,1.,6.12323399573677E-17));
#270=DIRECTION('',(6.12323399573677E-17,6.12323399573677E-17,-1.));
#271=FACE_BOUND('',#272,.T.);
#272=EDGE_LOOP('',(#405,#406,#407,#408));
#273=CYLINDRICAL_SURFACE('',#274,1.5);
#274=AXIS2_PLACEMENT_3D('',#275,#276,#277);
#275=CARTESIAN_POINT('',(1.37667655053519E-14,3.4981734504296,2.5));
#276=DIRECTION('',(0.,0.,1.));
#277=DIRECTION('',(1.,0.,0.));
#278=FACE_BOUND('',#279,.T.);
#279=EDGE_LOOP('',(#409,#410));
#280=CYLINDRICAL_SURFACE('',#281,3.5);
#281=AXIS2_PLACEMENT_3D('',#282,#283,#284);
#282=CARTESIAN_POINT('',(0.,0.,0.));
#283=DIRECTION('',(0.,1.,6.12323399573677E-17));
#284=DIRECTION('',(0.999478128694177,1.97797543799923E-18,-0.0323027903127068));
#285=ORIENTED_EDGE('',*,*,#411,.T.);
#286=ORIENTED_EDGE('',*,*,#412,.T.);
#287=ORIENTED_EDGE('',*,*,#413,.T.);
#288=ORIENTED_EDGE('',*,*,#414,.F.);
#289=ORIENTED_EDGE('',*,*,#415,.T.);
#290=ORIENTED_EDGE('',*,*,#416,.T.);
#291=ORIENTED_EDGE('',*,*,#417,.F.);
#292=ORIENTED_EDGE('',*,*,#418,.T.);
#293=ORIENTED_EDGE('',*,*,#419,.F.);
#294=ORIENTED_EDGE('',*,*,#420,.F.);
#295=ORIENTED_EDGE('',*,*,#421,.F.);
#296=ORIENTED_EDGE('',*,*,#422,.F.);
#297=ORIENTED_EDGE('',*,*,#423,.F.);
#298=ORIENTED_EDGE('',*,*,#424,.T.);
#299=ORIENTED_EDGE('',*,*,#425,.T.);
#300=ORIENTED_EDGE('',*,*,#426,.T.);
#301=ORIENTED_EDGE('',*,*,#412,.F.);
#302=ORIENTED_EDGE('',*,*,#425,.F.);
#303=ORIENTED_EDGE('',*,*,#427,.T.);
#304=ORIENTED_EDGE('',*,*,#428,.F.);
#305=ORIENTED_EDGE('',*,*,#422,.T.);
#306=ORIENTED_EDGE('',*,*,#429,.T.);
#307=ORIENTED_EDGE('',*,*,#430,.T.);
#308=ORIENTED_EDGE('',*,*,#431,.T.);
#309=ORIENTED_EDGE('',*,*,#432,.F.);
#310=ORIENTED_EDGE('',*,*,#433,.F.);
#311=ORIENTED_EDGE('',*,*,#434,.T.);
#312=ORIENTED_EDGE('',*,*,#435,.F.);
#313=ORIENTED_EDGE('',*,*,#436,.F.);
#314=ORIENTED_EDGE('',*,*,#437,.F.);
#315=ORIENTED_EDGE('',*,*,#424,.F.);
#316=ORIENTED_EDGE('',*,*,#438,.F.);
#317=ORIENTED_EDGE('',*,*,#411,.F.);
#318=ORIENTED_EDGE('',*,*,#439,.F.);
#319=ORIENTED_EDGE('',*,*,#440,.F.);
#320=ORIENTED_EDGE('',*,*,#441,.F.);
#321=ORIENTED_EDGE('',*,*,#413,.F.);
#322=ORIENTED_EDGE('',*,*,#437,.T.);
#323=ORIENTED_EDGE('',*,*,#441,.T.);
#324=ORIENTED_EDGE('',*,*,#442,.F.);
#325=ORIENTED_EDGE('',*,*,#443,.T.);
#326=ORIENTED_EDGE('',*,*,#414,.T.);
#327=ORIENTED_EDGE('',*,*,#444,.F.);
#328=ORIENTED_EDGE('',*,*,#415,.F.);
#329=ORIENTED_EDGE('',*,*,#443,.F.);
#330=ORIENTED_EDGE('',*,*,#445,.F.);
#331=ORIENTED_EDGE('',*,*,#416,.F.);
#332=ORIENTED_EDGE('',*,*,#444,.T.);
#333=ORIENTED_EDGE('',*,*,#446,.T.);
#334=ORIENTED_EDGE('',*,*,#447,.T.);
#335=ORIENTED_EDGE('',*,*,#448,.F.);
#336=ORIENTED_EDGE('',*,*,#417,.T.);
#337=ORIENTED_EDGE('',*,*,#447,.F.);
#338=ORIENTED_EDGE('',*,*,#449,.T.);
#339=ORIENTED_EDGE('',*,*,#450,.T.);
#340=ORIENTED_EDGE('',*,*,#451,.T.);
#341=ORIENTED_EDGE('',*,*,#452,.F.);
#342=ORIENTED_EDGE('',*,*,#453,.T.);
#343=ORIENTED_EDGE('',*,*,#418,.F.);
#344=ORIENTED_EDGE('',*,*,#448,.T.);
#345=ORIENTED_EDGE('',*,*,#454,.T.);
#346=ORIENTED_EDGE('',*,*,#455,.T.);
#347=ORIENTED_EDGE('',*,*,#455,.F.);
#348=ORIENTED_EDGE('',*,*,#456,.F.);
#349=ORIENTED_EDGE('',*,*,#457,.F.);
#350=ORIENTED_EDGE('',*,*,#458,.F.);
#351=ORIENTED_EDGE('',*,*,#419,.T.);
#352=ORIENTED_EDGE('',*,*,#420,.T.);
#353=ORIENTED_EDGE('',*,*,#458,.T.);
#354=ORIENTED_EDGE('',*,*,#459,.F.);
#355=ORIENTED_EDGE('',*,*,#460,.F.);
#356=ORIENTED_EDGE('',*,*,#421,.T.);
#357=ORIENTED_EDGE('',*,*,#460,.T.);
#358=ORIENTED_EDGE('',*,*,#461,.F.);
#359=ORIENTED_EDGE('',*,*,#429,.F.);
#360=ORIENTED_EDGE('',*,*,#438,.T.);
#361=ORIENTED_EDGE('',*,*,#423,.T.);
#362=ORIENTED_EDGE('',*,*,#428,.T.);
#363=ORIENTED_EDGE('',*,*,#462,.F.);
#364=ORIENTED_EDGE('',*,*,#463,.F.);
#365=ORIENTED_EDGE('',*,*,#426,.F.);
#366=ORIENTED_EDGE('',*,*,#439,.T.);
#367=ORIENTED_EDGE('',*,*,#436,.T.);
#368=ORIENTED_EDGE('',*,*,#464,.T.);
#369=ORIENTED_EDGE('',*,*,#434,.F.);
#370=ORIENTED_EDGE('',*,*,#465,.T.);
#371=ORIENTED_EDGE('',*,*,#432,.T.);
#372=ORIENTED_EDGE('',*,*,#466,.T.);
#373=ORIENTED_EDGE('',*,*,#467,.T.);
#374=ORIENTED_EDGE('',*,*,#450,.F.);
#375=ORIENTED_EDGE('',*,*,#468,.T.);
#376=ORIENTED_EDGE('',*,*,#435,.T.);
#377=ORIENTED_EDGE('',*,*,#464,.F.);
#378=ORIENTED_EDGE('',*,*,#462,.T.);
#379=ORIENTED_EDGE('',*,*,#427,.F.);
#380=ORIENTED_EDGE('',*,*,#431,.F.);
#381=ORIENTED_EDGE('',*,*,#430,.F.);
#382=ORIENTED_EDGE('',*,*,#461,.T.);
#383=ORIENTED_EDGE('',*,*,#459,.T.);
#384=ORIENTED_EDGE('',*,*,#457,.T.);
#385=ORIENTED_EDGE('',*,*,#466,.F.);
#386=ORIENTED_EDGE('',*,*,#463,.T.);
#387=ORIENTED_EDGE('',*,*,#433,.T.);
#388=ORIENTED_EDGE('',*,*,#465,.F.);
#389=ORIENTED_EDGE('',*,*,#440,.T.);
#390=ORIENTED_EDGE('',*,*,#469,.T.);
#391=ORIENTED_EDGE('',*,*,#442,.T.);
#392=ORIENTED_EDGE('',*,*,#446,.F.);
#393=ORIENTED_EDGE('',*,*,#445,.T.);
#394=ORIENTED_EDGE('',*,*,#469,.F.);
#395=ORIENTED_EDGE('',*,*,#468,.F.);
#396=ORIENTED_EDGE('',*,*,#449,.F.);
#397=ORIENTED_EDGE('',*,*,#454,.F.);
#398=ORIENTED_EDGE('',*,*,#451,.F.);
#399=ORIENTED_EDGE('',*,*,#467,.F.);
#400=ORIENTED_EDGE('',*,*,#456,.T.);
#401=ORIENTED_EDGE('',*,*,#470,.F.);
#402=ORIENTED_EDGE('',*,*,#471,.F.);
#403=ORIENTED_EDGE('',*,*,#452,.T.);
#404=ORIENTED_EDGE('',*,*,#472,.F.);
#405=ORIENTED_EDGE('',*,*,#473,.F.);
#406=ORIENTED_EDGE('',*,*,#472,.T.);
#407=ORIENTED_EDGE('',*,*,#453,.F.);
#408=ORIENTED_EDGE('',*,*,#471,.T.);
#409=ORIENTED_EDGE('',*,*,#470,.T.);
#410=ORIENTED_EDGE('',*,*,#473,.T.);
#411=EDGE_CURVE('',#474,#474,#475,.T.);
#412=EDGE_CURVE('',#476,#476,#477,.F.);
#413=EDGE_CURVE('',#478,#479,#480,.T.);
#414=EDGE_CURVE('',#481,#479,#482,.F.);
#415=EDGE_CURVE('',#481,#483,#484,.F.);
#416=EDGE_CURVE('',#483,#485,#486,.T.);
#417=EDGE_CURVE('',#487,#485,#488,.T.);
#418=EDGE_CURVE('',#487,#489,#490,.T.);
#419=EDGE_CURVE('',#491,#489,#492,.T.);
#420=EDGE_CURVE('',#493,#491,#494,.T.);
#421=EDGE_CURVE('',#495,#493,#496,.T.);
#422=EDGE_CURVE('',#497,#495,#498,.T.);
#423=EDGE_CURVE('',#499,#497,#500,.T.);
#424=EDGE_CURVE('',#499,#478,#501,.T.);
#425=EDGE_CURVE('',#502,#502,#503,.T.);
#426=EDGE_CURVE('',#504,#504,#505,.T.);
#427=EDGE_CURVE('',#506,#507,#508,.T.);
#428=EDGE_CURVE('',#497,#507,#509,.T.);
#429=EDGE_CURVE('',#495,#510,#511,.T.);
#430=EDGE_CURVE('',#510,#512,#513,.T.);
#431=EDGE_CURVE('',#512,#514,#515,.T.);
#432=EDGE_CURVE('',#516,#514,#517,.T.);
#433=EDGE_CURVE('',#518,#516,#519,.F.);
#434=EDGE_CURVE('',#518,#520,#521,.F.);
#435=EDGE_CURVE('',#522,#520,#523,.T.);
#436=EDGE_CURVE('',#524,#522,#525,.T.);
#437=EDGE_CURVE('',#478,#524,#526,.T.);
#438=EDGE_CURVE('',#506,#499,#527,.F.);
#439=EDGE_CURVE('',#528,#524,#529,.F.);
#440=EDGE_CURVE('',#530,#528,#531,.F.);
#441=EDGE_CURVE('',#479,#530,#532,.F.);
#442=EDGE_CURVE('',#533,#530,#534,.F.);
#443=EDGE_CURVE('',#533,#481,#535,.T.);
#444=EDGE_CURVE('',#483,#536,#537,.T.);
#445=EDGE_CURVE('',#536,#533,#538,.F.);
#446=EDGE_CURVE('',#536,#539,#540,.T.);
#447=EDGE_CURVE('',#539,#485,#541,.F.);
#448=EDGE_CURVE('',#487,#542,#543,.F.);
#449=EDGE_CURVE('',#539,#544,#545,.F.);
#450=EDGE_CURVE('',#544,#546,#547,.T.);
#451=EDGE_CURVE('',#546,#542,#548,.F.);
#452=EDGE_CURVE('',#549,#550,#551,.T.);
#453=EDGE_CURVE('',#549,#550,#552,.F.);
#454=EDGE_CURVE('',#542,#553,#554,.T.);
#455=EDGE_CURVE('',#553,#489,#555,.F.);
#456=EDGE_CURVE('',#556,#553,#557,.F.);
#457=EDGE_CURVE('',#558,#556,#559,.T.);
#458=EDGE_CURVE('',#491,#558,#560,.T.);
#459=EDGE_CURVE('',#561,#558,#562,.T.);
#460=EDGE_CURVE('',#493,#561,#563,.T.);
#461=EDGE_CURVE('',#510,#561,#564,.T.);
#462=EDGE_CURVE('',#506,#507,#565,.F.);
#463=EDGE_CURVE('',#566,#566,#567,.F.);
#464=EDGE_CURVE('',#522,#520,#568,.T.);
#465=EDGE_CURVE('',#518,#516,#569,.T.);
#466=EDGE_CURVE('',#514,#556,#570,.T.);
#467=EDGE_CURVE('',#556,#546,#571,.T.);
#468=EDGE_CURVE('',#544,#528,#572,.F.);
#469=EDGE_CURVE('',#528,#533,#573,.T.);
#470=EDGE_CURVE('',#574,#575,#576,.T.);
#471=EDGE_CURVE('',#549,#574,#577,.F.);
#472=EDGE_CURVE('',#575,#550,#578,.T.);
#473=EDGE_CURVE('',#575,#574,#579,.T.);
#474=VERTEX_POINT('',#580);
#475=CIRCLE('',#581,3.5);
#476=VERTEX_POINT('',#585);
#477=CIRCLE('',#586,1.6);
#478=VERTEX_POINT('',#590);
#479=VERTEX_POINT('',#591);
#480=LINE('',#592,#593);
#481=VERTEX_POINT('',#595);
#482=CIRCLE('',#596,1.);
#483=VERTEX_POINT('',#600);
#484=LINE('',#601,#602);
#485=VERTEX_POINT('',#604);
#486=LINE('',#605,#606);
#487=VERTEX_POINT('',#608);
#488=LINE('',#609,#610);
#489=VERTEX_POINT('',#612);
#490=LINE('',#613,#614);
#491=VERTEX_POINT('',#616);
#492=LINE('',#617,#618);
#493=VERTEX_POINT('',#620);
#494=CIRCLE('',#621,3.5);
#495=VERTEX_POINT('',#625);
#496=LINE('',#626,#627);
#497=VERTEX_POINT('',#629);
#498=CIRCLE('',#630,3.5);
#499=VERTEX_POINT('',#634);
#500=LINE('',#635,#636);
#501=CIRCLE('',#638,3.5);
#502=VERTEX_POINT('',#642);
#503=CIRCLE('',#643,1.6);
#504=VERTEX_POINT('',#647);
#505=CIRCLE('',#648,1.5);
#506=VERTEX_POINT('',#652);
#507=VERTEX_POINT('',#653);
#508=CIRCLE('',#654,3.5);
#509=LINE('',#658,#659);
#510=VERTEX_POINT('',#661);
#511=LINE('',#662,#663);
#512=VERTEX_POINT('',#665);
#513=CIRCLE('',#666,3.5);
#514=VERTEX_POINT('',#670);
#515=CIRCLE('',#671,3.5);
#516=VERTEX_POINT('',#675);
#517=B_SPLINE_CURVE_WITH_KNOTS('',3,
(#676,#677,#678,#679,#680,#681,#682,#683,#684,#685,#686,#687),
.UNSPECIFIED.,.F.,.F.,
(4,1,1,1,1,1,1,1,1,4),
(0.,0.102747041297385,0.203321688707548,0.301728261395578,0.425751996314262,0.56894233677342,
0.726995181644052,0.846503251775738,0.936045822952979,1.),
.UNSPECIFIED.);
#518=VERTEX_POINT('',#688);
#519=LINE('',#689,#690);
#520=VERTEX_POINT('',#692);
#521=B_SPLINE_CURVE_WITH_KNOTS('',3,
(#693,#694,#695,#696,#697,#698,#699,#700,#701,#702,#703,#704,#705,#706,#707,#708,
#709,#710,#711,#712,#713,#714,#715,#716,#717,#718,#719,#720,#721,#722,#723,#724,
#725,#726,#727,#728,#729,#730,#731,#732,#733,#734,#735,#736,#737,#738,#739,#740,
#741,#742,#743,#744,#745,#746,#747,#748,#749,#750,#751,#752,#753,#754,#755,#756,
#757,#758,#759,#760,#761,#762,#763,#764,#765,#766,#767,#768,#769,#770,#771,#772,
#773,#774,#775,#776,#777,#778,#779,#780,#781,#782,#783,#784,#785,#786,#787,#788,
#789,#790,#791,#792,#793,#794,#795,#796,#797,#798,#799,#800,#801,#802,#803,#804,
#805),
.UNSPECIFIED.,.F.,.F.,
(4,1,1,1,1,1,1,1,1,1,1,1,1,1,1,1,1,1,1,1,1,1,1,1,1,1,1,1,1,1,1,1,1,1,1,1,1,1,1,1,
1,1,1,1,1,1,1,1,1,1,1,1,1,1,1,1,1,1,1,1,1,1,1,1,1,1,1,1,1,1,1,1,1,1,1,1,1,1,1,1,
1,1,1,1,1,1,1,1,1,1,1,1,1,1,1,1,1,1,1,1,1,1,1,1,1,1,1,1,1,1,4),
(0.,0.00889912981570563,0.0165246191157966,0.0228786031070275,0.0311040720211017,
0.0448904825020166,0.0649646412097227,0.0872148978645746,0.105179903144499,0.118135620155067,
0.126968075171828,0.135900283667041,0.148157860092996,0.16053010323379,0.173014976227323,
0.182372492721442,0.191713952392008,0.201015166905119,0.210292895011169,0.222514861484411,
0.23763544665892,0.252543082776448,0.26427407296935,0.272814553531941,0.281272669790538,
0.292171594063761,0.302884278305755,0.313408692396083,0.321099629209871,0.328667853541715,
0.336038625599692,0.343336813246901,0.35046558711993,0.357495422997226,0.364404648658825,
0.371286634004651,0.378051349558211,0.384724898409955,0.391236141592776,0.397682444254368,
0.404585590444521,0.412011727053061,0.422371815687371,0.432484822003046,0.442355104889786,
0.448829859484487,0.454562262321595,0.45951758240303,0.4644410242279,0.469256809634283,
0.473992457164272,0.478588699148699,0.483127132032796,0.487519694319086,0.491822040922622,
0.496004841625272,0.500003770550254,0.500156619103296,0.504206812224752,0.508182508727443,
0.512029244662657,0.515824463133269,0.520649029903886,0.525360214317859,0.529956308284884,
0.533641611731987,0.537612086203931,0.543240774901371,0.548817729717388,0.554338509079419,
0.560721928132337,0.571319126078358,0.586924014752958,0.604451243701393,0.621864418105118,
0.638209786541894,0.651556431765053,0.662014946686818,0.669206284529127,0.675865639890231,
0.68205197554014,0.688299087210058,0.698400978940326,0.712574762725668,0.727873322686188,
0.740499250074091,0.752264754939815,0.76354139991919,0.774330467224395,0.782730481856755,
0.791320385332775,0.800213674258061,0.809219861328234,0.821680406011739,0.834330643509038,
0.847172400356432,0.856944790063537,0.866800313333225,0.876783138717789,0.8868098564711,
0.896933436246473,0.907108478259644,0.917342754775878,0.927583008054782,0.937850509737883,
0.948139318938528,0.958463341778013,0.968805069120059,0.979179930960931,0.989581320275264,
1.),
.UNSPECIFIED.);
#522=VERTEX_POINT('',#806);
#523=LINE('',#807,#808);
#524=VERTEX_POINT('',#810);
#525=B_SPLINE_CURVE_WITH_KNOTS('',3,
(#811,#812,#813,#814,#815,#816,#817,#818,#819,#820),
.UNSPECIFIED.,.F.,.F.,
(4,1,1,1,1,1,1,4),
(0.,0.0867926477009346,0.215245245209533,0.366275218840731,0.525991986992956,0.675306436414253,
0.83330438884113,1.),
.UNSPECIFIED.);
#526=LINE('',#821,#822);
#527=LINE('',#824,#825);
#528=VERTEX_POINT('',#827);
#529=LINE('',#828,#829);
#530=VERTEX_POINT('',#831);
#531=B_SPLINE_CURVE_WITH_KNOTS('',3,
(#832,#833,#834,#835,#836,#837,#838,#839,#840,#841,#842,#843,#844,#845,#846,#847,
#848,#849,#850,#851,#852,#853,#854,#855,#856,#857,#858,#859,#860,#861,#862,#863,
#864,#865,#866,#867,#868,#869,#870,#871,#872,#873,#874,#875,#876,#877,#878,#879,
#880,#881,#882,#883,#884),
.UNSPECIFIED.,.F.,.F.,
(4,1,1,1,1,1,1,1,1,1,1,1,1,1,1,1,1,1,1,1,1,1,1,1,1,1,1,1,1,1,1,1,1,1,1,1,1,1,1,1,
1,1,1,1,1,1,1,1,1,1,4),
(0.,0.00140263956826031,0.0046754964992501,0.00704140264046494,0.0102855615321636,
0.0154797552595241,0.0215029234105103,0.023993010297306,0.0319923834996233,0.0407804627213214,
0.0430230158697169,0.0493646764408942,0.0577494500822576,0.06379183578392,0.0698071185505819,
0.0761171567863251,0.0827511108309648,0.0855063889317025,0.0902498385708455,0.0982976854228024,
0.107118782625724,0.11617104533116,0.127050422877945,0.139530966896862,0.161143886928671,
0.170654086682765,0.189843964534987,0.225707750510452,0.27623710138893,0.28569309489313,
0.330243603185286,0.387657710374947,0.416583995213968,0.430738680597099,0.471276365588463,
0.509232986154895,0.547146305212462,0.585335989695137,0.589138877078765,0.623811670645552,
0.662921833638318,0.702350133814801,0.742797545213245,0.783936540601029,0.799709371547914,
0.826135368070774,0.868717309661962,0.912061530675207,0.955103855937889,0.955811795844906,
1.),
.UNSPECIFIED.);
#532=LINE('',#885,#886);
#533=VERTEX_POINT('',#888);
#534=B_SPLINE_CURVE_WITH_KNOTS('',3,
(#889,#890,#891,#892,#893,#894,#895,#896,#897,#898,#899,#900,#901,#902,#903,#904,
#905),
.UNSPECIFIED.,.F.,.F.,
(4,1,1,1,1,1,1,1,1,1,1,1,1,1,4),
(0.,0.0905220560311683,0.115701318161044,0.181001308120025,0.280026866789263,0.338074011035681,
0.44791643148778,0.530548494439034,0.619401042886989,0.72052613254664,0.746052818927657,
0.873001916284135,0.905931161382249,0.998420635365838,1.),
.UNSPECIFIED.);
#535=LINE('',#906,#907);
#536=VERTEX_POINT('',#909);
#537=(BOUNDED_CURVE()B_SPLINE_CURVE(3,
(#910,#911,#912,#913),
.UNSPECIFIED.,.F.,.F.)B_SPLINE_CURVE_WITH_KNOTS((4,4),
(0.,1.),
.UNSPECIFIED.)CURVE()GEOMETRIC_REPRESENTATION_ITEM()RATIONAL_B_SPLINE_CURVE((1.,
0.911083983262581,0.911083983262581,1.))REPRESENTATION_ITEM(''));
#538=LINE('',#914,#915);
#539=VERTEX_POINT('',#917);
#540=LINE('',#918,#919);
#541=CIRCLE('',#921,1.);
#542=VERTEX_POINT('',#925);
#543=CIRCLE('',#926,1.);
#544=VERTEX_POINT('',#930);
#545=LINE('',#931,#932);
#546=VERTEX_POINT('',#934);
#547=CIRCLE('',#935,3.4981734504296);
#548=LINE('',#939,#940);
#549=VERTEX_POINT('',#942);
#550=VERTEX_POINT('',#943);
#551=LINE('',#944,#945);
#552=CIRCLE('',#947,1.5);
#553=VERTEX_POINT('',#951);
#554=LINE('',#952,#953);
#555=(BOUNDED_CURVE()B_SPLINE_CURVE(3,
(#955,#956,#957,#958),
.UNSPECIFIED.,.F.,.F.)B_SPLINE_CURVE_WITH_KNOTS((4,4),
(0.,1.),
.UNSPECIFIED.)CURVE()GEOMETRIC_REPRESENTATION_ITEM()RATIONAL_B_SPLINE_CURVE((1.,
0.91108398326258,0.91108398326258,1.))REPRESENTATION_ITEM(''));
#556=VERTEX_POINT('',#959);
#557=LINE('',#960,#961);
#558=VERTEX_POINT('',#963);
#559=LINE('',#964,#965);
#560=LINE('',#967,#968);
#561=VERTEX_POINT('',#970);
#562=CIRCLE('',#971,3.5);
#563=LINE('',#975,#976);
#564=LINE('',#978,#979);
#565=LINE('',#981,#982);
#566=VERTEX_POINT('',#984);
#567=CIRCLE('',#985,1.5);
#568=CIRCLE('',#989,3.4981734504296);
#569=CIRCLE('',#993,3.4981734504296);
#570=LINE('',#997,#998);
#571=LINE('',#1000,#1001);
#572=LINE('',#1003,#1004);
#573=LINE('',#1006,#1007);
#574=VERTEX_POINT('',#1009);
#575=VERTEX_POINT('',#1010);
#576=CIRCLE('',#1011,3.5);
#577=LINE('',#1015,#1016);
#578=LINE('',#1018,#1019);
#579=B_SPLINE_CURVE_WITH_KNOTS('',3,
(#1021,#1022,#1023,#1024,#1025,#1026,#1027,#1028,#1029,#1030,#1031,#1032,#1033,#1034,
#1035,#1036,#1037,#1038,#1039,#1040,#1041,#1042,#1043,#1044,#1045,#1046,#1047,#1048,
#1049,#1050,#1051,#1052,#1053,#1054,#1055,#1056,#1057,#1058,#1059,#1060,#1061,#1062,
#1063,#1064,#1065,#1066,#1067,#1068,#1069,#1070,#1071,#1072,#1073,#1074,#1075,#1076,
#1077,#1078,#1079,#1080,#1081,#1082,#1083,#1084,#1085,#1086,#1087,#1088,#1089,#1090),
.UNSPECIFIED.,.F.,.F.,
(4,1,1,1,1,1,1,1,1,1,1,1,1,1,1,1,1,1,1,1,1,1,1,1,1,1,1,1,1,1,1,1,1,1,1,1,1,1,1,1,
1,1,1,1,1,1,1,1,1,1,1,1,1,1,1,1,1,1,1,1,1,1,1,1,1,1,1,4),
(0.,0.0100466177947652,0.0200898635177818,0.0301364971440559,0.0435302432318355,
0.0602620488707881,0.0780559255669278,0.0935635343444292,0.107811947079374,0.123075400498024,
0.146683206622764,0.170776959004797,0.195348914252429,0.212258213866566,0.22834690995599,
0.243572748189229,0.246055420089666,0.258754339137869,0.274189927350193,0.289926979183446,
0.306644282586702,0.324044639559471,0.34145413218721,0.358195242637327,0.3744255917168,
0.390814340990744,0.411180153625087,0.43045564085201,0.448640143815883,0.460745020670093,
0.471666047068338,0.480385700862698,0.488073822541724,0.494755587758751,0.499994654040377,
0.50144138453056,0.508253706322127,0.51519444672423,0.526591557017819,0.542348164095964,
0.562436446725246,0.580250484813266,0.595783018049161,0.610068757260427,0.625378453582835,
0.649072583369391,0.673559352312706,0.698828418480212,0.717411027607718,0.735872929257503,
0.753934937825385,0.75416774491721,0.772411228248356,0.790596131705252,0.808778739401284,
0.826917218088856,0.845022215164541,0.862483943014398,0.879339701148346,0.894675328291668,
0.909096763901999,0.925360428227212,0.943768176269,0.960765152684617,0.973591752553002,
0.9826328545298,0.991431688138433,1.),
.UNSPECIFIED.);
#580=CARTESIAN_POINT('',(-3.5,12.,-1.22464679914735E-16));
#581=AXIS2_PLACEMENT_3D('',#582,#583,#584);
#582=CARTESIAN_POINT('',(0.,12.,7.34788079488412E-16));
#583=DIRECTION('',(0.,1.,6.12323399573677E-17));
#584=DIRECTION('',(-1.,7.49879891330929E-33,-1.22464679914735E-16));
#585=CARTESIAN_POINT('',(1.6,12.,9.30731567351989E-16));
#586=AXIS2_PLACEMENT_3D('',#587,#588,#589);
#587=CARTESIAN_POINT('',(0.,12.,7.34788079488412E-16));
#588=DIRECTION('',(0.,1.,6.12323399573677E-17));
#589=DIRECTION('',(1.,0.,0.));
#590=CARTESIAN_POINT('',(3.16112223766069,0.,1.50243342578535));
#591=CARTESIAN_POINT('',(3.16112223770586,3.49416543755222E-16,3.09224394039997));
#592=CARTESIAN_POINT('',(3.16112223770586,-4.59987571461577E-17,1.50243342580682));
#593=VECTOR('',#594,1.);
#594=DIRECTION('',(-5.58669358107383E-16,-3.06161699786838E-17,1.));
#595=CARTESIAN_POINT('',(2.56274531525643,3.81699151818909E-16,3.34149225150796));
#596=AXIS2_PLACEMENT_3D('',#597,#598,#599);
#597=CARTESIAN_POINT('',(2.49817345042962,-1.43502837803513E-16,2.34357919203194));
#598=DIRECTION('',(0.,-1.,-6.12323399573677E-17));
#599=DIRECTION('',(0.662948787276243,-4.5842494386168E-17,0.748664748368025));
#600=CARTESIAN_POINT('',(1.42425181216904,-3.24449355716314E-16,3.41516064164423));
#601=CARTESIAN_POINT('',(1.42425181216904,-2.09118277418182E-16,3.41516064164423));
#602=VECTOR('',#603,1.);
#603=DIRECTION('',(0.997913059476019,3.95388637875649E-18,-0.0645718648268112));
#604=CARTESIAN_POINT('',(1.42425181216904,-7.32314104569762E-16,12.5));
#605=CARTESIAN_POINT('',(1.42425181216904,-2.15581441171606E-16,3.41516064164423));
#606=VECTOR('',#607,1.);
#607=DIRECTION('',(-4.8882450457598E-17,-5.50573952074828E-17,1.));
#608=CARTESIAN_POINT('',(-1.42425181216904,-7.8782525580102E-16,12.5));
#609=CARTESIAN_POINT('',(-1.42425181216904,-7.65404249467096E-16,12.5));
#610=VECTOR('',#611,1.);
#611=DIRECTION('',(1.,0.,0.));
#612=CARTESIAN_POINT('',(-1.42425181216904,-2.39454912554939E-16,3.59947849302702));
#613=CARTESIAN_POINT('',(-1.42425181216904,-7.71280183352353E-16,12.5));
#614=VECTOR('',#615,1.);
#615=DIRECTION('',(-2.49473701907325E-17,6.18003827170994E-17,-1.));
#616=CARTESIAN_POINT('',(-9.77399847310616,-2.53487482579305E-16,4.13976475104157));
#617=CARTESIAN_POINT('',(-9.77399847310616,-2.53487482579305E-16,4.13976475104157));
#618=VECTOR('',#619,1.);
#619=DIRECTION('',(0.997913059476019,3.95388637875647E-18,-0.0645718648268108));
#620=CARTESIAN_POINT('',(-10.2260015268938,1.74244379360822E-16,-2.84562666529057));
#621=AXIS2_PLACEMENT_3D('',#622,#623,#624);
#622=CARTESIAN_POINT('',(-10.,-3.96215516092411E-17,0.6470690428755));
#623=DIRECTION('',(0.,1.,6.12323399573677E-17));
#624=DIRECTION('',(-0.0645718648268111,6.11045517057324E-17,-0.997913059476019));
#625=CARTESIAN_POINT('',(-0.226001526893839,2.13865930970064E-16,-3.49269570816607));
#626=CARTESIAN_POINT('',(-0.226001526893839,2.13865930970064E-16,-3.49269570816607));
#627=VECTOR('',#628,1.);
#628=DIRECTION('',(-0.997913059476019,-3.95388637875648E-18,0.0645718648268109));
#629=CARTESIAN_POINT('',(3.49817345042962,6.92291403300378E-18,-0.11305976609458));
#630=AXIS2_PLACEMENT_3D('',#631,#632,#633);
#631=CARTESIAN_POINT('',(0.,0.,0.));
#632=DIRECTION('',(0.,1.,6.12323399573677E-17));
#633=DIRECTION('',(0.999478128694177,1.97797543799923E-18,-0.0323027903127068));
#634=CARTESIAN_POINT('',(3.49817345042962,-6.92291403299636E-18,0.113059766094459));
#635=CARTESIAN_POINT('',(3.49817345042962,-6.92291403299636E-18,0.113059766094459));
#636=VECTOR('',#637,1.);
#637=DIRECTION('',(0.,6.12323399573675E-17,-1.));
#638=AXIS2_PLACEMENT_3D('',#639,#640,#641);
#639=CARTESIAN_POINT('',(0.,-6.67060304537121E-33,1.08939214964111E-16));
#640=DIRECTION('',(0.,-1.,-6.12323399573677E-17));
#641=DIRECTION('',(0.999478128694177,-1.97797543799898E-18,0.0323027903127028));
#642=CARTESIAN_POINT('',(1.6,-1.19980782612949E-32,1.95943487863577E-16));
#643=AXIS2_PLACEMENT_3D('',#644,#645,#646);
#644=CARTESIAN_POINT('',(0.,0.,0.));
#645=DIRECTION('',(0.,1.,6.12323399573677E-17));
#646=DIRECTION('',(1.,0.,0.));
#647=CARTESIAN_POINT('',(-10.,5.22269583268104E-17,-0.8529309571245));
#648=AXIS2_PLACEMENT_3D('',#649,#650,#651);
#649=CARTESIAN_POINT('',(-10.,-3.96215516092411E-17,0.6470690428755));
#650=DIRECTION('',(0.,1.,6.12323399573677E-17));
#651=DIRECTION('',(6.12323399573676E-17,6.12323399573677E-17,-1.));
#652=CARTESIAN_POINT('',(3.49817345042962,2.,0.113059766094459));
#653=CARTESIAN_POINT('',(3.49817345042962,2.,-0.113059766094575));
#654=AXIS2_PLACEMENT_3D('',#655,#656,#657);
#655=CARTESIAN_POINT('',(0.,2.,1.22464679914735E-16));
#656=DIRECTION('',(0.,1.,6.12323399573677E-17));
#657=DIRECTION('',(0.999478128694177,-1.97797543799898E-18,0.0323027903127028));
#658=CARTESIAN_POINT('',(3.49817345042962,6.92291403300377E-18,-0.11305976609458));
#659=VECTOR('',#660,1.);
#660=DIRECTION('',(0.,1.,5.55111512312578E-17));
#661=CARTESIAN_POINT('',(-0.226001526893839,2.,-3.49269570816607));
#662=CARTESIAN_POINT('',(-0.226001526893838,2.13865930970064E-16,-3.49269570816607));
#663=VECTOR('',#664,1.);
#664=DIRECTION('',(0.,1.,0.));
#665=CARTESIAN_POINT('',(-3.5,2.,-7.34788079488412E-16));
#666=AXIS2_PLACEMENT_3D('',#667,#668,#669);
#667=CARTESIAN_POINT('',(0.,2.,1.22464679914735E-16));
#668=DIRECTION('',(0.,1.,6.12323399573677E-17));
#669=DIRECTION('',(-0.0645718648268108,6.11045517057324E-17,-0.997913059476019));
#670=CARTESIAN_POINT('',(-3.16112223662177,2.,1.50243342785476));
#671=AXIS2_PLACEMENT_3D('',#672,#673,#674);
#672=CARTESIAN_POINT('',(0.,2.,1.22464679914735E-16));
#673=DIRECTION('',(0.,1.,6.12323399573677E-17));
#674=DIRECTION('',(-1.,7.49879891330929E-33,-1.22464679914735E-16));
#675=CARTESIAN_POINT('',(-3.46410161513775,3.01112366930813,0.5));
#676=CARTESIAN_POINT('',(-3.46410161513775,3.01112366930813,0.5));
#677=CARTESIAN_POINT('',(-3.45909628365571,2.97553422767976,0.5346857323766));
#678=CARTESIAN_POINT('',(-3.44812179617211,2.90533231270092,0.603414501580551));
#679=CARTESIAN_POINT('',(-3.42867760431357,2.80174508289565,0.705485934014326));
#680=CARTESIAN_POINT('',(-3.40453708010789,2.69138237526271,0.814621796000559));
#681=CARTESIAN_POINT('',(-3.37297938153004,2.56712896924423,0.937836589929906));
#682=CARTESIAN_POINT('',(-3.33031038399959,2.42358563976229,1.08048026645317));
#683=CARTESIAN_POINT('',(-3.28136726397899,2.28277059222883,1.22062845773188));
#684=CARTESIAN_POINT('',(-3.23317493544555,2.16100251687003,1.34193285260554));
#685=CARTESIAN_POINT('',(-3.19422019434653,2.07111871148442,1.43152222707004));
#686=CARTESIAN_POINT('',(-3.17101722336606,2.02087855349715,1.48161413799983));
#687=CARTESIAN_POINT('',(-3.16112223662177,2.,1.50243342785476));
#688=CARTESIAN_POINT('',(-3.46410161513775,3.9852232315511,0.5));
#689=CARTESIAN_POINT('',(-3.46410161513775,3.01112366935795,0.5));
#690=VECTOR('',#691,1.);
#691=DIRECTION('',(-4.55897145498061E-16,1.,-7.97820004621607E-16));
#692=CARTESIAN_POINT('',(3.46410161513771,3.98522323155159,0.5));
#693=CARTESIAN_POINT('',(3.46410161513773,3.9852232315516,0.5));
#694=CARTESIAN_POINT('',(3.46054498967781,4.01051651048755,0.524643372984334));
#695=CARTESIAN_POINT('',(3.45343373995159,4.05736903618509,0.570453848067157));
#696=CARTESIAN_POINT('',(3.44228009138058,4.12197793793713,0.633939110213382));
#697=CARTESIAN_POINT('',(3.43037776633544,4.18449936660518,0.695551257855313));
#698=CARTESIAN_POINT('',(3.41373432215055,4.26413043404889,0.774214176644756));
#699=CARTESIAN_POINT('',(3.38580635970418,4.38176027575445,0.890727596021517));
#700=CARTESIAN_POINT('',(3.34189200518571,4.53750928666465,1.04541054863774));
#701=CARTESIAN_POINT('',(3.28561796714081,4.70328309980306,1.21037026604695));
#702=CARTESIAN_POINT('',(3.2282351383536,4.84797663344604,1.35451673575429));
#703=CARTESIAN_POINT('',(3.18080948964213,4.95516443492485,1.4613658340481));
#704=CARTESIAN_POINT('',(3.14166874142,5.03740216538439,1.54337244761733));
#705=CARTESIAN_POINT('',(3.10141617941687,5.11726614916295,1.62303171098335));
#706=CARTESIAN_POINT('',(3.05372477346237,5.20583238024505,1.71139355119759));
#707=CARTESIAN_POINT('',(2.99747757864068,5.30278019409986,1.80814153676566));
#708=CARTESIAN_POINT('',(2.94231127792882,5.39115865245898,1.89635629016767));
#709=CARTESIAN_POINT('',(2.88934435681819,5.47083448021579,1.97589688683477));
#710=CARTESIAN_POINT('',(2.83970155526949,5.54165490431897,2.04660546696531));
#711=CARTESIAN_POINT('',(2.78810937619693,5.61150865454336,2.11635621533245));
#712=CARTESIAN_POINT('',(2.72887306002646,5.68767457889354,2.19241694141891));
#713=CARTESIAN_POINT('',(2.65521612528604,5.77692678322538,2.28155454308429));
#714=CARTESIAN_POINT('',(2.56542399119478,5.87784232248888,2.38235136000055));
#715=CARTESIAN_POINT('',(2.47133581672089,5.97515092126629,2.47955522289629));
#716=CARTESIAN_POINT('',(2.38804928374903,6.0550904231523,2.55941475630739));
#717=CARTESIAN_POINT('',(2.31751418408202,6.11900228553276,2.62326596835711));
#718=CARTESIAN_POINT('',(2.24696077463415,6.17988197748968,2.68409030762356));
#719=CARTESIAN_POINT('',(2.16836780910552,6.24397510857017,2.74812784335646));
#720=CARTESIAN_POINT('',(2.08131026570119,6.31052887575049,2.81462666839181));
#721=CARTESIAN_POINT('',(2.00019891794973,6.36861621575994,2.87266821591753));
#722=CARTESIAN_POINT('',(1.92581294711853,6.4188919789151,2.92290579161449));
#723=CARTESIAN_POINT('',(1.85899875235849,6.46185699034227,2.96583913655748));
#724=CARTESIAN_POINT('',(1.79188447167782,6.50290355904194,3.00685629554336));
#725=CARTESIAN_POINT('',(1.72470076698927,6.5419579497413,3.04588343844034));
#726=CARTESIAN_POINT('',(1.65722522870625,6.57920843798938,3.08310858001544));
#727=CARTESIAN_POINT('',(1.58968721841672,6.61458721547812,3.11846384371721));
#728=CARTESIAN_POINT('',(1.52169697441118,6.64834263267156,3.1521973166149));
#729=CARTESIAN_POINT('',(1.45336474516416,6.68044404392594,3.18427829007603));
#730=CARTESIAN_POINT('',(1.38466562800045,6.71092680173359,3.21474201858034));
#731=CARTESIAN_POINT('',(1.31613871356487,6.73959534206286,3.24339298852018));
#732=CARTESIAN_POINT('',(1.2476925645806,6.76654608647112,3.27032749562021));
#733=CARTESIAN_POINT('',(1.17746984265532,6.79251607575505,3.2962820856303));
#734=CARTESIAN_POINT('',(1.10299244456775,6.81824189407113,3.32199288428051));
#735=CARTESIAN_POINT('',(1.01322980675883,6.8469179843865,3.35065249144821));
#736=CARTESIAN_POINT('',(0.910113936109364,6.87657534093197,3.3802931073585));
#737=CARTESIAN_POINT('',(0.796011234858335,6.90524250226608,3.40894437887892));
#738=CARTESIAN_POINT('',(0.695033838760627,6.92706037473236,3.43075034425656));
#739=CARTESIAN_POINT('',(0.609876908986458,6.94302435344452,3.44670570241285));
#740=CARTESIAN_POINT('',(0.543201625431165,6.95410818541771,3.45778359204992));
#741=CARTESIAN_POINT('',(0.482206484265846,6.96311775334942,3.46678835667603));
#742=CARTESIAN_POINT('',(0.424516089362257,6.97065402708252,3.4743206312339));
#743=CARTESIAN_POINT('',(0.36745067600505,6.9771498528858,3.48081302386028));
#744=CARTESIAN_POINT('',(0.311477176670203,6.98260069780713,3.48626099775224));
#745=CARTESIAN_POINT('',(0.25643951269627,6.98707721162968,3.49073516040445));
#746=CARTESIAN_POINT('',(0.202635400284443,6.99060926737067,3.49426536526452));
#747=CARTESIAN_POINT('',(0.149903368905144,6.99326283430514,3.49691754410968));
#748=CARTESIAN_POINT('',(0.0985200515165916,6.99508245281431,3.49873621197674));
#749=CARTESIAN_POINT('',(0.0486644285092161,6.99612294601295,3.49977616201872));
#750=CARTESIAN_POINT('',(0.0153659910484338,6.99635108436802,3.50000418132556));
#751=CARTESIAN_POINT('',(-0.0174028024770019,6.99634250384302,3.4999956052785));
#752=CARTESIAN_POINT('',(-0.0500786666237143,6.99609864809074,3.49975187677645));
#753=CARTESIAN_POINT('',(-0.097492747494604,6.99509276545503,3.4987465192448));
#754=CARTESIAN_POINT('',(-0.143851664721797,6.99348775182587,3.4971423441195));
#755=CARTESIAN_POINT('',(-0.193540865752772,6.99111638786038,3.49477222036215));
#756=CARTESIAN_POINT('',(-0.24658438941624,6.98780040003435,3.49145796945898));
#757=CARTESIAN_POINT('',(-0.302674573436111,6.98337557521281,3.48703546773183));
#758=CARTESIAN_POINT('',(-0.354087428183349,6.97849728058446,3.48215974136957));
#759=CARTESIAN_POINT('',(-0.402419882624137,6.97322269385455,3.47688793971801));
#760=CARTESIAN_POINT('',(-0.454662649069776,6.96683216721582,3.47050079751105));
#761=CARTESIAN_POINT('',(-0.514089503507222,6.95857766447966,3.46225068439315));
#762=CARTESIAN_POINT('',(-0.579221023488843,6.94826793466648,3.45194646812671));
#763=CARTESIAN_POINT('',(-0.646876380234974,6.93625554756231,3.43994054567923));
#764=CARTESIAN_POINT('',(-0.733332928349187,6.91911133109416,3.42280562452244));
#765=CARTESIAN_POINT('',(-0.857107441676861,6.89087826652398,3.39458804491611));
#766=CARTESIAN_POINT('',(-1.01985296474614,6.84619467847152,3.34992947897427));
#767=CARTESIAN_POINT('',(-1.2023308476704,6.7852188519832,3.28898892804203));
#768=CARTESIAN_POINT('',(-1.38071371104479,6.71416781693385,3.21798073337097));
#769=CARTESIAN_POINT('',(-1.53813928094691,6.6414481270594,3.1453069724765));
#770=CARTESIAN_POINT('',(-1.66729663606673,6.57435058978287,3.07825381938228));
#771=CARTESIAN_POINT('',(-1.76379646525464,6.51963479635542,3.02357571259965));
#772=CARTESIAN_POINT('',(-1.83759220134644,6.47512948949685,2.97910205492808));
#773=CARTESIAN_POINT('',(-1.89719597425604,6.4374568903476,2.94145694982408));
#774=CARTESIAN_POINT('',(-1.95290936780187,6.40071886583306,2.90474641495199));
#775=CARTESIAN_POINT('',(-2.01743223671607,6.35643063185153,2.8604921576175));
#776=CARTESIAN_POINT('',(-2.10261661003334,6.29486121260198,2.79897158614251));
#777=CARTESIAN_POINT('',(-2.20880241257918,6.21218120039675,2.71636070772012));
#778=CARTESIAN_POINT('',(-2.31626973193253,6.12087971550048,2.62514101115284));
#779=CARTESIAN_POINT('',(-2.4127647588219,6.03206327276109,2.53640997838294));
#780=CARTESIAN_POINT('',(-2.4957329988001,5.95026174770764,2.45469244220997));
#781=CARTESIAN_POINT('',(-2.57109873140129,5.8710292727505,2.37554680855667));
#782=CARTESIAN_POINT('',(-2.63611736935279,5.79837278927068,2.30297538238455));
#783=CARTESIAN_POINT('',(-2.69317240663591,5.73115476823586,2.23584096054435));
#784=CARTESIAN_POINT('',(-2.74451484546161,5.66776267867173,2.17253220257121));
#785=CARTESIAN_POINT('',(-2.79516338497472,5.60212608651391,2.10698716559109));
#786=CARTESIAN_POINT('',(-2.851009464578,5.52605665509492,2.0310307868487));
#787=CARTESIAN_POINT('',(-2.91082365486798,5.43950795110022,1.94462124024267));
#788=CARTESIAN_POINT('',(-2.9735788356337,5.34196246964784,1.84724884805402));
#789=CARTESIAN_POINT('',(-3.02835809549879,5.25025037197636,1.75571779601174));
#790=CARTESIAN_POINT('',(-3.07595861152373,5.16499482547608,1.67064862737183));
#791=CARTESIAN_POINT('',(-3.11715032713707,5.08663644260862,1.59247817191816));
#792=CARTESIAN_POINT('',(-3.1564604873441,5.00701899977022,1.5130715259066));
#793=CARTESIAN_POINT('',(-3.19387251534458,4.92612536197975,1.4324159540816));
#794=CARTESIAN_POINT('',(-3.2292642710641,4.84418038808784,1.35074103674256));
#795=CARTESIAN_POINT('',(-3.26262786352947,4.76116505544807,1.26803467257451));
#796=CARTESIAN_POINT('',(-3.29384650807873,4.67735089465025,1.18457610028275));
#797=CARTESIAN_POINT('',(-3.32289018043739,4.59283068120773,1.10046891326616));
#798=CARTESIAN_POINT('',(-3.34972172690181,4.50774398616703,1.01586677850511));
#799=CARTESIAN_POINT('',(-3.37436391776883,4.42204298093022,0.930742358220235));
#800=CARTESIAN_POINT('',(-3.39680387888446,4.33578276843617,0.845179166812927));
#801=CARTESIAN_POINT('',(-3.41704498430729,4.24895369061542,0.759208593710845));
#802=CARTESIAN_POINT('',(-3.43507661899592,4.16158997264655,0.672929828731739));
#803=CARTESIAN_POINT('',(-3.45089315065807,4.07369046168402,0.586432342179036));
#804=CARTESIAN_POINT('',(-3.45994594351194,4.01477484768484,0.528796309425234));
#805=CARTESIAN_POINT('',(-3.46410161513775,3.9852232315511,0.5));
#806=CARTESIAN_POINT('',(3.46410161513771,3.01112366930762,0.5));
#807=CARTESIAN_POINT('',(3.46410161513775,3.01112366930793,0.5));
#808=VECTOR('',#809,1.);
#809=DIRECTION('',(0.,1.,5.6987143186284E-17));
#810=CARTESIAN_POINT('',(3.16112223769081,2.,1.50243342576083));
#811=CARTESIAN_POINT('',(3.16112223770586,2.,1.50243342569032));
#812=CARTESIAN_POINT('',(3.17454888066941,2.02833076212411,1.47418325842639));
#813=CARTESIAN_POINT('',(3.20681112535418,2.09884269544074,1.4038820513867));
#814=CARTESIAN_POINT('',(3.25737782001962,2.21982325392261,1.28332105130331));
#815=CARTESIAN_POINT('',(3.31135548793651,2.36626240297059,1.13750968458228));
#816=CARTESIAN_POINT('',(3.36026093107301,2.52106982807682,0.983566694254845));
#817=CARTESIAN_POINT('',(3.40230509214736,2.67950352892393,0.826358188409054));
#818=CARTESIAN_POINT('',(3.43738991539793,2.84148591598688,0.666132909831622));
#819=CARTESIAN_POINT('',(3.45597879942489,2.95339960956202,0.556304264641602));
#820=CARTESIAN_POINT('',(3.46410161513773,3.01112366930761,0.5));
#821=CARTESIAN_POINT('',(3.16112223766069,-4.59987571448433E-17,1.50243342578535));
#822=VECTOR('',#823,1.);
#823=DIRECTION('',(0.,1.,1.11022302462516E-16));
#824=CARTESIAN_POINT('',(3.49817345042962,2.15121690892035E-16,0.113059766094459));
#825=VECTOR('',#826,1.);
#826=DIRECTION('',(0.,1.,5.06539254985228E-16));
#827=CARTESIAN_POINT('',(3.16112223770585,2.,3.30277313325915));
#828=CARTESIAN_POINT('',(3.16112223770586,2.,1.50243342580682));
#829=VECTOR('',#830,1.);
#830=DIRECTION('',(-2.46669674624071E-16,0.,1.));
#831=CARTESIAN_POINT('',(3.16112223770586,0.969312777358953,3.09224393926865));
#832=CARTESIAN_POINT('',(3.16112223770585,2.,3.30277313325915));
#833=CARTESIAN_POINT('',(3.16112223889348,1.99956483289267,3.30253428093905));
#834=CARTESIAN_POINT('',(3.1611222408998,1.99811382655513,3.3017393925759));
#835=CARTESIAN_POINT('',(3.16112223692367,1.99592626001278,3.30054864027898));
#836=CARTESIAN_POINT('',(3.16112223796012,1.9931626565492,3.29905573809064));
#837=CARTESIAN_POINT('',(3.16112223757719,1.9897962110399,3.29725081615397));
#838=CARTESIAN_POINT('',(3.1611222377552,1.98527779157903,3.29485527167166));
#839=CARTESIAN_POINT('',(3.16112223770088,1.98097483232203,3.29260725192785));
#840=CARTESIAN_POINT('',(3.161122237709,1.97577777650064,3.28992177389422));
#841=CARTESIAN_POINT('',(3.1611222377045,1.96969402636211,3.28682021042531));
#842=CARTESIAN_POINT('',(3.16112223770594,1.96366412644112,3.28381032396056));
#843=CARTESIAN_POINT('',(3.16112223770583,1.95814529940237,3.28109264062699));
#844=CARTESIAN_POINT('',(3.16112223770588,1.95274402870585,3.27846074482578));
#845=CARTESIAN_POINT('',(3.16112223770586,1.94611241234442,3.27528644274873));
#846=CARTESIAN_POINT('',(3.16112223770586,1.93956565036527,3.27220605003656));
#847=CARTESIAN_POINT('',(3.16112223770586,1.93366905181567,3.26947065556554));
#848=CARTESIAN_POINT('',(3.16112223770586,1.92756774726919,3.26668062932372));
#849=CARTESIAN_POINT('',(3.16112223770586,1.92250290808689,3.26439884735717));
#850=CARTESIAN_POINT('',(3.16112223770586,1.91793540926496,3.26236300305959));
#851=CARTESIAN_POINT('',(3.16112223770586,1.91290393722566,3.26013938397961));
#852=CARTESIAN_POINT('',(3.16112223770586,1.90589294416895,3.25708535803069));
#853=CARTESIAN_POINT('',(3.16112223770586,1.89745893474185,3.25347995001472));
#854=CARTESIAN_POINT('',(3.16112223770586,1.88807477167158,3.24954667949869));
#855=CARTESIAN_POINT('',(3.16112223770586,1.87746167613817,3.24519410218551));
#856=CARTESIAN_POINT('',(3.16112223770586,1.86268254283377,3.23928392545454));
#857=CARTESIAN_POINT('',(3.16112223770586,1.84828255997653,3.23373162888652));
#858=CARTESIAN_POINT('',(3.16112223770586,1.83159921138721,3.22750440953408));
#859=CARTESIAN_POINT('',(3.16112223770586,1.81011324516636,3.21972173091045));
#860=CARTESIAN_POINT('',(3.16112223770586,1.77475233719165,3.2076244636069));
#861=CARTESIAN_POINT('',(3.16112223770586,1.74237327315338,3.19748515315609));
#862=CARTESIAN_POINT('',(3.16112223770586,1.70688610973486,3.1870179003263));
#863=CARTESIAN_POINT('',(3.16112223770586,1.66890054910824,3.17642128436197));
#864=CARTESIAN_POINT('',(3.16112223770586,1.62397522627441,3.16514363744118));
#865=CARTESIAN_POINT('',(3.16112223770586,1.58931728925026,3.15719565693388));
#866=CARTESIAN_POINT('',(3.16112223770586,1.56041614774646,3.15086874953131));
#867=CARTESIAN_POINT('',(3.16112223770586,1.52830823039215,3.14425540078828));
#868=CARTESIAN_POINT('',(3.16112223770586,1.48782835186513,3.13663456760188));
#869=CARTESIAN_POINT('',(3.16112223770586,1.44804712986793,3.12979856669138));
#870=CARTESIAN_POINT('',(3.16112223770586,1.4201024228001,3.12543994862263));
#871=CARTESIAN_POINT('',(3.16112223770586,1.39325478926232,3.12147987145775));
#872=CARTESIAN_POINT('',(3.16112223770586,1.3660515740641,3.11767739067353));
#873=CARTESIAN_POINT('',(3.16112223770586,1.32627280093553,3.11269039278616));
#874=CARTESIAN_POINT('',(3.16112223770586,1.28438086953623,3.10806333911633));
#875=CARTESIAN_POINT('',(3.16112223770586,1.24170486282856,3.10398082895223));
#876=CARTESIAN_POINT('',(3.16112223770586,1.20732804926818,3.10119959583044));
#877=CARTESIAN_POINT('',(3.16112223770586,1.17788492673663,3.09911447755877));
#878=CARTESIAN_POINT('',(3.16112223770586,1.14792151095655,3.09721491205206));
#879=CARTESIAN_POINT('',(3.16112223770586,1.10819984662731,3.09517335987412));
#880=CARTESIAN_POINT('',(3.16112223770585,1.06260279424413,3.09350030523359));
#881=CARTESIAN_POINT('',(3.16112223770589,1.03182297295138,3.09281978777784));
#882=CARTESIAN_POINT('',(3.16112223770584,1.00075817605264,3.09235980539006));
#883=CARTESIAN_POINT('',(3.16112223770584,0.984905345092183,3.0922439670415));
#884=CARTESIAN_POINT('',(3.16112223770586,0.969312785092843,3.09224394034728));
#885=CARTESIAN_POINT('',(3.16112223770586,0.969312777369261,3.09224394039997));
#886=VECTOR('',#887,1.);
#887=DIRECTION('',(0.,-1.,0.));
#888=CARTESIAN_POINT('',(2.56274531525643,0.969312785479515,3.34149225150796));
#889=CARTESIAN_POINT('',(3.16112223770586,0.969312777358953,3.09224393926865));
#890=CARTESIAN_POINT('',(3.14620823848503,0.969312783556986,3.10545097692606));
#891=CARTESIAN_POINT('',(3.12664138084229,0.969312785692188,3.12176034440778));
#892=CARTESIAN_POINT('',(3.09509376794402,0.969312785387945,3.14607715856195));
#893=CARTESIAN_POINT('',(3.06131234943638,0.969312785528451,3.17054321361204));
#894=CARTESIAN_POINT('',(3.02016131164453,0.969312785461783,3.19706930918215));
#895=CARTESIAN_POINT('',(2.96919967759723,0.969312785485218,3.22629714416687));
#896=CARTESIAN_POINT('',(2.91989822982686,0.969312785474584,3.25105015783859));
#897=CARTESIAN_POINT('',(2.8629012460662,0.969312785487367,3.27526717181679));
#898=CARTESIAN_POINT('',(2.80642926562322,0.969312785438301,3.295572772426));
#899=CARTESIAN_POINT('',(2.76086181135417,0.969312785562325,3.30879757106011));
#900=CARTESIAN_POINT('',(2.70666723506489,0.969312785308484,3.32209805222192));
#901=CARTESIAN_POINT('',(2.66657708739889,0.96931278806784,3.32982227579994));
#902=CARTESIAN_POINT('',(2.61157340697922,0.969312779347511,3.33743759033201));
#903=CARTESIAN_POINT('',(2.5837471039909,0.969312785378786,3.34012247802163));
#904=CARTESIAN_POINT('',(2.56309211346196,0.969312785478887,3.34146981133805));
#905=CARTESIAN_POINT('',(2.56274531525643,0.969312785479515,3.34149225150796));
#906=CARTESIAN_POINT('',(2.56274531525643,0.969312785479516,3.34149225150796));
#907=VECTOR('',#908,1.);
#908=DIRECTION('',(0.,-1.,0.));
#909=CARTESIAN_POINT('',(2.28907231842947,0.497918839278496,3.35920078391973));
#910=CARTESIAN_POINT('',(1.42425181216904,-8.88178419700125E-16,3.41516064164423));
#911=CARTESIAN_POINT('',(1.78935414721805,-1.11022302462516E-15,3.39153599979506));
#912=CARTESIAN_POINT('',(2.10576131426593,0.182170853044543,3.371062271521));
#913=CARTESIAN_POINT('',(2.28907231842947,0.497918839278495,3.35920078391973));
#914=CARTESIAN_POINT('',(2.56274531525643,0.969312785479514,3.34149225150796));
#915=VECTOR('',#916,1.);
#916=DIRECTION('',(-0.501816402531931,-0.864364467815943,0.0324709859285562));
#917=CARTESIAN_POINT('',(2.28907231842947,0.497918839278496,12.5));
#918=CARTESIAN_POINT('',(2.28907231842947,0.497918839278496,3.35920078391973));
#919=VECTOR('',#920,1.);
#920=DIRECTION('',(-9.71663854225857E-17,-4.85831927112929E-17,1.));
#921=AXIS2_PLACEMENT_3D('',#922,#923,#924);
#922=CARTESIAN_POINT('',(1.42425181216904,1.,12.5));
#923=DIRECTION('',(0.,0.,1.));
#924=DIRECTION('',(-1.11022302462516E-15,-1.,0.));
#925=CARTESIAN_POINT('',(-2.28907231842947,0.497918839278497,12.5));
#926=AXIS2_PLACEMENT_3D('',#927,#928,#929);
#927=CARTESIAN_POINT('',(-1.42425181216904,0.999999999999999,12.5));
#928=DIRECTION('',(0.,0.,1.));
#929=DIRECTION('',(-0.864820506260432,-0.502081160721502,0.));
#930=CARTESIAN_POINT('',(3.16112223770586,2.,12.5));
#931=CARTESIAN_POINT('',(3.16112223770584,2.,12.5));
#932=VECTOR('',#933,1.);
#933=DIRECTION('',(-0.502081160721504,-0.86482050626043,0.));
#934=CARTESIAN_POINT('',(-3.16112223770583,2.,12.5));
#935=AXIS2_PLACEMENT_3D('',#936,#937,#938);
#936=CARTESIAN_POINT('',(1.37667655053519E-14,3.4981734504296,12.5));
#937=DIRECTION('',(0.,0.,1.));
#938=DIRECTION('',(0.903649370878861,-0.428273060687033,0.));
#939=CARTESIAN_POINT('',(-2.28907231842947,0.497918839278497,12.5));
#940=VECTOR('',#941,1.);
#941=DIRECTION('',(-0.502081160721502,0.864820506260432,0.));
#942=CARTESIAN_POINT('',(-0.0740021109689008,2.,12.5));
#943=CARTESIAN_POINT('',(0.0740021109689235,2.,12.5));
#944=CARTESIAN_POINT('',(-0.0740021109688889,2.,12.5));
#945=VECTOR('',#946,1.);
#946=DIRECTION('',(1.,0.,0.));
#947=AXIS2_PLACEMENT_3D('',#948,#949,#950);
#948=CARTESIAN_POINT('',(1.37667655053519E-14,3.4981734504296,12.5));
#949=DIRECTION('',(0.,0.,1.));
#950=DIRECTION('',(0.0493347406459361,-0.998782300286403,0.));
#951=CARTESIAN_POINT('',(-2.28907231842947,0.497918839278498,3.65543835075152));
#952=CARTESIAN_POINT('',(-2.28907231842947,0.497918839278497,12.5));
#953=VECTOR('',#954,1.);
#954=DIRECTION('',(-5.02104261874637E-17,6.27630327343296E-17,-1.));
#955=CARTESIAN_POINT('',(-1.42425181216904,-3.33066907387547E-16,3.59947849302702));
#956=CARTESIAN_POINT('',(-1.78935414721805,-5.55111512312578E-16,3.6231031348762));
#957=CARTESIAN_POINT('',(-2.10576131426593,0.182170853044544,3.64357686315026));
#958=CARTESIAN_POINT('',(-2.28907231842947,0.497918839278498,3.65543835075152));
#959=CARTESIAN_POINT('',(-3.16112223770584,2.,3.7118660014121));
#960=CARTESIAN_POINT('',(-2.28907231842947,0.497918839278498,3.65543835075152));
#961=VECTOR('',#962,1.);
#962=DIRECTION('',(-0.50181640253193,0.864364467815944,0.0324709859285559));
#963=CARTESIAN_POINT('',(-9.77399847310616,2.,4.13976475104157));
#964=CARTESIAN_POINT('',(-9.77399847310616,2.,4.13976475104157));
#965=VECTOR('',#966,1.);
#966=DIRECTION('',(0.997913059476019,0.,-0.0645718648268107));
#967=CARTESIAN_POINT('',(-9.77399847310616,-2.53487482579305E-16,4.13976475104157));
#968=VECTOR('',#969,1.);
#969=DIRECTION('',(0.,1.,0.));
#970=CARTESIAN_POINT('',(-10.2260015268938,2.,-2.84562666529057));
#971=AXIS2_PLACEMENT_3D('',#972,#973,#974);
#972=CARTESIAN_POINT('',(-10.,2.,0.6470690428755));
#973=DIRECTION('',(0.,1.,6.12323399573677E-17));
#974=DIRECTION('',(-0.0645718648268111,6.11045517057324E-17,-0.997913059476019));
#975=CARTESIAN_POINT('',(-10.2260015268938,1.74244379360822E-16,-2.84562666529057));
#976=VECTOR('',#977,1.);
#977=DIRECTION('',(0.,1.,0.));
#978=CARTESIAN_POINT('',(-0.226001526893839,2.,-3.49269570816607));
#979=VECTOR('',#980,1.);
#980=DIRECTION('',(-0.997913059476019,0.,0.0645718648268109));
#981=CARTESIAN_POINT('',(3.49817345042962,2.,-0.113059766094686));
#982=VECTOR('',#983,1.);
#983=DIRECTION('',(0.,0.,1.));
#984=CARTESIAN_POINT('',(-10.,2.,-0.8529309571245));
#985=AXIS2_PLACEMENT_3D('',#986,#987,#988);
#986=CARTESIAN_POINT('',(-10.,2.,0.6470690428755));
#987=DIRECTION('',(0.,1.,6.12323399573677E-17));
#988=DIRECTION('',(6.12323399573676E-17,6.12323399573677E-17,-1.));
#989=AXIS2_PLACEMENT_3D('',#990,#991,#992);
#990=CARTESIAN_POINT('',(1.4210854715202E-14,3.4981734504296,0.5));
#991=DIRECTION('',(0.,0.,1.));
#992=DIRECTION('',(0.990260106945891,-0.139229740326962,0.));
#993=AXIS2_PLACEMENT_3D('',#994,#995,#996);
#994=CARTESIAN_POINT('',(1.37667655053519E-14,3.4981734504296,0.5));
#995=DIRECTION('',(0.,0.,1.));
#996=DIRECTION('',(-0.990260106945911,0.139229740326821,0.));
#997=CARTESIAN_POINT('',(-3.16112223770583,2.,1.50243342557388));
#998=VECTOR('',#999,1.);
#999=DIRECTION('',(-8.03987801585812E-16,1.40697865277517E-15,1.));
#1000=CARTESIAN_POINT('',(-3.16112223770583,2.,3.7118660014121));
#1001=VECTOR('',#1002,1.);
#1002=DIRECTION('',(5.05328218620039E-17,0.,1.));
#1003=CARTESIAN_POINT('',(3.16112223770585,2.,3.30277313325915));
#1004=VECTOR('',#1005,1.);
#1005=DIRECTION('',(0.,0.,1.));
#1006=CARTESIAN_POINT('',(3.16112223770584,2.,3.30277313325915));
#1007=VECTOR('',#1008,1.);
#1008=DIRECTION('',(-0.501816402531932,-0.864364467815943,0.0324709859285562));
#1009=CARTESIAN_POINT('',(-0.0740021109689055,2.,3.49921758219922));
#1010=CARTESIAN_POINT('',(0.0740021109689265,2.,3.49921758219922));
#1011=AXIS2_PLACEMENT_3D('',#1012,#1013,#1014);
#1012=CARTESIAN_POINT('',(0.,2.,1.22464679914735E-16));
#1013=DIRECTION('',(0.,1.,6.12323399573677E-17));
#1014=DIRECTION('',(-0.0211434602768292,-6.12186515937202E-17,0.99977645205692));
#1015=CARTESIAN_POINT('',(-0.0740021109689097,2.,3.49921758219922));
#1016=VECTOR('',#1017,1.);
#1017=DIRECTION('',(-1.54184238254315E-18,-4.93389562413808E-17,1.));
#1018=CARTESIAN_POINT('',(0.0740021109689365,2.,3.49921758219922));
#1019=VECTOR('',#1020,1.);
#1020=DIRECTION('',(0.,-4.93389562413808E-17,1.));
#1021=CARTESIAN_POINT('',(0.0740021109689257,2.,3.49921758219922));
#1022=CARTESIAN_POINT('',(0.105435404126395,2.00155022252755,3.49855575631228));
#1023=CARTESIAN_POINT('',(0.168155023089393,2.00663562874852,3.49637670813017));
#1024=CARTESIAN_POINT('',(0.261437139554484,2.02013194691995,3.49063548352116));
#1025=CARTESIAN_POINT('',(0.363758530130636,2.04156246547788,3.48159990130053));
#1026=CARTESIAN_POINT('',(0.484026106278729,2.07608871547763,3.46724620015198));
#1027=CARTESIAN_POINT('',(0.622471979373501,2.13029595930418,3.44526929255237));
#1028=CARTESIAN_POINT('',(0.759484329961039,2.20161218624979,3.41750053415197));
#1029=CARTESIAN_POINT('',(0.88149866503565,2.28194777075122,3.38781835885309));
#1030=CARTESIAN_POINT('',(0.989292422034488,2.36794569274167,3.35783908795403));
#1031=CARTESIAN_POINT('',(1.10664035916883,2.4802832417904,3.32130912854086));
#1032=CARTESIAN_POINT('',(1.22920046170772,2.62921246093594,3.27798481523457));
#1033=CARTESIAN_POINT('',(1.34400403882657,2.8195429149283,3.23228569225218));
#1034=CARTESIAN_POINT('',(1.42182812359034,3.00725043503347,3.19840303515636));
#1035=CARTESIAN_POINT('',(1.46864484115871,3.18031180859774,3.1770257285625));
#1036=CARTESIAN_POINT('',(1.4928711952354,3.32920370213327,3.16566380840979));
#1037=CARTESIAN_POINT('',(1.49956895587842,3.43494240293682,3.16248202902063));
#1038=CARTESIAN_POINT('',(1.50030917817245,3.53016694899292,3.16213099905317));
#1039=CARTESIAN_POINT('',(1.49649360777248,3.62604202750525,3.1639435884789));
#1040=CARTESIAN_POINT('',(1.47897842774297,3.7622503071439,3.17220355014619));
#1041=CARTESIAN_POINT('',(1.44561971443137,3.90785008810941,3.18760797757076));
#1042=CARTESIAN_POINT('',(1.39601861808041,4.0544967401983,3.20974636853114));
#1043=CARTESIAN_POINT('',(1.32946408318274,4.19898402048156,3.23800991689276));
#1044=CARTESIAN_POINT('',(1.24819258334629,4.33497394038803,3.27031355459036));
#1045=CARTESIAN_POINT('',(1.15566297665883,4.4584161774783,3.30423230162748));
#1046=CARTESIAN_POINT('',(1.05344532340866,4.5694859553831,3.33832602632204));
#1047=CARTESIAN_POINT('',(0.93232032441227,4.67728982981364,3.37446233948321));
#1048=CARTESIAN_POINT('',(0.791783289383523,4.77654447724589,3.41051585332268));
#1049=CARTESIAN_POINT('',(0.634601889289234,4.86102084732889,3.44323629489736));
#1050=CARTESIAN_POINT('',(0.491619594814455,4.91769872646504,3.4661970146683));
#1051=CARTESIAN_POINT('',(0.368424731780729,4.95355321106392,3.48108396945286));
#1052=CARTESIAN_POINT('',(0.27154641870147,4.97435039725115,3.48984659080665));
#1053=CARTESIAN_POINT('',(0.187045789493428,4.98713099234197,3.49527842414639));
#1054=CARTESIAN_POINT('',(0.115072919269036,4.99426212025434,3.49832459958753));
#1055=CARTESIAN_POINT('',(0.0537196436917477,4.99756158061093,3.49973772401278));
#1056=CARTESIAN_POINT('',(0.0118705193338838,4.9982477167264,3.50003182813417));
#1057=CARTESIAN_POINT('',(-0.0303809339326393,4.99805636876785,3.49994982630822));
#1058=CARTESIAN_POINT('',(-0.0779423090375191,4.99661117114891,3.49933034357721));
#1059=CARTESIAN_POINT('',(-0.156493947395487,4.99083281752633,3.49685801284702));
#1060=CARTESIAN_POINT('',(-0.262315414921015,4.9769045460899,3.49092163459267));
#1061=CARTESIAN_POINT('',(-0.406442146578915,4.94531423291296,3.47760209551089));
#1062=CARTESIAN_POINT('',(-0.564535877839417,4.89160936620384,3.45549025493185));
#1063=CARTESIAN_POINT('',(-0.713697155328311,4.82050814393841,3.42739129844806));
#1064=CARTESIAN_POINT('',(-0.838826368534227,4.74422984554429,3.39866782190114));
#1065=CARTESIAN_POINT('',(-0.949899416332845,4.66172364143406,3.36922845931092));
#1066=CARTESIAN_POINT('',(-1.07145915571664,4.55306997154899,3.33288623251622));
#1067=CARTESIAN_POINT('',(-1.1999947839705,4.40720370860745,3.2888908851935));
#1068=CARTESIAN_POINT('',(-1.32273179587065,4.21788378586031,3.2411548930406));
#1069=CARTESIAN_POINT('',(-1.40942090727993,4.02498165036794,3.20395712910642));
#1070=CARTESIAN_POINT('',(-1.4641906320094,3.83899185350118,3.17911121221332));
#1071=CARTESIAN_POINT('',(-1.49351930249904,3.66910624595791,3.16536361454313));
#1072=CARTESIAN_POINT('',(-1.50004123354485,3.55400419825639,3.16225810136482));
#1073=CARTESIAN_POINT('',(-1.49995782264114,3.43958737691928,3.16229766469947));
#1074=CARTESIAN_POINT('',(-1.49321988786213,3.32479862890904,3.16550617541785));
#1075=CARTESIAN_POINT('',(-1.46386913207253,3.15650902788468,3.17925647154716));
#1076=CARTESIAN_POINT('',(-1.41603057730618,2.99381980079916,3.20095708596124));
#1077=CARTESIAN_POINT('',(-1.35068081132837,2.83860786146689,3.22920630378851));
#1078=CARTESIAN_POINT('',(-1.27001222442687,2.69443359252481,3.26190507779994));
#1079=CARTESIAN_POINT('',(-1.17678588132253,2.56359204066478,3.2967857938082));
#1080=CARTESIAN_POINT('',(-1.07619698162385,2.4498100226491,3.3310273593132));
#1081=CARTESIAN_POINT('',(-0.971737466552965,2.35277115298523,3.36298442048993));
#1082=CARTESIAN_POINT('',(-0.860125106676128,2.26657425832148,3.39336326375782));
#1083=CARTESIAN_POINT('',(-0.732520046194249,2.18593149804982,3.4234791011801));
#1084=CARTESIAN_POINT('',(-0.589203294636216,2.1154709991429,3.45119370665693));
#1085=CARTESIAN_POINT('',(-0.448315501162367,2.06446522704216,3.4720433201725));
#1086=CARTESIAN_POINT('',(-0.331045475865581,2.0339540884723,3.48479736558159));
#1087=CARTESIAN_POINT('',(-0.236902384018204,2.0162118959606,3.49230076585214));
#1088=CARTESIAN_POINT('',(-0.155005341846601,2.00546244517967,3.49687925016918));
#1089=CARTESIAN_POINT('',(-0.100792493206577,2.00132181256391,3.49865270470998));
#1090=CARTESIAN_POINT('',(-0.0740021109689049,2.,3.49921758219922));
ENDSEC;
END-ISO-10303-21;
