ISO-10303-21;
HEADER;
FILE_DESCRIPTION(('STEP AP242'),
    '1');
FILE_NAME('Ронити МД - Основание',
    '',
    ('UNSPECIFIED'),
    ('UNSPECIFIED'),
    'C3D Converter',
    'C3D Toolkit',
    '');
FILE_SCHEMA(('AP242_MANAGED_MODEL_BASED_3D_ENGINEERING_MIM_LF { 1 0 10303 442 1 1 4 }'));
ENDSEC;

DATA;
#1=PRODUCT_DEFINITION('','UNSPECIFIED',#28,#31);
#2=SHAPE_DEFINITION_REPRESENTATION(#26,#3);
#3=SHAPE_REPRESENTATION('NONE',(#4),#8);
#4=AXIS2_PLACEMENT_3D('',#5,#6,#7);
#5=CARTESIAN_POINT('',(0.,0.,0.));
#6=DIRECTION('',(0.,0.,1.));
#7=DIRECTION('',(1.,0.,0.));
#8=(GEOMETRIC_REPRESENTATION_CONTEXT(3)GLOBAL_UNCERTAINTY_ASSIGNED_CONTEXT((#10))
GLOBAL_UNIT_ASSIGNED_CONTEXT((#9,#11,#12))REPRESENTATION_CONTEXT('NONE','NONE'));
#9=(LENGTH_UNIT()NAMED_UNIT(*)SI_UNIT(.MILLI.,.METRE.));
#10=UNCERTAINTY_MEASURE_WITH_UNIT(LENGTH_MEASURE(1.E-5),#9,'NONE','NONE');
#11=(NAMED_UNIT(*)PLANE_ANGLE_UNIT()SI_UNIT($,.RADIAN.));
#12=(NAMED_UNIT(*)SI_UNIT($,.STERADIAN.)SOLID_ANGLE_UNIT());
#13=MANIFOLD_SOLID_BREP('',#14);
#14=CLOSED_SHELL('',(#53,#54,#55,#56,#57,#58,#59,#60,#61,#62,#63,#64));
#15=COLOUR_RGB('',1.,0.898039215686275,0.8);
#16=FILL_AREA_STYLE_COLOUR('',#15);
#17=FILL_AREA_STYLE($,(#16));
#18=SURFACE_STYLE_FILL_AREA(#17);
#19=SURFACE_SIDE_STYLE('',(#18));
#20=SURFACE_STYLE_USAGE(.BOTH.,#19);
#21=PRESENTATION_STYLE_ASSIGNMENT((#20));
#22=MECHANICAL_DESIGN_GEOMETRIC_PRESENTATION_REPRESENTATION('NONE',(#23),#8);
#23=STYLED_ITEM('',(#21),#13);
#24=ADVANCED_BREP_SHAPE_REPRESENTATION('NONE',(#13),#8);
#25=SHAPE_REPRESENTATION_RELATIONSHIP('','',#3,#24);
#26=PRODUCT_DEFINITION_SHAPE('NONE','NONE',#1);
#27=MECHANICAL_CONTEXT('NONE',#32,'mechanical');
#28=PRODUCT_DEFINITION_FORMATION_WITH_SPECIFIED_SOURCE('ANY','UNSPECIFIED',#29,.NOT_KNOWN.);
#29=PRODUCT('\X2\0420043E043D043804420438\X0\ \X2\041C0414\X0\','\X2\041E0441043D043E04320430043D04380435\X0\',
'NONE',(#27));
#30=PRODUCT_RELATED_PRODUCT_CATEGORY('detail','',(#29));
#31=DESIGN_CONTEXT('detailed design',#32,'design');
#32=APPLICATION_CONTEXT('configuration controlled 3d designs of mechanical parts and assemblies');
#33=APPLICATION_PROTOCOL_DEFINITION('international standard','config_control_design',
1994,#32);
#34=CC_DESIGN_DATE_AND_TIME_ASSIGNMENT(#35,#39,(#1));
#35=DATE_AND_TIME(#36,#37);
#36=CALENDAR_DATE(0,1,1);
#37=LOCAL_TIME(0,0,0.,#38);
#38=COORDINATED_UNIVERSAL_TIME_OFFSET(0,0,.AHEAD.);
#39=DATE_TIME_ROLE('creation_date');
#40=CC_DESIGN_APPROVAL(#41,(#1));
#41=APPROVAL(#42,'UNSPECIFIED');
#42=APPROVAL_STATUS('not_yet_approved');
#43=APPROVAL_DATE_TIME(#44,#41);
#44=DATE_AND_TIME(#45,#46);
#45=CALENDAR_DATE(0,1,1);
#46=LOCAL_TIME(0,0,0.,#47);
#47=COORDINATED_UNIVERSAL_TIME_OFFSET(0,0,.AHEAD.);
#48=PERSON('UNSPECIFIED','io','UNSPECIFIED',('UNSPECIFIED'),('UNSPECIFIED'),('UNSPECIFIED'));
#49=ORGANIZATION('UNSPECIFIED','UNSPECIFIED','UNSPECIFIED');
#50=PERSON_AND_ORGANIZATION(#48,#49);
#51=PERSON_AND_ORGANIZATION_ROLE('creator');
#52=CC_DESIGN_PERSON_AND_ORGANIZATION_ASSIGNMENT(#50,#51,(#28,#1));
#53=ADVANCED_FACE('',(#65,#67,#69,#71,#73,#75,#77),#79,.T.);
#54=ADVANCED_FACE('',(#84,#86,#88,#90,#92,#94,#96),#98,.F.);
#55=ADVANCED_FACE('',(#103,#105),#107,.F.);
#56=ADVANCED_FACE('',(#112,#114),#116,.F.);
#57=ADVANCED_FACE('',(#121),#123,.T.);
#58=ADVANCED_FACE('',(#128),#130,.T.);
#59=ADVANCED_FACE('',(#135),#137,.T.);
#60=ADVANCED_FACE('',(#142),#144,.T.);
#61=ADVANCED_FACE('',(#149,#151),#153,.F.);
#62=ADVANCED_FACE('',(#158,#160),#162,.F.);
#63=ADVANCED_FACE('',(#167,#169),#171,.F.);
#64=ADVANCED_FACE('',(#176,#178),#180,.F.);
#65=FACE_BOUND('',#66,.T.);
#66=EDGE_LOOP('',(#185,#186,#187,#188));
#67=FACE_BOUND('',#68,.T.);
#68=EDGE_LOOP('',(#189));
#69=FACE_BOUND('',#70,.T.);
#70=EDGE_LOOP('',(#190));
#71=FACE_BOUND('',#72,.T.);
#72=EDGE_LOOP('',(#191));
#73=FACE_BOUND('',#74,.T.);
#74=EDGE_LOOP('',(#192));
#75=FACE_BOUND('',#76,.T.);
#76=EDGE_LOOP('',(#193));
#77=FACE_BOUND('',#78,.T.);
#78=EDGE_LOOP('',(#194));
#79=PLANE('',#80);
#80=AXIS2_PLACEMENT_3D('',#81,#82,#83);
#81=CARTESIAN_POINT('',(0.,4.,2.44929359829471E-16));
#82=DIRECTION('',(0.,1.,6.12323399573677E-17));
#83=DIRECTION('',(6.12323399573677E-17,6.12323399573677E-17,-1.));
#84=FACE_BOUND('',#85,.T.);
#85=EDGE_LOOP('',(#195,#196,#197,#198));
#86=FACE_BOUND('',#87,.T.);
#87=EDGE_LOOP('',(#199));
#88=FACE_BOUND('',#89,.T.);
#89=EDGE_LOOP('',(#200));
#90=FACE_BOUND('',#91,.T.);
#91=EDGE_LOOP('',(#201));
#92=FACE_BOUND('',#93,.T.);
#93=EDGE_LOOP('',(#202));
#94=FACE_BOUND('',#95,.T.);
#95=EDGE_LOOP('',(#203));
#96=FACE_BOUND('',#97,.T.);
#97=EDGE_LOOP('',(#204));
#98=PLANE('',#99);
#99=AXIS2_PLACEMENT_3D('',#100,#101,#102);
#100=CARTESIAN_POINT('',(0.,0.,0.));
#101=DIRECTION('',(0.,1.,6.12323399573677E-17));
#102=DIRECTION('',(6.12323399573677E-17,6.12323399573677E-17,-1.));
#103=FACE_OUTER_BOUND('',#104,.T.);
#104=EDGE_LOOP('',(#205));
#105=FACE_OUTER_BOUND('',#106,.T.);
#106=EDGE_LOOP('',(#206));
#107=CYLINDRICAL_SURFACE('',#108,2.4);
#108=AXIS2_PLACEMENT_3D('',#109,#110,#111);
#109=CARTESIAN_POINT('',(-135.85,10.,-7.99999999999999));
#110=DIRECTION('',(0.,-1.,-6.12323399573677E-17));
#111=DIRECTION('',(0.707106781186547,4.32978028117747E-17,-0.707106781186548));
#112=FACE_OUTER_BOUND('',#113,.T.);
#113=EDGE_LOOP('',(#207));
#114=FACE_OUTER_BOUND('',#115,.T.);
#115=EDGE_LOOP('',(#208));
#116=CYLINDRICAL_SURFACE('',#117,2.4);
#117=AXIS2_PLACEMENT_3D('',#118,#119,#120);
#118=CARTESIAN_POINT('',(-135.85,10.,-40.));
#119=DIRECTION('',(0.,-1.,-6.12323399573677E-17));
#120=DIRECTION('',(6.12323399573677E-17,-6.12323399573677E-17,1.));
#121=FACE_BOUND('',#122,.T.);
#122=EDGE_LOOP('',(#209,#210,#211,#212));
#123=PLANE('',#124);
#124=AXIS2_PLACEMENT_3D('',#125,#126,#127);
#125=CARTESIAN_POINT('',(2.93915231795365E-15,2.93915231795365E-15,-48.));
#126=DIRECTION('',(5.9211894646675E-17,0.,-1.));
#127=DIRECTION('',(-1.,3.28692043842088E-33,-5.9211894646675E-17));
#128=FACE_BOUND('',#129,.T.);
#129=EDGE_LOOP('',(#213,#214,#215,#216));
#130=PLANE('',#131);
#131=AXIS2_PLACEMENT_3D('',#132,#133,#134);
#132=CARTESIAN_POINT('',(-160.,2.93915231795365E-15,-48.));
#133=DIRECTION('',(-1.,0.,0.));
#134=DIRECTION('',(0.,-6.12323399573677E-17,1.));
#135=FACE_BOUND('',#136,.T.);
#136=EDGE_LOOP('',(#217,#218,#219,#220));
#137=PLANE('',#138);
#138=AXIS2_PLACEMENT_3D('',#139,#140,#141);
#139=CARTESIAN_POINT('',(-120.,4.49927934798557E-31,-7.34788079488412E-15));
#140=DIRECTION('',(-6.12323399573677E-17,-6.12323399573676E-17,1.));
#141=DIRECTION('',(1.,-3.74939945665464E-33,6.12323399573677E-17));
#142=FACE_BOUND('',#143,.T.);
#143=EDGE_LOOP('',(#221,#222,#223,#224));
#144=PLANE('',#145);
#145=AXIS2_PLACEMENT_3D('',#146,#147,#148);
#146=CARTESIAN_POINT('',(0.,0.,0.));
#147=DIRECTION('',(1.,-3.74939945665464E-33,6.12323399573676E-17));
#148=DIRECTION('',(6.12323399573676E-17,6.12323399573676E-17,-1.));
#149=FACE_OUTER_BOUND('',#150,.T.);
#150=EDGE_LOOP('',(#225));
#151=FACE_OUTER_BOUND('',#152,.T.);
#152=EDGE_LOOP('',(#226));
#153=CYLINDRICAL_SURFACE('',#154,2.4);
#154=AXIS2_PLACEMENT_3D('',#155,#156,#157);
#155=CARTESIAN_POINT('',(-87.85,10.,-40.0000000000001));
#156=DIRECTION('',(0.,-1.,-6.12323399573677E-17));
#157=DIRECTION('',(-6.12323399573677E-17,6.12323399573677E-17,-1.));
#158=FACE_OUTER_BOUND('',#159,.T.);
#159=EDGE_LOOP('',(#227));
#160=FACE_OUTER_BOUND('',#161,.T.);
#161=EDGE_LOOP('',(#228));
#162=CYLINDRICAL_SURFACE('',#163,2.4);
#163=AXIS2_PLACEMENT_3D('',#164,#165,#166);
#164=CARTESIAN_POINT('',(-87.85,10.,-7.99999999999998));
#165=DIRECTION('',(0.,-1.,-6.12323399573677E-17));
#166=DIRECTION('',(6.12323399573677E-17,-6.12323399573677E-17,1.));
#167=FACE_OUTER_BOUND('',#168,.T.);
#168=EDGE_LOOP('',(#229));
#169=FACE_OUTER_BOUND('',#170,.T.);
#170=EDGE_LOOP('',(#230));
#171=CYLINDRICAL_SURFACE('',#172,1.5);
#172=AXIS2_PLACEMENT_3D('',#173,#174,#175);
#173=CARTESIAN_POINT('',(-50.85,10.,-4.5));
#174=DIRECTION('',(0.,-1.,-6.12323399573677E-17));
#175=DIRECTION('',(-6.12323399573676E-17,6.12323399573676E-17,-1.));
#176=FACE_OUTER_BOUND('',#177,.T.);
#177=EDGE_LOOP('',(#231));
#178=FACE_OUTER_BOUND('',#179,.T.);
#179=EDGE_LOOP('',(#232));
#180=CYLINDRICAL_SURFACE('',#181,1.5);
#181=AXIS2_PLACEMENT_3D('',#182,#183,#184);
#182=CARTESIAN_POINT('',(-50.85,10.,-43.5));
#183=DIRECTION('',(0.,-1.,-6.12323399573677E-17));
#184=DIRECTION('',(-4.79818391169137E-15,6.12323399573676E-17,-1.));
#185=ORIENTED_EDGE('',*,*,#233,.T.);
#186=ORIENTED_EDGE('',*,*,#234,.F.);
#187=ORIENTED_EDGE('',*,*,#235,.T.);
#188=ORIENTED_EDGE('',*,*,#236,.T.);
#189=ORIENTED_EDGE('',*,*,#237,.T.);
#190=ORIENTED_EDGE('',*,*,#238,.T.);
#191=ORIENTED_EDGE('',*,*,#239,.T.);
#192=ORIENTED_EDGE('',*,*,#240,.T.);
#193=ORIENTED_EDGE('',*,*,#241,.T.);
#194=ORIENTED_EDGE('',*,*,#242,.T.);
#195=ORIENTED_EDGE('',*,*,#243,.F.);
#196=ORIENTED_EDGE('',*,*,#244,.F.);
#197=ORIENTED_EDGE('',*,*,#245,.F.);
#198=ORIENTED_EDGE('',*,*,#246,.F.);
#199=ORIENTED_EDGE('',*,*,#247,.T.);
#200=ORIENTED_EDGE('',*,*,#248,.T.);
#201=ORIENTED_EDGE('',*,*,#249,.T.);
#202=ORIENTED_EDGE('',*,*,#250,.T.);
#203=ORIENTED_EDGE('',*,*,#251,.T.);
#204=ORIENTED_EDGE('',*,*,#252,.T.);
#205=ORIENTED_EDGE('',*,*,#238,.F.);
#206=ORIENTED_EDGE('',*,*,#248,.F.);
#207=ORIENTED_EDGE('',*,*,#237,.F.);
#208=ORIENTED_EDGE('',*,*,#247,.F.);
#209=ORIENTED_EDGE('',*,*,#246,.T.);
#210=ORIENTED_EDGE('',*,*,#253,.F.);
#211=ORIENTED_EDGE('',*,*,#233,.F.);
#212=ORIENTED_EDGE('',*,*,#254,.F.);
#213=ORIENTED_EDGE('',*,*,#245,.T.);
#214=ORIENTED_EDGE('',*,*,#255,.T.);
#215=ORIENTED_EDGE('',*,*,#234,.T.);
#216=ORIENTED_EDGE('',*,*,#253,.T.);
#217=ORIENTED_EDGE('',*,*,#244,.T.);
#218=ORIENTED_EDGE('',*,*,#256,.T.);
#219=ORIENTED_EDGE('',*,*,#235,.F.);
#220=ORIENTED_EDGE('',*,*,#255,.F.);
#221=ORIENTED_EDGE('',*,*,#243,.T.);
#222=ORIENTED_EDGE('',*,*,#254,.T.);
#223=ORIENTED_EDGE('',*,*,#236,.F.);
#224=ORIENTED_EDGE('',*,*,#256,.F.);
#225=ORIENTED_EDGE('',*,*,#239,.F.);
#226=ORIENTED_EDGE('',*,*,#249,.F.);
#227=ORIENTED_EDGE('',*,*,#240,.F.);
#228=ORIENTED_EDGE('',*,*,#250,.F.);
#229=ORIENTED_EDGE('',*,*,#241,.F.);
#230=ORIENTED_EDGE('',*,*,#251,.F.);
#231=ORIENTED_EDGE('',*,*,#242,.F.);
#232=ORIENTED_EDGE('',*,*,#252,.F.);
#233=EDGE_CURVE('',#257,#258,#259,.T.);
#234=EDGE_CURVE('',#260,#258,#261,.T.);
#235=EDGE_CURVE('',#260,#262,#263,.T.);
#236=EDGE_CURVE('',#262,#257,#264,.T.);
#237=EDGE_CURVE('',#265,#265,#266,.T.);
#238=EDGE_CURVE('',#267,#267,#268,.T.);
#239=EDGE_CURVE('',#269,#269,#270,.T.);
#240=EDGE_CURVE('',#271,#271,#272,.T.);
#241=EDGE_CURVE('',#273,#273,#274,.T.);
#242=EDGE_CURVE('',#275,#275,#276,.T.);
#243=EDGE_CURVE('',#277,#278,#279,.T.);
#244=EDGE_CURVE('',#280,#277,#281,.T.);
#245=EDGE_CURVE('',#282,#280,#283,.T.);
#246=EDGE_CURVE('',#278,#282,#284,.T.);
#247=EDGE_CURVE('',#285,#285,#286,.F.);
#248=EDGE_CURVE('',#287,#287,#288,.F.);
#249=EDGE_CURVE('',#289,#289,#290,.F.);
#250=EDGE_CURVE('',#291,#291,#292,.F.);
#251=EDGE_CURVE('',#293,#293,#294,.F.);
#252=EDGE_CURVE('',#295,#295,#296,.F.);
#253=EDGE_CURVE('',#258,#282,#297,.T.);
#254=EDGE_CURVE('',#278,#257,#298,.T.);
#255=EDGE_CURVE('',#280,#260,#299,.T.);
#256=EDGE_CURVE('',#277,#262,#300,.T.);
#257=VERTEX_POINT('',#301);
#258=VERTEX_POINT('',#302);
#259=LINE('',#303,#304);
#260=VERTEX_POINT('',#306);
#261=LINE('',#307,#308);
#262=VERTEX_POINT('',#310);
#263=LINE('',#311,#312);
#264=LINE('',#314,#315);
#265=VERTEX_POINT('',#317);
#266=CIRCLE('',#318,2.4);
#267=VERTEX_POINT('',#322);
#268=CIRCLE('',#323,2.4);
#269=VERTEX_POINT('',#327);
#270=CIRCLE('',#328,2.4);
#271=VERTEX_POINT('',#332);
#272=CIRCLE('',#333,2.4);
#273=VERTEX_POINT('',#337);
#274=CIRCLE('',#338,1.5);
#275=VERTEX_POINT('',#342);
#276=CIRCLE('',#343,1.5);
#277=VERTEX_POINT('',#347);
#278=VERTEX_POINT('',#348);
#279=LINE('',#349,#350);
#280=VERTEX_POINT('',#352);
#281=LINE('',#353,#354);
#282=VERTEX_POINT('',#356);
#283=LINE('',#357,#358);
#284=LINE('',#360,#361);
#285=VERTEX_POINT('',#363);
#286=CIRCLE('',#364,2.4);
#287=VERTEX_POINT('',#368);
#288=CIRCLE('',#369,2.4);
#289=VERTEX_POINT('',#373);
#290=CIRCLE('',#374,2.4);
#291=VERTEX_POINT('',#378);
#292=CIRCLE('',#379,2.4);
#293=VERTEX_POINT('',#383);
#294=CIRCLE('',#384,1.5);
#295=VERTEX_POINT('',#388);
#296=CIRCLE('',#389,1.5);
#297=LINE('',#393,#394);
#298=LINE('',#396,#397);
#299=LINE('',#399,#400);
#300=LINE('',#402,#403);
#301=CARTESIAN_POINT('',(2.93915231795365E-15,4.,-48.));
#302=CARTESIAN_POINT('',(-160.,4.,-48.));
#303=CARTESIAN_POINT('',(2.93915231795365E-15,4.,-48.));
#304=VECTOR('',#305,1.);
#305=DIRECTION('',(-1.,0.,-4.44089209850063E-17));
#306=CARTESIAN_POINT('',(-160.,4.,-6.86049799777153E-15));
#307=CARTESIAN_POINT('',(-160.,4.,-6.86049799777153E-15));
#308=VECTOR('',#309,1.);
#309=DIRECTION('',(0.,5.55111512312578E-17,-1.));
#310=CARTESIAN_POINT('',(0.,4.,2.44929359829471E-16));
#311=CARTESIAN_POINT('',(-160.,4.,-8.20637151556044E-15));
#312=VECTOR('',#313,1.);
#313=DIRECTION('',(1.,0.,5.2820630471187E-17));
#314=CARTESIAN_POINT('',(0.,4.,2.44929359829471E-16));
#315=VECTOR('',#316,1.);
#316=DIRECTION('',(6.12323399573676E-17,5.55111512312578E-17,-1.));
#317=CARTESIAN_POINT('',(-135.85,4.,-37.6));
#318=AXIS2_PLACEMENT_3D('',#319,#320,#321);
#319=CARTESIAN_POINT('',(-135.85,4.,-40.));
#320=DIRECTION('',(0.,-1.,-6.12323399573677E-17));
#321=DIRECTION('',(6.12323399573677E-17,-6.12323399573677E-17,1.));
#322=CARTESIAN_POINT('',(-134.152943725152,4.,-9.6970562748477));
#323=AXIS2_PLACEMENT_3D('',#324,#325,#326);
#324=CARTESIAN_POINT('',(-135.85,4.,-7.99999999999999));
#325=DIRECTION('',(0.,-1.,-6.12323399573677E-17));
#326=DIRECTION('',(0.707106781186547,4.32978028117747E-17,-0.707106781186548));
#327=CARTESIAN_POINT('',(-87.85,4.,-42.4000000000001));
#328=AXIS2_PLACEMENT_3D('',#329,#330,#331);
#329=CARTESIAN_POINT('',(-87.85,4.,-40.0000000000001));
#330=DIRECTION('',(0.,-1.,-6.12323399573677E-17));
#331=DIRECTION('',(-6.12323399573677E-17,6.12323399573677E-17,-1.));
#332=CARTESIAN_POINT('',(-87.85,4.,-5.59999999999999));
#333=AXIS2_PLACEMENT_3D('',#334,#335,#336);
#334=CARTESIAN_POINT('',(-87.85,4.,-7.99999999999999));
#335=DIRECTION('',(0.,-1.,-6.12323399573677E-17));
#336=DIRECTION('',(6.12323399573677E-17,-6.12323399573677E-17,1.));
#337=CARTESIAN_POINT('',(-50.85,4.,-6.));
#338=AXIS2_PLACEMENT_3D('',#339,#340,#341);
#339=CARTESIAN_POINT('',(-50.85,4.,-4.5));
#340=DIRECTION('',(0.,-1.,-6.12323399573677E-17));
#341=DIRECTION('',(-6.12323399573676E-17,6.12323399573677E-17,-1.));
#342=CARTESIAN_POINT('',(-50.85,4.,-45.));
#343=AXIS2_PLACEMENT_3D('',#344,#345,#346);
#344=CARTESIAN_POINT('',(-50.85,4.,-43.5));
#345=DIRECTION('',(0.,-1.,-6.12323399573677E-17));
#346=DIRECTION('',(-4.79818391169137E-15,6.12323399573677E-17,-1.));
#347=CARTESIAN_POINT('',(0.,0.,0.));
#348=CARTESIAN_POINT('',(2.93915231795365E-15,2.93915231795365E-15,-48.));
#349=CARTESIAN_POINT('',(0.,0.,0.));
#350=VECTOR('',#351,1.);
#351=DIRECTION('',(6.12323399573676E-17,6.12323399573676E-17,-1.));
#352=CARTESIAN_POINT('',(-160.,5.91645678915759E-31,-7.105427357601E-15));
#353=CARTESIAN_POINT('',(-160.,6.7818578077112E-31,-9.79717439317882E-15));
#354=VECTOR('',#355,1.);
#355=DIRECTION('',(1.,-5.64468592606499E-33,6.12323399573677E-17));
#356=CARTESIAN_POINT('',(-160.,2.93915231795365E-15,-48.));
#357=CARTESIAN_POINT('',(-160.,2.93915231795365E-15,-48.));
#358=VECTOR('',#359,1.);
#359=DIRECTION('',(0.,-6.12323399573676E-17,1.));
#360=CARTESIAN_POINT('',(2.93915231795365E-15,2.93915231795365E-15,-48.));
#361=VECTOR('',#362,1.);
#362=DIRECTION('',(-1.,4.93038065763132E-33,-4.44089209850063E-17));
#363=CARTESIAN_POINT('',(-135.85,2.30233598239702E-15,-37.6));
#364=AXIS2_PLACEMENT_3D('',#365,#366,#367);
#365=CARTESIAN_POINT('',(-135.85,2.44929359829471E-15,-40.));
#366=DIRECTION('',(0.,-1.,-6.12323399573677E-17));
#367=DIRECTION('',(6.12323399573677E-17,-6.12323399573677E-17,1.));
#368=CARTESIAN_POINT('',(-134.152943725152,5.937734464072E-16,-9.6970562748477));
#369=AXIS2_PLACEMENT_3D('',#370,#371,#372);
#370=CARTESIAN_POINT('',(-135.85,4.89858719658941E-16,-7.99999999999999));
#371=DIRECTION('',(0.,-1.,-6.12323399573677E-17));
#372=DIRECTION('',(0.707106781186547,4.32978028117747E-17,-0.707106781186548));
#373=CARTESIAN_POINT('',(-87.85,2.59625121419239E-15,-42.4000000000001));
#374=AXIS2_PLACEMENT_3D('',#375,#376,#377);
#375=CARTESIAN_POINT('',(-87.85,2.44929359829471E-15,-40.0000000000001));
#376=DIRECTION('',(0.,-1.,-6.12323399573677E-17));
#377=DIRECTION('',(-6.12323399573677E-17,6.12323399573677E-17,-1.));
#378=CARTESIAN_POINT('',(-87.85,3.42901103761258E-16,-5.59999999999999));
#379=AXIS2_PLACEMENT_3D('',#380,#381,#382);
#380=CARTESIAN_POINT('',(-87.85,4.8985871965894E-16,-7.99999999999999));
#381=DIRECTION('',(0.,-1.,-6.12323399573677E-17));
#382=DIRECTION('',(6.12323399573677E-17,-6.12323399573677E-17,1.));
#383=CARTESIAN_POINT('',(-50.85,3.67394039744206E-16,-6.));
#384=AXIS2_PLACEMENT_3D('',#385,#386,#387);
#385=CARTESIAN_POINT('',(-50.85,2.75545529808154E-16,-4.5));
#386=DIRECTION('',(0.,-1.,-6.12323399573677E-17));
#387=DIRECTION('',(-6.12323399573676E-17,6.12323399573677E-17,-1.));
#388=CARTESIAN_POINT('',(-50.85,2.75545529808154E-15,-45.));
#389=AXIS2_PLACEMENT_3D('',#390,#391,#392);
#390=CARTESIAN_POINT('',(-50.85,2.66360678814549E-15,-43.5));
#391=DIRECTION('',(0.,-1.,-6.12323399573677E-17));
#392=DIRECTION('',(-4.79818391169137E-15,6.12323399573677E-17,-1.));
#393=CARTESIAN_POINT('',(-160.,4.,-48.));
#394=VECTOR('',#395,1.);
#395=DIRECTION('',(0.,-1.,0.));
#396=CARTESIAN_POINT('',(2.93915231795365E-15,2.93915231795365E-15,-48.));
#397=VECTOR('',#398,1.);
#398=DIRECTION('',(0.,1.,0.));
#399=CARTESIAN_POINT('',(-160.,6.74056663696628E-31,-8.45130087538991E-15));
#400=VECTOR('',#401,1.);
#401=DIRECTION('',(0.,1.,6.12323399573676E-17));
#402=CARTESIAN_POINT('',(-1.23141274236339E-78,-2.24963967399279E-31,-1.37750701299508E-47));
#403=VECTOR('',#404,1.);
#404=DIRECTION('',(2.73691106313441E-48,1.,6.12323399573676E-17));
ENDSEC;
END-ISO-10303-21;
