ISO-10303-21;
HEADER;
FILE_DESCRIPTION(('STEP AP242'),
    '1');
FILE_NAME('Деталь',
    '',
    ('UNSPECIFIED'),
    ('UNSPECIFIED'),
    'C3D Converter',
    'C3D Toolkit',
    '');
FILE_SCHEMA(('AP242_MANAGED_MODEL_BASED_3D_ENGINEERING_MIM_LF { 1 0 10303 442 1 1 4 }'));
ENDSEC;

DATA;
#1=PRODUCT_DEFINITION('','UNSPECIFIED',#28,#31);
#2=SHAPE_DEFINITION_REPRESENTATION(#26,#3);
#3=SHAPE_REPRESENTATION('NONE',(#4),#8);
#4=AXIS2_PLACEMENT_3D('',#5,#6,#7);
#5=CARTESIAN_POINT('',(0.,0.,0.));
#6=DIRECTION('',(0.,0.,1.));
#7=DIRECTION('',(1.,0.,0.));
#8=(GEOMETRIC_REPRESENTATION_CONTEXT(3)GLOBAL_UNCERTAINTY_ASSIGNED_CONTEXT((#10))
GLOBAL_UNIT_ASSIGNED_CONTEXT((#9,#11,#12))REPRESENTATION_CONTEXT('NONE','NONE'));
#9=(LENGTH_UNIT()NAMED_UNIT(*)SI_UNIT(.MILLI.,.METRE.));
#10=UNCERTAINTY_MEASURE_WITH_UNIT(LENGTH_MEASURE(1.E-5),#9,'NONE','NONE');
#11=(NAMED_UNIT(*)PLANE_ANGLE_UNIT()SI_UNIT($,.RADIAN.));
#12=(NAMED_UNIT(*)SI_UNIT($,.STERADIAN.)SOLID_ANGLE_UNIT());
#13=MANIFOLD_SOLID_BREP('',#14);
#14=CLOSED_SHELL('',(#53,#54,#55,#56,#57,#58,#59,#60,#61,#62,#63,#64,#65,#66,#67,
#68,#69,#70,#71,#72,#73,#74,#75,#76,#77));
#15=COLOUR_RGB('',0.564705882352941,0.564705882352941,0.564705882352941);
#16=FILL_AREA_STYLE_COLOUR('',#15);
#17=FILL_AREA_STYLE($,(#16));
#18=SURFACE_STYLE_FILL_AREA(#17);
#19=SURFACE_SIDE_STYLE('',(#18));
#20=SURFACE_STYLE_USAGE(.BOTH.,#19);
#21=PRESENTATION_STYLE_ASSIGNMENT((#20));
#22=MECHANICAL_DESIGN_GEOMETRIC_PRESENTATION_REPRESENTATION('NONE',(#23),#8);
#23=STYLED_ITEM('',(#21),#13);
#24=ADVANCED_BREP_SHAPE_REPRESENTATION('NONE',(#13),#8);
#25=SHAPE_REPRESENTATION_RELATIONSHIP('','',#3,#24);
#26=PRODUCT_DEFINITION_SHAPE('NONE','NONE',#1);
#27=MECHANICAL_CONTEXT('NONE',#32,'mechanical');
#28=PRODUCT_DEFINITION_FORMATION_WITH_SPECIFIED_SOURCE('ANY','UNSPECIFIED',#29,.NOT_KNOWN.);
#29=PRODUCT('','\X2\0414043504420430043B044C\X0\','NONE',(#27));
#30=PRODUCT_RELATED_PRODUCT_CATEGORY('detail','',(#29));
#31=DESIGN_CONTEXT('detailed design',#32,'design');
#32=APPLICATION_CONTEXT('configuration controlled 3d designs of mechanical parts and assemblies');
#33=APPLICATION_PROTOCOL_DEFINITION('international standard','config_control_design',
1994,#32);
#34=CC_DESIGN_DATE_AND_TIME_ASSIGNMENT(#35,#39,(#1));
#35=DATE_AND_TIME(#36,#37);
#36=CALENDAR_DATE(0,1,1);
#37=LOCAL_TIME(0,0,0.,#38);
#38=COORDINATED_UNIVERSAL_TIME_OFFSET(0,0,.AHEAD.);
#39=DATE_TIME_ROLE('creation_date');
#40=CC_DESIGN_APPROVAL(#41,(#1));
#41=APPROVAL(#42,'UNSPECIFIED');
#42=APPROVAL_STATUS('not_yet_approved');
#43=APPROVAL_DATE_TIME(#44,#41);
#44=DATE_AND_TIME(#45,#46);
#45=CALENDAR_DATE(0,1,1);
#46=LOCAL_TIME(0,0,0.,#47);
#47=COORDINATED_UNIVERSAL_TIME_OFFSET(0,0,.AHEAD.);
#48=PERSON('UNSPECIFIED','io','UNSPECIFIED',('UNSPECIFIED'),('UNSPECIFIED'),('UNSPECIFIED'));
#49=ORGANIZATION('UNSPECIFIED','UNSPECIFIED','UNSPECIFIED');
#50=PERSON_AND_ORGANIZATION(#48,#49);
#51=PERSON_AND_ORGANIZATION_ROLE('creator');
#52=CC_DESIGN_PERSON_AND_ORGANIZATION_ASSIGNMENT(#50,#51,(#28,#1));
#53=ADVANCED_FACE('',(#78),#80,.F.);
#54=ADVANCED_FACE('',(#85),#87,.F.);
#55=ADVANCED_FACE('',(#92),#94,.T.);
#56=ADVANCED_FACE('',(#99),#101,.T.);
#57=ADVANCED_FACE('',(#106),#108,.F.);
#58=ADVANCED_FACE('',(#113,#115),#117,.T.);
#59=ADVANCED_FACE('',(#122,#124),#126,.T.);
#60=ADVANCED_FACE('',(#131),#133,.F.);
#61=ADVANCED_FACE('',(#138),#140,.F.);
#62=ADVANCED_FACE('',(#145),#147,.F.);
#63=ADVANCED_FACE('',(#152),#154,.T.);
#64=ADVANCED_FACE('',(#159),#161,.T.);
#65=ADVANCED_FACE('',(#166),#168,.F.);
#66=ADVANCED_FACE('',(#173),#175,.T.);
#67=ADVANCED_FACE('',(#180),#182,.T.);
#68=ADVANCED_FACE('',(#187),#189,.T.);
#69=ADVANCED_FACE('',(#194),#196,.T.);
#70=ADVANCED_FACE('',(#201),#203,.T.);
#71=ADVANCED_FACE('',(#208),#210,.T.);
#72=ADVANCED_FACE('',(#215),#217,.T.);
#73=ADVANCED_FACE('',(#222),#224,.T.);
#74=ADVANCED_FACE('',(#229),#231,.T.);
#75=ADVANCED_FACE('',(#236),#238,.T.);
#76=ADVANCED_FACE('',(#243),#245,.T.);
#77=ADVANCED_FACE('',(#250),#252,.T.);
#78=FACE_BOUND('',#79,.T.);
#79=EDGE_LOOP('',(#257,#258,#259,#260));
#80=PLANE('',#81);
#81=AXIS2_PLACEMENT_3D('',#82,#83,#84);
#82=CARTESIAN_POINT('',(-23.,-1.40834381901946E-15,23.));
#83=DIRECTION('',(-1.,0.,0.));
#84=DIRECTION('',(0.,6.12323399573677E-17,-1.));
#85=FACE_BOUND('',#86,.T.);
#86=EDGE_LOOP('',(#261,#262,#263,#264));
#87=PLANE('',#88);
#88=AXIS2_PLACEMENT_3D('',#89,#90,#91);
#89=CARTESIAN_POINT('',(-23.,-1.40834381901946E-15,23.));
#90=DIRECTION('',(-1.,0.,0.));
#91=DIRECTION('',(0.,6.12323399573677E-17,-1.));
#92=FACE_BOUND('',#93,.T.);
#93=EDGE_LOOP('',(#265,#266,#267,#268));
#94=PLANE('',#95);
#95=AXIS2_PLACEMENT_3D('',#96,#97,#98);
#96=CARTESIAN_POINT('',(-24.1415122604953,-0.800000000000002,7.08735241075789));
#97=DIRECTION('',(0.999999820728698,6.01853107621011E-36,-0.000598784244906898));
#98=DIRECTION('',(-0.000598784244906898,6.26582901242348E-17,-0.999999820728698));
#99=FACE_BOUND('',#100,.T.);
#100=EDGE_LOOP('',(#269,#270,#271,#272));
#101=PLANE('',#102);
#102=AXIS2_PLACEMENT_3D('',#103,#104,#105);
#103=CARTESIAN_POINT('',(-24.1415122604953,-0.800000000000002,7.08735241075789));
#104=DIRECTION('',(0.999999820728698,6.01853107621011E-36,-0.000598784244906898));
#105=DIRECTION('',(-0.000598784244906898,6.26582901242348E-17,-0.999999820728698));
#106=FACE_BOUND('',#107,.T.);
#107=EDGE_LOOP('',(#273,#274,#275,#276,#277,#278,#279,#280,#281,#282,#283,#284,#285,
#286,#287));
#108=PLANE('',#109);
#109=AXIS2_PLACEMENT_3D('',#110,#111,#112);
#110=CARTESIAN_POINT('',(0.,0.,0.));
#111=DIRECTION('',(0.,-1.,-6.12323399573677E-17));
#112=DIRECTION('',(6.12323399573677E-17,6.12323399573677E-17,-1.));
#113=FACE_BOUND('',#114,.T.);
#114=EDGE_LOOP('',(#288,#289,#290,#291,#292,#293));
#115=FACE_BOUND('',#116,.T.);
#116=EDGE_LOOP('',(#294,#295,#296,#297,#298,#299,#300,#301));
#117=PLANE('',#118);
#118=AXIS2_PLACEMENT_3D('',#119,#120,#121);
#119=CARTESIAN_POINT('',(0.,-0.8,-4.89858719658941E-17));
#120=DIRECTION('',(0.,-1.,-6.12323399573677E-17));
#121=DIRECTION('',(6.12323399573677E-17,6.12323399573677E-17,-1.));
#122=FACE_BOUND('',#123,.T.);
#123=EDGE_LOOP('',(#302,#303,#304,#305,#306,#307));
#124=FACE_BOUND('',#125,.T.);
#125=EDGE_LOOP('',(#308,#309,#310,#311,#312,#313,#314,#315,#316,#317,#318));
#126=PLANE('',#127);
#127=AXIS2_PLACEMENT_3D('',#128,#129,#130);
#128=CARTESIAN_POINT('',(0.,1.6,9.79717439317882E-17));
#129=DIRECTION('',(0.,1.,6.12323399573677E-17));
#130=DIRECTION('',(6.12323399573677E-17,6.12323399573677E-17,-1.));
#131=FACE_BOUND('',#132,.T.);
#132=EDGE_LOOP('',(#319,#320,#321,#322));
#133=CYLINDRICAL_SURFACE('',#134,4.);
#134=AXIS2_PLACEMENT_3D('',#135,#136,#137);
#135=CARTESIAN_POINT('',(-24.3522305082058,-8.4,-3.30746411740627E-15));
#136=DIRECTION('',(0.,1.,6.12323399573677E-17));
#137=DIRECTION('',(1.,0.,0.));
#138=FACE_BOUND('',#139,.T.);
#139=EDGE_LOOP('',(#323,#324,#325,#326));
#140=PLANE('',#141);
#141=AXIS2_PLACEMENT_3D('',#142,#143,#144);
#142=CARTESIAN_POINT('',(-23.,1.40834381901946E-15,-23.));
#143=DIRECTION('',(0.,0.,-1.));
#144=DIRECTION('',(1.,0.,0.));
#145=FACE_BOUND('',#146,.T.);
#146=EDGE_LOOP('',(#327,#328,#329,#330));
#147=PLANE('',#148);
#148=AXIS2_PLACEMENT_3D('',#149,#150,#151);
#149=CARTESIAN_POINT('',(23.,-1.40834381901946E-15,23.));
#150=DIRECTION('',(0.,0.,1.));
#151=DIRECTION('',(-1.,0.,0.));
#152=FACE_BOUND('',#153,.T.);
#153=EDGE_LOOP('',(#331,#332,#333,#334));
#154=CYLINDRICAL_SURFACE('',#155,7.09048421295711);
#155=AXIS2_PLACEMENT_3D('',#156,#157,#158);
#156=CARTESIAN_POINT('',(-24.3522305082058,-0.800000000000002,-2.84209833373027E-15));
#157=DIRECTION('',(0.,1.,6.12323399573676E-17));
#158=DIRECTION('',(0.0285213960192234,6.12074295536321E-17,-0.99959318223421));
#159=FACE_BOUND('',#160,.T.);
#160=EDGE_LOOP('',(#335,#336,#337,#338));
#161=PLANE('',#162);
#162=AXIS2_PLACEMENT_3D('',#163,#164,#165);
#163=CARTESIAN_POINT('',(-24.15,-1.47876100997043E-15,24.15));
#164=DIRECTION('',(1.,6.84227765783602E-49,-7.355514862941E-17));
#165=DIRECTION('',(-7.355514862941E-17,6.12323399573677E-17,-1.));
#166=FACE_BOUND('',#167,.T.);
#167=EDGE_LOOP('',(#339,#340,#341,#342));
#168=PLANE('',#169);
#169=AXIS2_PLACEMENT_3D('',#170,#171,#172);
#170=CARTESIAN_POINT('',(23.,1.40834381901946E-15,-23.));
#171=DIRECTION('',(1.,0.,0.));
#172=DIRECTION('',(0.,-6.12323399573677E-17,1.));
#173=FACE_BOUND('',#174,.T.);
#174=EDGE_LOOP('',(#343,#344,#345,#346));
#175=PLANE('',#176);
#176=AXIS2_PLACEMENT_3D('',#177,#178,#179);
#177=CARTESIAN_POINT('',(-24.15,-1.47876100997043E-15,24.15));
#178=DIRECTION('',(1.,6.84227765783602E-49,-7.355514862941E-17));
#179=DIRECTION('',(-7.355514862941E-17,6.12323399573677E-17,-1.));
#180=FACE_BOUND('',#181,.T.);
#181=EDGE_LOOP('',(#347,#348,#349,#350));
#182=PLANE('',#183);
#183=AXIS2_PLACEMENT_3D('',#184,#185,#186);
#184=CARTESIAN_POINT('',(24.15,-1.47876100997043E-15,24.15));
#185=DIRECTION('',(-7.355514862941E-17,0.,-1.));
#186=DIRECTION('',(-1.,-4.08313097940482E-33,7.355514862941E-17));
#187=FACE_BOUND('',#188,.T.);
#188=EDGE_LOOP('',(#351,#352,#353,#354));
#189=PLANE('',#190);
#190=AXIS2_PLACEMENT_3D('',#191,#192,#193);
#191=CARTESIAN_POINT('',(24.15,1.47876100997043E-15,-24.15));
#192=DIRECTION('',(-1.,-6.84227765783602E-49,7.355514862941E-17));
#193=DIRECTION('',(7.355514862941E-17,-6.12323399573677E-17,1.));
#194=FACE_BOUND('',#195,.T.);
#195=EDGE_LOOP('',(#355,#356,#357,#358));
#196=PLANE('',#197);
#197=AXIS2_PLACEMENT_3D('',#198,#199,#200);
#198=CARTESIAN_POINT('',(-24.15,1.47876100997043E-15,-24.15));
#199=DIRECTION('',(7.355514862941E-17,0.,1.));
#200=DIRECTION('',(1.,4.08313097940482E-33,-7.355514862941E-17));
#201=FACE_BOUND('',#202,.T.);
#202=EDGE_LOOP('',(#359,#360,#361,#362));
#203=PLANE('',#204);
#204=AXIS2_PLACEMENT_3D('',#205,#206,#207);
#205=CARTESIAN_POINT('',(30.,-1.59204083889156E-15,26.));
#206=DIRECTION('',(1.,0.,-6.83214169000096E-17));
#207=DIRECTION('',(-6.83214169000096E-17,6.12323399573677E-17,-1.));
#208=FACE_BOUND('',#209,.T.);
#209=EDGE_LOOP('',(#363,#364,#365,#366));
#210=PLANE('',#211);
#211=AXIS2_PLACEMENT_3D('',#212,#213,#214);
#212=CARTESIAN_POINT('',(-26.,-1.59204083889156E-15,26.));
#213=DIRECTION('',(6.83214169000096E-17,0.,1.));
#214=DIRECTION('',(1.,3.79260050587025E-33,-6.83214169000096E-17));
#215=FACE_BOUND('',#216,.T.);
#216=EDGE_LOOP('',(#367,#368,#369,#370));
#217=PLANE('',#218);
#218=AXIS2_PLACEMENT_3D('',#219,#220,#221);
#219=CARTESIAN_POINT('',(-26.,1.59204083889156E-15,-26.));
#220=DIRECTION('',(-1.,0.,6.83214169000096E-17));
#221=DIRECTION('',(6.83214169000096E-17,-6.12323399573676E-17,1.));
#222=FACE_BOUND('',#223,.T.);
#223=EDGE_LOOP('',(#371,#372,#373,#374));
#224=CYLINDRICAL_SURFACE('',#225,7.09048421295711);
#225=AXIS2_PLACEMENT_3D('',#226,#227,#228);
#226=CARTESIAN_POINT('',(-24.3522305082058,-0.800000000000002,-2.84209833373027E-15));
#227=DIRECTION('',(0.,1.,6.12323399573676E-17));
#228=DIRECTION('',(0.0285213960192234,6.12074295536321E-17,-0.99959318223421));
#229=FACE_BOUND('',#230,.T.);
#230=EDGE_LOOP('',(#375,#376,#377,#378));
#231=PLANE('',#232);
#232=AXIS2_PLACEMENT_3D('',#233,#234,#235);
#233=CARTESIAN_POINT('',(-26.,1.59204083889156E-15,-26.));
#234=DIRECTION('',(-1.,0.,6.83214169000096E-17));
#235=DIRECTION('',(6.83214169000096E-17,-6.12323399573676E-17,1.));
#236=FACE_BOUND('',#237,.T.);
#237=EDGE_LOOP('',(#379,#380,#381,#382));
#238=PLANE('',#239);
#239=AXIS2_PLACEMENT_3D('',#240,#241,#242);
#240=CARTESIAN_POINT('',(26.,1.59204083889156E-15,-26.));
#241=DIRECTION('',(-6.83214169000096E-17,0.,-1.));
#242=DIRECTION('',(-1.,-3.79260050587025E-33,6.83214169000096E-17));
#243=FACE_BOUND('',#244,.T.);
#244=EDGE_LOOP('',(#383,#384,#385,#386,#387,#388));
#245=CYLINDRICAL_SURFACE('',#246,4.);
#246=AXIS2_PLACEMENT_3D('',#247,#248,#249);
#247=CARTESIAN_POINT('',(-27.,-8.8,-7.54912688450284));
#248=DIRECTION('',(0.,1.,5.28677630773884E-17));
#249=DIRECTION('',(0.330971186474277,-4.98881814463792E-17,0.943640860562857));
#250=FACE_BOUND('',#251,.T.);
#251=EDGE_LOOP('',(#389,#390,#391,#392,#393,#394));
#252=CYLINDRICAL_SURFACE('',#253,4.);
#253=AXIS2_PLACEMENT_3D('',#254,#255,#256);
#254=CARTESIAN_POINT('',(-27.,-8.79999999999997,7.54912688450286));
#255=DIRECTION('',(0.,-1.,-5.28677630773886E-17));
#256=DIRECTION('',(0.330971186474275,4.98881814463796E-17,-0.943640860562858));
#257=ORIENTED_EDGE('',*,*,#395,.T.);
#258=ORIENTED_EDGE('',*,*,#396,.F.);
#259=ORIENTED_EDGE('',*,*,#397,.F.);
#260=ORIENTED_EDGE('',*,*,#398,.F.);
#261=ORIENTED_EDGE('',*,*,#399,.T.);
#262=ORIENTED_EDGE('',*,*,#400,.F.);
#263=ORIENTED_EDGE('',*,*,#401,.T.);
#264=ORIENTED_EDGE('',*,*,#402,.F.);
#265=ORIENTED_EDGE('',*,*,#403,.F.);
#266=ORIENTED_EDGE('',*,*,#404,.F.);
#267=ORIENTED_EDGE('',*,*,#405,.F.);
#268=ORIENTED_EDGE('',*,*,#406,.T.);
#269=ORIENTED_EDGE('',*,*,#407,.F.);
#270=ORIENTED_EDGE('',*,*,#408,.T.);
#271=ORIENTED_EDGE('',*,*,#409,.T.);
#272=ORIENTED_EDGE('',*,*,#410,.F.);
#273=ORIENTED_EDGE('',*,*,#411,.F.);
#274=ORIENTED_EDGE('',*,*,#406,.F.);
#275=ORIENTED_EDGE('',*,*,#412,.F.);
#276=ORIENTED_EDGE('',*,*,#413,.T.);
#277=ORIENTED_EDGE('',*,*,#414,.T.);
#278=ORIENTED_EDGE('',*,*,#415,.T.);
#279=ORIENTED_EDGE('',*,*,#416,.T.);
#280=ORIENTED_EDGE('',*,*,#417,.T.);
#281=ORIENTED_EDGE('',*,*,#408,.F.);
#282=ORIENTED_EDGE('',*,*,#418,.F.);
#283=ORIENTED_EDGE('',*,*,#398,.T.);
#284=ORIENTED_EDGE('',*,*,#419,.T.);
#285=ORIENTED_EDGE('',*,*,#420,.T.);
#286=ORIENTED_EDGE('',*,*,#421,.T.);
#287=ORIENTED_EDGE('',*,*,#400,.T.);
#288=ORIENTED_EDGE('',*,*,#422,.T.);
#289=ORIENTED_EDGE('',*,*,#423,.T.);
#290=ORIENTED_EDGE('',*,*,#424,.T.);
#291=ORIENTED_EDGE('',*,*,#425,.F.);
#292=ORIENTED_EDGE('',*,*,#426,.T.);
#293=ORIENTED_EDGE('',*,*,#427,.T.);
#294=ORIENTED_EDGE('',*,*,#428,.F.);
#295=ORIENTED_EDGE('',*,*,#402,.T.);
#296=ORIENTED_EDGE('',*,*,#429,.T.);
#297=ORIENTED_EDGE('',*,*,#430,.T.);
#298=ORIENTED_EDGE('',*,*,#431,.T.);
#299=ORIENTED_EDGE('',*,*,#396,.T.);
#300=ORIENTED_EDGE('',*,*,#432,.F.);
#301=ORIENTED_EDGE('',*,*,#433,.T.);
#302=ORIENTED_EDGE('',*,*,#434,.T.);
#303=ORIENTED_EDGE('',*,*,#435,.T.);
#304=ORIENTED_EDGE('',*,*,#436,.T.);
#305=ORIENTED_EDGE('',*,*,#437,.T.);
#306=ORIENTED_EDGE('',*,*,#438,.T.);
#307=ORIENTED_EDGE('',*,*,#439,.F.);
#308=ORIENTED_EDGE('',*,*,#440,.F.);
#309=ORIENTED_EDGE('',*,*,#441,.T.);
#310=ORIENTED_EDGE('',*,*,#442,.F.);
#311=ORIENTED_EDGE('',*,*,#410,.T.);
#312=ORIENTED_EDGE('',*,*,#443,.T.);
#313=ORIENTED_EDGE('',*,*,#444,.T.);
#314=ORIENTED_EDGE('',*,*,#445,.T.);
#315=ORIENTED_EDGE('',*,*,#446,.T.);
#316=ORIENTED_EDGE('',*,*,#447,.T.);
#317=ORIENTED_EDGE('',*,*,#448,.T.);
#318=ORIENTED_EDGE('',*,*,#404,.T.);
#319=ORIENTED_EDGE('',*,*,#449,.F.);
#320=ORIENTED_EDGE('',*,*,#433,.F.);
#321=ORIENTED_EDGE('',*,*,#450,.F.);
#322=ORIENTED_EDGE('',*,*,#441,.F.);
#323=ORIENTED_EDGE('',*,*,#431,.F.);
#324=ORIENTED_EDGE('',*,*,#451,.F.);
#325=ORIENTED_EDGE('',*,*,#419,.F.);
#326=ORIENTED_EDGE('',*,*,#397,.T.);
#327=ORIENTED_EDGE('',*,*,#429,.F.);
#328=ORIENTED_EDGE('',*,*,#401,.F.);
#329=ORIENTED_EDGE('',*,*,#421,.F.);
#330=ORIENTED_EDGE('',*,*,#452,.T.);
#331=ORIENTED_EDGE('',*,*,#453,.T.);
#332=ORIENTED_EDGE('',*,*,#412,.T.);
#333=ORIENTED_EDGE('',*,*,#405,.T.);
#334=ORIENTED_EDGE('',*,*,#448,.F.);
#335=ORIENTED_EDGE('',*,*,#409,.F.);
#336=ORIENTED_EDGE('',*,*,#417,.F.);
#337=ORIENTED_EDGE('',*,*,#454,.T.);
#338=ORIENTED_EDGE('',*,*,#443,.F.);
#339=ORIENTED_EDGE('',*,*,#430,.F.);
#340=ORIENTED_EDGE('',*,*,#452,.F.);
#341=ORIENTED_EDGE('',*,*,#420,.F.);
#342=ORIENTED_EDGE('',*,*,#451,.T.);
#343=ORIENTED_EDGE('',*,*,#453,.F.);
#344=ORIENTED_EDGE('',*,*,#447,.F.);
#345=ORIENTED_EDGE('',*,*,#455,.F.);
#346=ORIENTED_EDGE('',*,*,#413,.F.);
#347=ORIENTED_EDGE('',*,*,#414,.F.);
#348=ORIENTED_EDGE('',*,*,#455,.T.);
#349=ORIENTED_EDGE('',*,*,#446,.F.);
#350=ORIENTED_EDGE('',*,*,#456,.F.);
#351=ORIENTED_EDGE('',*,*,#415,.F.);
#352=ORIENTED_EDGE('',*,*,#456,.T.);
#353=ORIENTED_EDGE('',*,*,#445,.F.);
#354=ORIENTED_EDGE('',*,*,#457,.F.);
#355=ORIENTED_EDGE('',*,*,#416,.F.);
#356=ORIENTED_EDGE('',*,*,#457,.T.);
#357=ORIENTED_EDGE('',*,*,#444,.F.);
#358=ORIENTED_EDGE('',*,*,#454,.F.);
#359=ORIENTED_EDGE('',*,*,#458,.T.);
#360=ORIENTED_EDGE('',*,*,#439,.T.);
#361=ORIENTED_EDGE('',*,*,#459,.T.);
#362=ORIENTED_EDGE('',*,*,#422,.F.);
#363=ORIENTED_EDGE('',*,*,#459,.F.);
#364=ORIENTED_EDGE('',*,*,#438,.F.);
#365=ORIENTED_EDGE('',*,*,#460,.F.);
#366=ORIENTED_EDGE('',*,*,#423,.F.);
#367=ORIENTED_EDGE('',*,*,#461,.F.);
#368=ORIENTED_EDGE('',*,*,#424,.F.);
#369=ORIENTED_EDGE('',*,*,#460,.T.);
#370=ORIENTED_EDGE('',*,*,#437,.F.);
#371=ORIENTED_EDGE('',*,*,#462,.T.);
#372=ORIENTED_EDGE('',*,*,#425,.T.);
#373=ORIENTED_EDGE('',*,*,#461,.T.);
#374=ORIENTED_EDGE('',*,*,#436,.F.);
#375=ORIENTED_EDGE('',*,*,#462,.F.);
#376=ORIENTED_EDGE('',*,*,#435,.F.);
#377=ORIENTED_EDGE('',*,*,#463,.F.);
#378=ORIENTED_EDGE('',*,*,#426,.F.);
#379=ORIENTED_EDGE('',*,*,#463,.T.);
#380=ORIENTED_EDGE('',*,*,#434,.F.);
#381=ORIENTED_EDGE('',*,*,#458,.F.);
#382=ORIENTED_EDGE('',*,*,#427,.F.);
#383=ORIENTED_EDGE('',*,*,#395,.F.);
#384=ORIENTED_EDGE('',*,*,#418,.T.);
#385=ORIENTED_EDGE('',*,*,#407,.T.);
#386=ORIENTED_EDGE('',*,*,#442,.T.);
#387=ORIENTED_EDGE('',*,*,#450,.T.);
#388=ORIENTED_EDGE('',*,*,#432,.T.);
#389=ORIENTED_EDGE('',*,*,#399,.F.);
#390=ORIENTED_EDGE('',*,*,#428,.T.);
#391=ORIENTED_EDGE('',*,*,#449,.T.);
#392=ORIENTED_EDGE('',*,*,#440,.T.);
#393=ORIENTED_EDGE('',*,*,#403,.T.);
#394=ORIENTED_EDGE('',*,*,#411,.T.);
#395=EDGE_CURVE('',#464,#465,#466,.F.);
#396=EDGE_CURVE('',#467,#465,#468,.F.);
#397=EDGE_CURVE('',#469,#467,#470,.T.);
#398=EDGE_CURVE('',#464,#469,#471,.T.);
#399=EDGE_CURVE('',#472,#473,#474,.T.);
#400=EDGE_CURVE('',#475,#473,#476,.T.);
#401=EDGE_CURVE('',#475,#477,#478,.T.);
#402=EDGE_CURVE('',#472,#477,#479,.F.);
#403=EDGE_CURVE('',#480,#481,#482,.F.);
#404=EDGE_CURVE('',#483,#480,#484,.T.);
#405=EDGE_CURVE('',#485,#483,#486,.T.);
#406=EDGE_CURVE('',#485,#481,#487,.F.);
#407=EDGE_CURVE('',#488,#489,#490,.F.);
#408=EDGE_CURVE('',#488,#491,#492,.F.);
#409=EDGE_CURVE('',#491,#493,#494,.T.);
#410=EDGE_CURVE('',#489,#493,#495,.T.);
#411=EDGE_CURVE('',#481,#473,#496,.F.);
#412=EDGE_CURVE('',#497,#485,#498,.T.);
#413=EDGE_CURVE('',#497,#499,#500,.F.);
#414=EDGE_CURVE('',#499,#501,#502,.F.);
#415=EDGE_CURVE('',#501,#503,#504,.F.);
#416=EDGE_CURVE('',#503,#505,#506,.F.);
#417=EDGE_CURVE('',#505,#491,#507,.F.);
#418=EDGE_CURVE('',#464,#488,#508,.F.);
#419=EDGE_CURVE('',#469,#509,#510,.T.);
#420=EDGE_CURVE('',#509,#511,#512,.T.);
#421=EDGE_CURVE('',#511,#475,#513,.T.);
#422=EDGE_CURVE('',#514,#515,#516,.T.);
#423=EDGE_CURVE('',#515,#517,#518,.T.);
#424=EDGE_CURVE('',#517,#519,#520,.T.);
#425=EDGE_CURVE('',#521,#519,#522,.T.);
#426=EDGE_CURVE('',#521,#523,#524,.T.);
#427=EDGE_CURVE('',#523,#514,#525,.T.);
#428=EDGE_CURVE('',#472,#526,#527,.F.);
#429=EDGE_CURVE('',#477,#528,#529,.F.);
#430=EDGE_CURVE('',#528,#530,#531,.F.);
#431=EDGE_CURVE('',#530,#467,#532,.F.);
#432=EDGE_CURVE('',#533,#465,#534,.F.);
#433=EDGE_CURVE('',#533,#526,#535,.T.);
#434=EDGE_CURVE('',#536,#537,#538,.T.);
#435=EDGE_CURVE('',#537,#539,#540,.T.);
#436=EDGE_CURVE('',#539,#541,#542,.T.);
#437=EDGE_CURVE('',#541,#543,#544,.T.);
#438=EDGE_CURVE('',#543,#545,#546,.T.);
#439=EDGE_CURVE('',#536,#545,#547,.T.);
#440=EDGE_CURVE('',#548,#480,#549,.F.);
#441=EDGE_CURVE('',#548,#550,#551,.F.);
#442=EDGE_CURVE('',#489,#550,#552,.F.);
#443=EDGE_CURVE('',#493,#553,#554,.T.);
#444=EDGE_CURVE('',#553,#555,#556,.T.);
#445=EDGE_CURVE('',#555,#557,#558,.T.);
#446=EDGE_CURVE('',#557,#559,#560,.T.);
#447=EDGE_CURVE('',#559,#561,#562,.T.);
#448=EDGE_CURVE('',#561,#483,#563,.T.);
#449=EDGE_CURVE('',#526,#548,#564,.T.);
#450=EDGE_CURVE('',#550,#533,#565,.F.);
#451=EDGE_CURVE('',#509,#530,#566,.T.);
#452=EDGE_CURVE('',#511,#528,#567,.T.);
#453=EDGE_CURVE('',#561,#497,#568,.F.);
#454=EDGE_CURVE('',#505,#553,#569,.T.);
#455=EDGE_CURVE('',#499,#559,#570,.T.);
#456=EDGE_CURVE('',#501,#557,#571,.T.);
#457=EDGE_CURVE('',#503,#555,#572,.T.);
#458=EDGE_CURVE('',#514,#536,#573,.T.);
#459=EDGE_CURVE('',#545,#515,#574,.T.);
#460=EDGE_CURVE('',#517,#543,#575,.T.);
#461=EDGE_CURVE('',#519,#541,#576,.T.);
#462=EDGE_CURVE('',#539,#521,#577,.F.);
#463=EDGE_CURVE('',#523,#537,#578,.T.);
#464=VERTEX_POINT('',#579);
#465=VERTEX_POINT('',#580);
#466=LINE('',#581,#582);
#467=VERTEX_POINT('',#584);
#468=LINE('',#585,#586);
#469=VERTEX_POINT('',#588);
#470=LINE('',#589,#590);
#471=LINE('',#592,#593);
#472=VERTEX_POINT('',#595);
#473=VERTEX_POINT('',#596);
#474=LINE('',#597,#598);
#475=VERTEX_POINT('',#600);
#476=LINE('',#601,#602);
#477=VERTEX_POINT('',#604);
#478=LINE('',#605,#606);
#479=LINE('',#608,#609);
#480=VERTEX_POINT('',#611);
#481=VERTEX_POINT('',#612);
#482=LINE('',#613,#614);
#483=VERTEX_POINT('',#616);
#484=LINE('',#617,#618);
#485=VERTEX_POINT('',#620);
#486=LINE('',#621,#622);
#487=LINE('',#624,#625);
#488=VERTEX_POINT('',#627);
#489=VERTEX_POINT('',#628);
#490=LINE('',#629,#630);
#491=VERTEX_POINT('',#632);
#492=LINE('',#633,#634);
#493=VERTEX_POINT('',#636);
#494=LINE('',#637,#638);
#495=LINE('',#640,#641);
#496=CIRCLE('',#643,4.00000000000001);
#497=VERTEX_POINT('',#647);
#498=CIRCLE('',#648,7.09048421295711);
#499=VERTEX_POINT('',#652);
#500=LINE('',#653,#654);
#501=VERTEX_POINT('',#656);
#502=LINE('',#657,#658);
#503=VERTEX_POINT('',#660);
#504=LINE('',#661,#662);
#505=VERTEX_POINT('',#664);
#506=LINE('',#665,#666);
#507=LINE('',#668,#669);
#508=CIRCLE('',#671,4.00000000056554);
#509=VERTEX_POINT('',#675);
#510=LINE('',#676,#677);
#511=VERTEX_POINT('',#679);
#512=LINE('',#680,#681);
#513=LINE('',#683,#684);
#514=VERTEX_POINT('',#686);
#515=VERTEX_POINT('',#687);
#516=LINE('',#688,#689);
#517=VERTEX_POINT('',#691);
#518=LINE('',#692,#693);
#519=VERTEX_POINT('',#695);
#520=LINE('',#696,#697);
#521=VERTEX_POINT('',#699);
#522=CIRCLE('',#700,7.09048421295711);
#523=VERTEX_POINT('',#704);
#524=LINE('',#705,#706);
#525=LINE('',#708,#709);
#526=VERTEX_POINT('',#711);
#527=CIRCLE('',#712,4.);
#528=VERTEX_POINT('',#716);
#529=LINE('',#717,#718);
#530=VERTEX_POINT('',#720);
#531=LINE('',#721,#722);
#532=LINE('',#724,#725);
#533=VERTEX_POINT('',#727);
#534=CIRCLE('',#728,3.99999999999999);
#535=CIRCLE('',#732,4.);
#536=VERTEX_POINT('',#736);
#537=VERTEX_POINT('',#737);
#538=LINE('',#738,#739);
#539=VERTEX_POINT('',#741);
#540=LINE('',#742,#743);
#541=VERTEX_POINT('',#745);
#542=CIRCLE('',#746,7.09048421295711);
#543=VERTEX_POINT('',#750);
#544=LINE('',#751,#752);
#545=VERTEX_POINT('',#754);
#546=LINE('',#755,#756);
#547=LINE('',#758,#759);
#548=VERTEX_POINT('',#761);
#549=CIRCLE('',#762,4.00000000063389);
#550=VERTEX_POINT('',#766);
#551=CIRCLE('',#767,4.);
#552=CIRCLE('',#771,3.99999999999997);
#553=VERTEX_POINT('',#775);
#554=LINE('',#776,#777);
#555=VERTEX_POINT('',#779);
#556=LINE('',#780,#781);
#557=VERTEX_POINT('',#783);
#558=LINE('',#784,#785);
#559=VERTEX_POINT('',#787);
#560=LINE('',#788,#789);
#561=VERTEX_POINT('',#791);
#562=LINE('',#792,#793);
#563=CIRCLE('',#795,7.09048421295711);
#564=LINE('',#799,#800);
#565=LINE('',#802,#803);
#566=LINE('',#805,#806);
#567=LINE('',#808,#809);
#568=LINE('',#811,#812);
#569=LINE('',#814,#815);
#570=LINE('',#817,#818);
#571=LINE('',#820,#821);
#572=LINE('',#823,#824);
#573=LINE('',#826,#827);
#574=LINE('',#829,#830);
#575=LINE('',#832,#833);
#576=LINE('',#835,#836);
#577=LINE('',#838,#839);
#578=LINE('',#841,#842);
#579=CARTESIAN_POINT('',(-22.9999999999057,1.93649423863235E-15,-7.54912688450283));
#580=CARTESIAN_POINT('',(-23.,-0.800000000000005,-7.54912688450283));
#581=CARTESIAN_POINT('',(-23.,-0.800000000000011,-7.54912688450284));
#582=VECTOR('',#583,1.);
#583=DIRECTION('',(0.,1.,0.));
#584=CARTESIAN_POINT('',(-23.,-0.799999999999999,-23.));
#585=CARTESIAN_POINT('',(-23.,-0.8,-7.54912688450281));
#586=VECTOR('',#587,1.);
#587=DIRECTION('',(0.,7.18550347495641E-17,-1.));
#588=CARTESIAN_POINT('',(-23.,1.40834381901946E-15,-23.));
#589=CARTESIAN_POINT('',(-23.,1.40834381901946E-15,-23.));
#590=VECTOR('',#591,1.);
#591=DIRECTION('',(0.,-1.,0.));
#592=CARTESIAN_POINT('',(-23.,4.6225070377318E-16,-7.54912688450281));
#593=VECTOR('',#594,1.);
#594=DIRECTION('',(0.,6.12323399573676E-17,-1.));
#595=CARTESIAN_POINT('',(-23.,-0.800000000000001,7.54912688450286));
#596=CARTESIAN_POINT('',(-23.,-1.60137399232101E-16,7.54912688450286));
#597=CARTESIAN_POINT('',(-23.,-0.800000000000003,7.54912688450286));
#598=VECTOR('',#599,1.);
#599=DIRECTION('',(0.,1.,0.));
#600=CARTESIAN_POINT('',(-23.,-1.40834381901946E-15,23.));
#601=CARTESIAN_POINT('',(-23.,-1.40834381901946E-15,23.));
#602=VECTOR('',#603,1.);
#603=DIRECTION('',(0.,6.12323399573676E-17,-1.));
#604=CARTESIAN_POINT('',(-23.,-0.800000000000001,23.));
#605=CARTESIAN_POINT('',(-23.,-1.40834381901946E-15,23.));
#606=VECTOR('',#607,1.);
#607=DIRECTION('',(0.,-1.,0.));
#608=CARTESIAN_POINT('',(-23.,-0.800000000000001,23.));
#609=VECTOR('',#610,1.);
#610=DIRECTION('',(0.,6.46695312746079E-17,-1.));
#611=CARTESIAN_POINT('',(-24.1429120378695,1.6,4.74965400911546));
#612=CARTESIAN_POINT('',(-24.142912037945,-1.7095901129853E-16,4.7496540091894));
#613=CARTESIAN_POINT('',(-24.142912037945,-1.11022302462516E-16,4.7496540091894));
#614=VECTOR('',#615,1.);
#615=DIRECTION('',(0.,1.,5.55111512312579E-16));
#616=CARTESIAN_POINT('',(-24.1415122604953,1.6,7.08735241075789));
#617=CARTESIAN_POINT('',(-24.1415122604953,1.6,7.08735241075789));
#618=VECTOR('',#619,1.);
#619=DIRECTION('',(-0.000598784244905822,0.,-0.999999820728698));
#620=CARTESIAN_POINT('',(-24.1415122604953,-4.44089209850063E-16,7.08735241075789));
#621=CARTESIAN_POINT('',(-24.1415122604953,-4.44089209850063E-16,7.08735241075789));
#622=VECTOR('',#623,1.);
#623=DIRECTION('',(0.,1.,0.));
#624=CARTESIAN_POINT('',(-24.1429120377186,-2.56438516941004E-16,4.74965400896758));
#625=VECTOR('',#626,1.);
#626=DIRECTION('',(0.000598784244907342,-7.81082971254894E-17,0.999999820728698));
#627=CARTESIAN_POINT('',(-24.1485966080074,2.07848271037306E-16,-4.74386420533185));
#628=CARTESIAN_POINT('',(-24.1485966080746,1.6,-4.74386420539796));
#629=CARTESIAN_POINT('',(-24.1485966080746,1.6,-4.74386420539795));
#630=VECTOR('',#631,1.);
#631=DIRECTION('',(0.,-1.,0.));
#632=CARTESIAN_POINT('',(-24.15,4.33990312965584E-16,-7.08759967800912));
#633=CARTESIAN_POINT('',(-24.15,4.39039761407888E-16,-7.08759967801122));
#634=VECTOR('',#635,1.);
#635=DIRECTION('',(0.000598784244906156,-5.43010649080939E-17,0.999999820728698));
#636=CARTESIAN_POINT('',(-24.15,1.6,-7.08759967800982));
#637=CARTESIAN_POINT('',(-24.15,4.39039761407823E-16,-7.08759967800912));
#638=VECTOR('',#639,1.);
#639=DIRECTION('',(0.,1.,0.));
#640=CARTESIAN_POINT('',(-24.1485966078731,1.6,-4.74386420519964));
#641=VECTOR('',#642,1.);
#642=DIRECTION('',(-0.000598784244906156,0.,-0.999999820728698));
#643=AXIS2_PLACEMENT_3D('',#644,#645,#646);
#644=CARTESIAN_POINT('',(-27.,-4.62250703773183E-16,7.54912688450286));
#645=DIRECTION('',(0.,1.,6.12323399573677E-17));
#646=DIRECTION('',(1.,-1.08770485875751E-31,1.77635683940025E-15));
#647=CARTESIAN_POINT('',(-24.15,-4.33990312965713E-16,7.08759967801122));
#648=AXIS2_PLACEMENT_3D('',#649,#650,#651);
#649=CARTESIAN_POINT('',(-24.3522305082058,1.71028811797917E-31,-2.79311246176438E-15));
#650=DIRECTION('',(0.,1.,6.12323399573677E-17));
#651=DIRECTION('',(0.0285213960192234,-6.12074295536321E-17,0.99959318223421));
#652=CARTESIAN_POINT('',(-24.15,-1.47876100997043E-15,24.15));
#653=CARTESIAN_POINT('',(-24.15,-1.47876100997043E-15,24.15));
#654=VECTOR('',#655,1.);
#655=DIRECTION('',(0.,6.12323399573677E-17,-1.));
#656=CARTESIAN_POINT('',(24.15,-1.47876100997043E-15,24.15));
#657=CARTESIAN_POINT('',(24.15,-1.47876100997043E-15,24.15));
#658=VECTOR('',#659,1.);
#659=DIRECTION('',(-1.,-4.08313097940482E-33,7.355514862941E-17));
#660=CARTESIAN_POINT('',(24.15,1.47876100997043E-15,-24.15));
#661=CARTESIAN_POINT('',(24.15,1.47876100997043E-15,-24.15));
#662=VECTOR('',#663,1.);
#663=DIRECTION('',(7.355514862941E-17,-6.12323399573677E-17,1.));
#664=CARTESIAN_POINT('',(-24.15,1.47876100997043E-15,-24.15));
#665=CARTESIAN_POINT('',(-24.15,1.47876100997043E-15,-24.15));
#666=VECTOR('',#667,1.);
#667=DIRECTION('',(1.,8.16626195880965E-33,-7.355514862941E-17));
#668=CARTESIAN_POINT('',(-24.15,4.33990312965584E-16,-7.08759967800912));
#669=VECTOR('',#670,1.);
#670=DIRECTION('',(-2.082188679058E-16,6.12323399573677E-17,-1.));
#671=AXIS2_PLACEMENT_3D('',#672,#673,#674);
#672=CARTESIAN_POINT('',(-27.,4.62250703773182E-16,-7.54912688450284));
#673=DIRECTION('',(0.,1.,6.12323399573676E-17));
#674=DIRECTION('',(0.712850847930946,-4.29431995061309E-17,0.701315669726644));
#675=CARTESIAN_POINT('',(23.,1.40834381901946E-15,-23.));
#676=CARTESIAN_POINT('',(-23.,1.40834381901946E-15,-23.));
#677=VECTOR('',#678,1.);
#678=DIRECTION('',(1.,4.28728752837506E-33,0.));
#679=CARTESIAN_POINT('',(23.,-1.40834381901946E-15,23.));
#680=CARTESIAN_POINT('',(23.,1.40834381901946E-15,-23.));
#681=VECTOR('',#682,1.);
#682=DIRECTION('',(0.,-6.12323399573677E-17,1.));
#683=CARTESIAN_POINT('',(23.,-1.40834381901946E-15,23.));
#684=VECTOR('',#685,1.);
#685=DIRECTION('',(-1.,-4.28728752837506E-33,0.));
#686=CARTESIAN_POINT('',(30.,-0.799999999999998,-26.));
#687=CARTESIAN_POINT('',(30.,-0.800000000000002,26.));
#688=CARTESIAN_POINT('',(30.,-0.799999999999998,-26.));
#689=VECTOR('',#690,1.);
#690=DIRECTION('',(6.83214169000096E-17,-5.97812397875084E-17,1.));
#691=CARTESIAN_POINT('',(-26.,-0.800000000000002,26.));
#692=CARTESIAN_POINT('',(30.,-0.800000000000002,26.));
#693=VECTOR('',#694,1.);
#694=DIRECTION('',(-1.,0.,0.));
#695=CARTESIAN_POINT('',(-26.,-0.800000000000001,6.89636296000334));
#696=CARTESIAN_POINT('',(-26.,-0.800000000000002,26.));
#697=VECTOR('',#698,1.);
#698=DIRECTION('',(0.,5.81157934638686E-17,-1.));
#699=CARTESIAN_POINT('',(-26.,-0.8,-6.89636296000337));
#700=AXIS2_PLACEMENT_3D('',#701,#702,#703);
#701=CARTESIAN_POINT('',(-24.3522305082058,-0.8,-2.84209833373027E-15));
#702=DIRECTION('',(0.,1.,6.12323399573677E-17));
#703=DIRECTION('',(-0.232391673446374,5.95559384314898E-17,-0.972622285428826));
#704=CARTESIAN_POINT('',(-26.,-0.799999999999998,-26.));
#705=CARTESIAN_POINT('',(-26.,-0.8,-6.89636296000338));
#706=VECTOR('',#707,1.);
#707=DIRECTION('',(0.,5.81157934638687E-17,-1.));
#708=CARTESIAN_POINT('',(-26.,-0.799999999999998,-26.));
#709=VECTOR('',#710,1.);
#710=DIRECTION('',(1.,0.,0.));
#711=CARTESIAN_POINT('',(-25.6761152541029,-0.799999999999999,3.77456344225143));
#712=AXIS2_PLACEMENT_3D('',#713,#714,#715);
#713=CARTESIAN_POINT('',(-27.,-0.800000000000001,7.54912688450286));
#714=DIRECTION('',(0.,-1.,-6.12323399573677E-17));
#715=DIRECTION('',(0.330971186474275,5.77813379716479E-17,-0.943640860562858));
#716=CARTESIAN_POINT('',(23.,-0.800000000000001,23.));
#717=CARTESIAN_POINT('',(23.,-0.800000000000001,23.));
#718=VECTOR('',#719,1.);
#719=DIRECTION('',(-1.,0.,0.));
#720=CARTESIAN_POINT('',(23.,-0.799999999999999,-23.));
#721=CARTESIAN_POINT('',(23.,-0.799999999999999,-23.));
#722=VECTOR('',#723,1.);
#723=DIRECTION('',(0.,-6.51652644888679E-17,1.));
#724=CARTESIAN_POINT('',(-23.,-0.799999999999999,-23.));
#725=VECTOR('',#726,1.);
#726=DIRECTION('',(1.,0.,0.));
#727=CARTESIAN_POINT('',(-25.6761152541029,-0.800000000000004,-3.77456344225143));
#728=AXIS2_PLACEMENT_3D('',#729,#730,#731);
#729=CARTESIAN_POINT('',(-27.,-0.8,-7.54912688450284));
#730=DIRECTION('',(0.,-1.,-6.12323399573677E-17));
#731=DIRECTION('',(1.,-5.03063497175351E-31,8.21565038222617E-15));
#732=AXIS2_PLACEMENT_3D('',#733,#734,#735);
#733=CARTESIAN_POINT('',(-24.3522305082058,-0.8,-2.84209833373027E-15));
#734=DIRECTION('',(0.,1.,6.12323399573677E-17));
#735=DIRECTION('',(-0.330971186474272,5.77813379716479E-17,-0.943640860562859));
#736=CARTESIAN_POINT('',(30.,1.6,-26.));
#737=CARTESIAN_POINT('',(-26.,1.6,-26.));
#738=CARTESIAN_POINT('',(30.,1.6,-26.));
#739=VECTOR('',#740,1.);
#740=DIRECTION('',(-1.,0.,-1.90323947078598E-16));
#741=CARTESIAN_POINT('',(-26.,1.6,-6.89636296000336));
#742=CARTESIAN_POINT('',(-26.,1.6,-26.));
#743=VECTOR('',#744,1.);
#744=DIRECTION('',(0.,-5.81157934638687E-17,1.));
#745=CARTESIAN_POINT('',(-26.,1.6,6.89636296000335));
#746=AXIS2_PLACEMENT_3D('',#747,#748,#749);
#747=CARTESIAN_POINT('',(-24.3522305082058,1.6,-2.69514071783259E-15));
#748=DIRECTION('',(0.,1.,6.12323399573677E-17));
#749=DIRECTION('',(-0.232391673446374,5.95559384314898E-17,-0.972622285428826));
#750=CARTESIAN_POINT('',(-26.,1.6,26.));
#751=CARTESIAN_POINT('',(-26.,1.6,6.89636296000334));
#752=VECTOR('',#753,1.);
#753=DIRECTION('',(0.,-5.81157934638687E-17,1.));
#754=CARTESIAN_POINT('',(30.,1.6,26.));
#755=CARTESIAN_POINT('',(-26.,1.6,26.));
#756=VECTOR('',#757,1.);
#757=DIRECTION('',(1.,0.,-6.34413156928661E-17));
#758=CARTESIAN_POINT('',(30.,1.6,-26.));
#759=VECTOR('',#760,1.);
#760=DIRECTION('',(1.36642833800019E-16,-5.97812397875084E-17,1.));
#761=CARTESIAN_POINT('',(-25.6761152540679,1.6,3.77456344215173));
#762=AXIS2_PLACEMENT_3D('',#763,#764,#765);
#763=CARTESIAN_POINT('',(-27.,1.6,7.54912688450286));
#764=DIRECTION('',(0.,1.,6.12323399573677E-17));
#765=DIRECTION('',(0.714271990457159,4.28545686972603E-17,-0.699868218772911));
#766=CARTESIAN_POINT('',(-25.6761152541029,1.6,-3.77456344225143));
#767=AXIS2_PLACEMENT_3D('',#768,#769,#770);
#768=CARTESIAN_POINT('',(-24.3522305082058,1.6,-2.69514071783259E-15));
#769=DIRECTION('',(0.,1.,6.12323399573677E-17));
#770=DIRECTION('',(-0.330971186474272,5.77813379716479E-17,-0.943640860562859));
#771=AXIS2_PLACEMENT_3D('',#772,#773,#774);
#772=CARTESIAN_POINT('',(-27.,1.6,-7.54912688450284));
#773=DIRECTION('',(0.,1.,6.12323399573677E-17));
#774=DIRECTION('',(0.330971186474277,-5.77813379716478E-17,0.943640860562857));
#775=CARTESIAN_POINT('',(-24.15,1.6,-24.15));
#776=CARTESIAN_POINT('',(-24.15,1.6,-7.08759967800912));
#777=VECTOR('',#778,1.);
#778=DIRECTION('',(-2.082188679058E-16,7.80820754646751E-17,-1.));
#779=CARTESIAN_POINT('',(24.15,1.6,-24.15));
#780=CARTESIAN_POINT('',(-24.15,1.6,-24.15));
#781=VECTOR('',#782,1.);
#782=DIRECTION('',(1.,0.,-7.355514862941E-17));
#783=CARTESIAN_POINT('',(24.15,1.6,24.15));
#784=CARTESIAN_POINT('',(24.15,1.6,-24.15));
#785=VECTOR('',#786,1.);
#786=DIRECTION('',(7.355514862941E-17,-6.89579518400718E-17,1.));
#787=CARTESIAN_POINT('',(-24.15,1.6,24.15));
#788=CARTESIAN_POINT('',(24.15,1.6,24.15));
#789=VECTOR('',#790,1.);
#790=DIRECTION('',(-1.,0.,7.355514862941E-17));
#791=CARTESIAN_POINT('',(-24.15,1.6,7.08759967801122));
#792=CARTESIAN_POINT('',(-24.15,1.6,24.15));
#793=VECTOR('',#794,1.);
#794=DIRECTION('',(0.,6.50683962205706E-17,-1.));
#795=AXIS2_PLACEMENT_3D('',#796,#797,#798);
#796=CARTESIAN_POINT('',(-24.3522305082058,1.6,-2.69514071783259E-15));
#797=DIRECTION('',(0.,1.,6.12323399573677E-17));
#798=DIRECTION('',(0.0285213960192234,-6.12074295536321E-17,0.99959318223421));
#799=CARTESIAN_POINT('',(-25.6761152541029,-0.799999999999994,3.77456344225143));
#800=VECTOR('',#801,1.);
#801=DIRECTION('',(0.,1.,0.));
#802=CARTESIAN_POINT('',(-25.6761152541029,-0.800000000000006,-3.77456344225144));
#803=VECTOR('',#804,1.);
#804=DIRECTION('',(0.,1.,0.));
#805=CARTESIAN_POINT('',(23.,1.40834381901946E-15,-23.));
#806=VECTOR('',#807,1.);
#807=DIRECTION('',(0.,-1.,0.));
#808=CARTESIAN_POINT('',(23.,-1.40834381901946E-15,23.));
#809=VECTOR('',#810,1.);
#810=DIRECTION('',(0.,-1.,0.));
#811=CARTESIAN_POINT('',(-24.15,-3.28017458945372E-16,7.08759967801122));
#812=VECTOR('',#813,1.);
#813=DIRECTION('',(0.,1.,0.));
#814=CARTESIAN_POINT('',(-24.15,1.47876100997043E-15,-24.15));
#815=VECTOR('',#816,1.);
#816=DIRECTION('',(0.,1.,0.));
#817=CARTESIAN_POINT('',(-24.15,-1.47876100997043E-15,24.15));
#818=VECTOR('',#819,1.);
#819=DIRECTION('',(0.,1.,0.));
#820=CARTESIAN_POINT('',(24.15,-1.47876100997043E-15,24.15));
#821=VECTOR('',#822,1.);
#822=DIRECTION('',(0.,1.,0.));
#823=CARTESIAN_POINT('',(24.15,1.47876100997043E-15,-24.15));
#824=VECTOR('',#825,1.);
#825=DIRECTION('',(0.,1.,0.));
#826=CARTESIAN_POINT('',(30.,-0.799999999999998,-26.));
#827=VECTOR('',#828,1.);
#828=DIRECTION('',(1.48029736616688E-15,1.,2.96059473233375E-15));
#829=CARTESIAN_POINT('',(30.,1.6,26.));
#830=VECTOR('',#831,1.);
#831=DIRECTION('',(0.,-1.,0.));
#832=CARTESIAN_POINT('',(-26.,-0.800000000000002,26.));
#833=VECTOR('',#834,1.);
#834=DIRECTION('',(-1.48029736616688E-15,1.,-2.96059473233375E-15));
#835=CARTESIAN_POINT('',(-26.,-0.800000000000002,6.89636296000334));
#836=VECTOR('',#837,1.);
#837=DIRECTION('',(0.,1.,0.));
#838=CARTESIAN_POINT('',(-26.,-0.800000000000001,-6.89636296000336));
#839=VECTOR('',#840,1.);
#840=DIRECTION('',(0.,1.,0.));
#841=CARTESIAN_POINT('',(-26.,-0.799999999999998,-26.));
#842=VECTOR('',#843,1.);
#843=DIRECTION('',(2.96059473233375E-15,1.,-1.48029736616688E-15));
ENDSEC;
END-ISO-10303-21;
